<svg width="50" height="50" viewBox="0 0 50 50" fill="none" xmlns="http://www.w3.org/2000/svg">
<mask id="mask0_45_1294" style="mask-type:alpha" maskUnits="userSpaceOnUse" x="0" y="0" width="50" height="50">
<rect width="50" height="50" fill="#D9D9D9"/>
</mask>
<g mask="url(#mask0_45_1294)">
<path d="M39.5835 29.1667V15.625L29.1668 8.33333L18.7502 15.625V18.75H14.5835V13.5417L29.1668 3.125L43.7502 13.5417V29.1667H39.5835ZM30.2085 16.6667H32.2918V14.5833H30.2085V16.6667ZM26.0418 16.6667H28.1252V14.5833H26.0418V16.6667ZM30.2085 20.8333H32.2918V18.75H30.2085V20.8333ZM26.0418 20.8333H28.1252V18.75H26.0418V20.8333ZM14.5835 38.5417L29.0627 42.5L41.4585 38.6458C41.2849 38.3333 41.0331 38.0642 40.7033 37.8385C40.3734 37.6128 40.0002 37.5 39.5835 37.5H29.0627C28.1252 37.5 27.3786 37.4653 26.8231 37.3958C26.2675 37.3264 25.6946 37.1875 25.1043 36.9792L20.2606 35.3646L21.4064 31.3021L25.6252 32.7083C26.2154 32.8819 26.9099 33.0208 27.7085 33.125C28.5071 33.2292 29.6877 33.2986 31.2502 33.3333C31.2502 32.9514 31.1373 32.5868 30.9116 32.2396C30.6859 31.8924 30.4168 31.6667 30.1043 31.5625L17.9168 27.0833H14.5835V38.5417ZM2.0835 45.8333V22.9167H17.9168C18.1599 22.9167 18.4029 22.9427 18.646 22.9948C18.8891 23.0469 19.1147 23.1076 19.3231 23.1771L31.5627 27.7083C32.7085 28.125 33.6373 28.8542 34.3491 29.8958C35.0609 30.9375 35.4168 32.0833 35.4168 33.3333H39.5835C41.3196 33.3333 42.7953 33.9062 44.0106 35.0521C45.2259 36.1979 45.8335 37.7083 45.8335 39.5833V41.6667L29.1668 46.875L14.5835 42.8125V45.8333H2.0835ZM6.25016 41.6667H10.4168V27.0833H6.25016V41.6667Z" fill="white"/>
</g>
</svg>
