<svg width="137" height="33" viewBox="0 0 137 33" fill="none" xmlns="http://www.w3.org/2000/svg">
<path fill-rule="evenodd" clip-rule="evenodd" d="M43.6741 31.027C43.8488 31.1005 44.0368 31.1671 44.2383 31.2287C48.3226 32.4767 59.7812 33.0439 62.2772 31.2287C64.5402 29.5829 63.912 27.2842 63.5213 25.8548C63.4811 25.7076 63.4434 25.5697 63.4117 25.4427C63.3734 25.2895 63.2891 24.9367 63.1672 24.426C62.2051 20.3973 58.8963 6.54158 57.2853 3.31959C55.47 -0.310865 51.4992 -2.01264 48.7764 3.7734C47.6171 6.23688 46.211 10.3662 44.9697 14.4977C47.0976 16.4085 48.436 19.181 48.436 22.266C48.436 25.9376 46.5402 29.1664 43.6741 31.027Z" fill="#6A8238"/>
<path fill-rule="evenodd" clip-rule="evenodd" d="M32.3121 9.42264C32.3828 5.71721 29.4762 2.63611 25.7729 2.49088L22.0502 2.3449C18.229 2.19504 15.0342 5.22146 14.9772 9.04518L14.9168 13.091C16.4091 16.4225 18.5528 22.4699 19.3924 24.9888C20.2996 27.7105 20.4903 30.3426 18.2137 31.6119C19.1961 32.1625 20.3294 32.4767 21.5369 32.4767H25.1937C27.44 32.4767 29.436 31.3875 30.6765 29.7045C28.7534 27.8113 27.5609 25.1779 27.5609 22.266C27.5609 18.6329 29.4172 15.4333 32.233 13.564L32.3121 9.42264Z" fill="#A4B648"/>
<path fill-rule="evenodd" clip-rule="evenodd" d="M43.6741 31.027C42.0404 32.0876 40.0914 32.7036 37.9985 32.7036C35.1459 32.7036 32.5606 31.5592 30.6765 29.7045C31.4842 28.6089 31.9716 27.2616 31.9995 25.7994L32.233 13.564C33.8849 12.4673 35.8671 11.8284 37.9985 11.8284C40.6779 11.8284 43.1216 12.8381 44.9697 14.4977C43.2955 20.0699 41.921 25.646 41.8558 27.1444C41.7553 29.4577 42.3097 30.4529 43.6741 31.027Z" fill="#6CA13C"/>
<path fill-rule="evenodd" clip-rule="evenodd" d="M0.559423 26.1233C-0.121287 27.636 -0.733926 30.8429 2.2612 31.569C6.0051 32.4766 13.9467 33.0438 17.2368 32.0228C17.6036 31.9089 17.9281 31.7711 18.2137 31.6119C16.1053 30.4302 14.6919 28.1593 14.7305 25.568L14.9168 13.091C14.5942 12.371 14.3021 11.7778 14.0602 11.3746C12.6988 9.10552 8.16069 8.31136 6.11856 12.5091C4.07643 16.7068 1.11369 23.8542 0.559423 26.1233Z" fill="#446A37"/>
<path d="M14.7305 25.568L14.9168 13.091C16.4091 16.4225 18.5528 22.4699 19.3924 24.9888C20.2996 27.7105 20.4903 30.3426 18.2137 31.6119C16.1053 30.4302 14.6919 28.1593 14.7305 25.568Z" fill="#39582F"/>
<path d="M32.233 13.564L31.9995 25.7994C31.9716 27.2616 31.4842 28.6089 30.6765 29.7045C28.7534 27.8113 27.5609 25.1779 27.5609 22.266C27.5609 18.6329 29.4172 15.4333 32.233 13.564Z" fill="#538335"/>
<path fill-rule="evenodd" clip-rule="evenodd" d="M43.6741 31.027C42.3097 30.4529 41.7553 29.4577 41.8558 27.1444C41.921 25.646 43.2955 20.0699 44.9697 14.4977C47.0976 16.4085 48.436 19.181 48.436 22.266C48.436 25.9376 46.5402 29.1664 43.6741 31.027Z" fill="#446A36"/>
<path d="M135.631 21.2885H121.822V19.2827H124.31L124.232 17.2383H122.169V15.2711H127.434V13.7281H120.452V11.7223H137V13.7281H130.018V15.2711H135.284V17.2383H133.22L133.143 19.2827H135.631V21.2885ZM135.072 10.9894C134.429 10.8737 133.799 10.7129 133.181 10.5072C132.564 10.2886 131.979 10.0379 131.426 9.75504C130.886 9.47216 130.385 9.15714 129.922 8.80998C129.459 8.46282 129.06 8.08351 128.726 7.67206C128.392 8.0578 127.987 8.43068 127.511 8.7907C127.035 9.13786 126.521 9.4593 125.968 9.75504C125.415 10.0379 124.83 10.2886 124.213 10.5072C123.609 10.7129 122.998 10.8737 122.381 10.9894L121.204 9.15714C122.053 8.98999 122.857 8.75855 123.615 8.46282C124.374 8.15423 125.036 7.8135 125.602 7.44062C126.18 7.05488 126.637 6.64343 126.971 6.20627C127.305 5.7691 127.473 5.33836 127.473 4.91405V4.21973H129.98V4.91405C129.98 5.33836 130.147 5.7691 130.481 6.20627C130.816 6.64343 131.266 7.05488 131.831 7.44062C132.41 7.8135 133.079 8.15423 133.837 8.46282C134.596 8.75855 135.399 8.98999 136.248 9.15714L135.072 10.9894ZM130.693 19.2827L130.751 17.2383H126.701L126.759 19.2827H130.693Z" fill="white"/>
<path d="M115.658 18.1448C114.707 18.3248 113.64 18.4469 112.457 18.5112C111.274 18.5627 110.059 18.5884 108.812 18.5884H103.739V16.544H108.812C109.403 16.544 110.001 16.5376 110.605 16.5247C111.223 16.5118 111.827 16.4926 112.418 16.4668C113.01 16.4283 113.582 16.3833 114.135 16.3318C114.688 16.2804 115.196 16.2161 115.658 16.139V18.1448ZM118.532 21.4814H116.064V4.14258H118.532V21.4814ZM114.135 11.4908C113.891 12.0566 113.55 12.558 113.113 12.9952C112.675 13.4324 112.148 13.7795 111.531 14.0367C110.927 14.2939 110.252 14.4224 109.506 14.4224C108.76 14.4224 108.079 14.2939 107.462 14.0367C106.857 13.7795 106.337 13.4324 105.899 12.9952C105.462 12.558 105.121 12.0566 104.877 11.4908C104.633 10.9122 104.511 10.3079 104.511 9.67789C104.511 9.04785 104.633 8.44996 104.877 7.88422C105.121 7.30561 105.462 6.79773 105.899 6.36056C106.337 5.92339 106.857 5.57623 107.462 5.31907C108.079 5.06192 108.76 4.93334 109.506 4.93334C110.252 4.93334 110.927 5.06192 111.531 5.31907C112.148 5.57623 112.675 5.92339 113.113 6.36056C113.55 6.79773 113.891 7.30561 114.135 7.88422C114.379 8.44996 114.501 9.04785 114.501 9.67789C114.501 10.3079 114.379 10.9122 114.135 11.4908ZM110.605 12.1659C110.927 12.0116 111.19 11.8123 111.396 11.568C111.615 11.3108 111.775 11.0215 111.878 10.7001C111.981 10.3658 112.033 10.025 112.033 9.67789C112.033 9.33072 111.981 8.99642 111.878 8.67497C111.775 8.35353 111.615 8.07065 111.396 7.82635C111.19 7.5692 110.927 7.36347 110.605 7.20918C110.297 7.05488 109.93 6.97774 109.506 6.97774C109.082 6.97774 108.709 7.05488 108.387 7.20918C108.079 7.36347 107.815 7.5692 107.597 7.82635C107.391 8.07065 107.237 8.35353 107.134 8.67497C107.031 8.99642 106.979 9.33072 106.979 9.67789C106.979 10.025 107.031 10.3658 107.134 10.7001C107.237 11.0215 107.391 11.3108 107.597 11.568C107.815 11.8123 108.079 12.0116 108.387 12.1659C108.709 12.3073 109.082 12.378 109.506 12.378C109.93 12.378 110.297 12.3073 110.605 12.1659Z" fill="white"/>
<path d="M101.105 14.2874H98.6365V11.7416H95.8014V13.0338H87.0645V4.81762H95.8014V5.97482H98.6365V4.14258H101.105V14.2874ZM101.105 19.3791C100.912 19.8035 100.604 20.1763 100.179 20.4978C99.7552 20.8192 99.2151 21.0828 98.5594 21.2885C97.9036 21.4943 97.1193 21.6164 96.2064 21.655C96.0392 21.6678 95.8464 21.6743 95.6278 21.6743C95.4092 21.6743 95.2099 21.6743 95.0299 21.6743C94.8242 21.6743 94.6184 21.6743 94.4127 21.6743C94.2199 21.6743 94.0334 21.6678 93.8534 21.655C92.9405 21.6164 92.1562 21.4943 91.5004 21.2885C90.8447 21.0828 90.3046 20.8192 89.8803 20.4978C89.456 20.1763 89.141 19.8035 88.9353 19.3791C88.7424 18.942 88.646 18.4791 88.646 17.9905C88.646 17.489 88.736 17.0197 88.916 16.5826C89.096 16.1454 89.3853 15.7661 89.7839 15.4446C90.1953 15.1103 90.7354 14.8467 91.404 14.6539C92.0726 14.461 92.8891 14.3517 93.8534 14.326C94.0334 14.326 94.2199 14.326 94.4127 14.326C94.6184 14.3131 94.8242 14.3067 95.0299 14.3067C95.2356 14.3067 95.4349 14.3131 95.6278 14.326C95.8335 14.326 96.0264 14.326 96.2064 14.326C97.1707 14.3517 97.9872 14.461 98.6558 14.6539C99.3244 14.8467 99.858 15.1103 100.257 15.4446C100.668 15.7661 100.964 16.1454 101.144 16.5826C101.324 17.0197 101.414 17.489 101.414 17.9905C101.414 18.4791 101.311 18.942 101.105 19.3791ZM98.3279 19.1477C98.7394 18.8263 98.9451 18.4405 98.9451 17.9905C98.9451 17.5405 98.7394 17.1547 98.3279 16.8333C97.9165 16.5118 97.2093 16.3318 96.2064 16.2933C96.0264 16.2933 95.8335 16.2933 95.6278 16.2933C95.4349 16.2804 95.2356 16.274 95.0299 16.274C94.8242 16.274 94.6184 16.2804 94.4127 16.2933C94.2199 16.2933 94.0334 16.2933 93.8534 16.2933C92.8505 16.3318 92.1433 16.5118 91.7319 16.8333C91.3204 17.1547 91.1147 17.5405 91.1147 17.9905C91.1147 18.4405 91.3204 18.8263 91.7319 19.1477C92.1433 19.4691 92.8505 19.6492 93.8534 19.6877C94.0334 19.7006 94.2199 19.707 94.4127 19.707C94.6184 19.707 94.8242 19.707 95.0299 19.707C95.2356 19.707 95.4349 19.707 95.6278 19.707C95.8335 19.707 96.0264 19.7006 96.2064 19.6877C97.2093 19.6492 97.9165 19.4691 98.3279 19.1477ZM93.3327 11.028V6.82344H89.5332V11.028H93.3327ZM98.6365 9.73575V7.98065H95.8014V9.73575H98.6365Z" fill="white"/>
<path d="M84.219 19.3984C84.0133 19.8227 83.6854 20.1956 83.2354 20.5171C82.7982 20.8385 82.2389 21.0957 81.5574 21.2885C80.8888 21.4943 80.0852 21.6164 79.1466 21.655C78.9794 21.6678 78.7865 21.6743 78.5679 21.6743C78.3494 21.6743 78.1501 21.6743 77.9701 21.6743C77.7643 21.6743 77.5586 21.6743 77.3529 21.6743C77.16 21.6743 76.9736 21.6678 76.7936 21.655C75.8549 21.6164 75.0449 21.4943 74.3634 21.2885C73.6948 21.0957 73.1355 20.8385 72.6855 20.5171C72.2483 20.1956 71.9204 19.8227 71.7018 19.3984C71.4961 18.9741 71.3933 18.5177 71.3933 18.0291C71.3933 17.5276 71.4897 17.0583 71.6826 16.6211C71.8754 16.184 72.184 15.8111 72.6083 15.5025C73.0326 15.1811 73.5855 14.9239 74.267 14.731C74.9613 14.5382 75.8035 14.4289 76.7936 14.4032C76.9736 14.4032 77.16 14.4032 77.3529 14.4032C77.5586 14.3903 77.7643 14.3839 77.9701 14.3839C78.1758 14.3839 78.3751 14.3903 78.5679 14.4032C78.7737 14.4032 78.9665 14.4032 79.1466 14.4032C80.1366 14.4289 80.9724 14.5382 81.6538 14.731C82.3482 14.9239 82.9075 15.1811 83.3318 15.5025C83.7561 15.8111 84.0647 16.184 84.2576 16.6211C84.4504 17.0583 84.5469 17.5276 84.5469 18.0291C84.5469 18.5177 84.4376 18.9741 84.219 19.3984ZM84.219 14.4996H81.7888V9.92862H80.6702V13.7667H78.2786V4.33545H80.6702V7.80707H81.7888V4.14258H84.219V14.4996ZM76.9093 13.5352C76.1764 13.0852 75.5206 12.5902 74.942 12.0502C74.3634 11.5101 73.9005 10.9251 73.5534 10.2951C73.2319 10.9765 72.7433 11.6259 72.0876 12.243C71.4447 12.8602 70.6989 13.4517 69.8503 14.0174L68.2881 12.3973C69.4967 11.6901 70.4546 10.7965 71.1618 9.71646C71.8819 8.62354 72.2419 7.43419 72.2419 6.1484V4.56689H74.7492V6.1484C74.7492 6.7913 74.8392 7.39562 75.0192 7.96136C75.1992 8.52711 75.4435 9.05428 75.7521 9.54288C76.0607 10.0186 76.4271 10.4494 76.8514 10.8351C77.2886 11.208 77.7579 11.523 78.2594 11.7801L76.9093 13.5352ZM81.4031 19.1477C81.8531 18.852 82.0781 18.4791 82.0781 18.0291C82.0781 17.579 81.8531 17.2062 81.4031 16.9104C80.9531 16.6147 80.2009 16.4476 79.1466 16.409C78.9665 16.409 78.7737 16.409 78.5679 16.409C78.3751 16.3961 78.1758 16.3897 77.9701 16.3897C77.7643 16.3897 77.5586 16.3961 77.3529 16.409C77.16 16.409 76.9736 16.409 76.7936 16.409C75.7392 16.4476 74.987 16.6147 74.537 16.9104C74.087 17.2062 73.862 17.579 73.862 18.0291C73.862 18.4791 74.087 18.852 74.537 19.1477C74.987 19.4434 75.7392 19.6106 76.7936 19.6492C76.9736 19.662 77.16 19.6684 77.3529 19.6684C77.5586 19.6684 77.7643 19.6684 77.9701 19.6684C78.1758 19.6684 78.3751 19.6684 78.5679 19.6684C78.7737 19.6684 78.9665 19.662 79.1466 19.6492C80.2009 19.6106 80.9531 19.4434 81.4031 19.1477Z" fill="white"/>
<path d="M131.894 31.475H134.634V32.3963H130.798V26.583H134.546V27.5122H131.894V29.0449H134.213V29.9423H131.894V31.475Z" fill="white"/>
<path d="M130.213 27.5122H127.322V29.1164H129.831V30.0297H127.322V32.3963H126.21V26.583H130.213V27.5122Z" fill="white"/>
<path d="M124.026 32.3963V26.583H125.138V32.3963H124.026Z" fill="white"/>
<path d="M120.474 31.4512H123.238V32.3963H119.362V26.583H120.474V31.4512Z" fill="white"/>
<path d="M115.958 32.3963L114.775 30.4268H113.703V32.3963H112.591V26.583H114.783C115.09 26.583 115.373 26.6227 115.632 26.7021C115.897 26.7763 116.122 26.8927 116.307 27.0516C116.493 27.2104 116.638 27.4116 116.744 27.6551C116.85 27.8934 116.903 28.174 116.903 28.4969V28.5684C116.903 28.9867 116.813 29.3308 116.633 29.6008C116.453 29.8708 116.207 30.0747 115.895 30.2123L117.237 32.3963H115.958ZM113.703 27.5201V29.5849H114.783C115.09 29.5849 115.333 29.5055 115.513 29.3467C115.693 29.1879 115.783 28.9337 115.783 28.5843V28.5208C115.783 28.1713 115.693 27.9172 115.513 27.7584C115.333 27.5995 115.09 27.5201 114.783 27.5201H113.703Z" fill="white"/>
<path d="M109.061 32.5235C108.701 32.5235 108.36 32.4652 108.037 32.3487C107.714 32.2323 107.428 32.0602 107.179 31.8325C106.93 31.6049 106.732 31.3216 106.584 30.9828C106.441 30.6386 106.369 30.2416 106.369 29.7915V29.1959C106.369 28.7459 106.441 28.3515 106.584 28.0126C106.732 27.6685 106.93 27.3826 107.179 27.1549C107.428 26.922 107.714 26.7472 108.037 26.6308C108.36 26.5143 108.701 26.4561 109.061 26.4561H109.069C109.424 26.4561 109.763 26.5143 110.086 26.6308C110.414 26.7472 110.7 26.922 110.944 27.1549C111.192 27.3826 111.388 27.6685 111.531 28.0126C111.679 28.3515 111.754 28.7459 111.754 29.1959V29.7915C111.754 30.2416 111.679 30.6386 111.531 30.9828C111.388 31.3216 111.192 31.6049 110.944 31.8325C110.7 32.0602 110.414 32.2323 110.086 32.3487C109.763 32.4652 109.424 32.5235 109.069 32.5235H109.061ZM109.069 31.5943C109.27 31.5943 109.464 31.5599 109.649 31.491C109.84 31.4169 110.006 31.311 110.149 31.1734C110.298 31.0304 110.414 30.8557 110.499 30.6492C110.589 30.4427 110.634 30.2019 110.634 29.9265V29.0609C110.634 28.7856 110.589 28.5447 110.499 28.3382C110.414 28.1317 110.298 27.9597 110.149 27.822C110.006 27.6791 109.84 27.5732 109.649 27.5043C109.464 27.4302 109.27 27.3932 109.069 27.3932H109.061C108.86 27.3932 108.664 27.4302 108.474 27.5043C108.283 27.5732 108.114 27.6791 107.965 27.822C107.822 27.9597 107.706 28.1317 107.616 28.3382C107.531 28.5447 107.489 28.7856 107.489 29.0609V29.9265C107.489 30.2019 107.531 30.4427 107.616 30.6492C107.706 30.8557 107.822 31.0304 107.965 31.1734C108.114 31.311 108.283 31.4169 108.474 31.491C108.664 31.5599 108.86 31.5943 109.061 31.5943H109.069Z" fill="white"/>
<path d="M106.022 27.5122H103.131V29.1164H105.641V30.0297H103.131V32.3963H102.02V26.583H106.022V27.5122Z" fill="white"/>
<path d="M99.979 26.583V27.536H98.1524V32.3963H97.0406V27.536H95.2061V26.583H99.979Z" fill="white"/>
<path d="M93.8101 30.8478C93.8101 30.7525 93.7968 30.6651 93.7703 30.5857C93.7439 30.501 93.6883 30.4216 93.6036 30.3474C93.5189 30.268 93.3971 30.1966 93.2383 30.133C93.0847 30.0695 92.8782 30.0086 92.6188 29.9504L92.1026 29.8471C91.5255 29.7254 91.0993 29.5268 90.824 29.2515C90.5487 28.9762 90.411 28.6241 90.411 28.1953C90.411 27.9305 90.4613 27.6923 90.5619 27.4805C90.6678 27.2635 90.8134 27.0808 90.9987 26.9326C91.1893 26.779 91.4143 26.6625 91.6738 26.5831C91.9385 26.4984 92.2323 26.4561 92.5553 26.4561H92.5632C92.8809 26.4561 93.1721 26.5037 93.4368 26.599C93.7015 26.689 93.9318 26.8214 94.1277 26.9961C94.3289 27.1655 94.4877 27.372 94.6042 27.6155C94.7207 27.8591 94.7895 28.1317 94.8107 28.4335H93.7703C93.728 28.0788 93.5956 27.8061 93.3733 27.6155C93.1562 27.4196 92.8677 27.3217 92.5076 27.3217H92.4997C92.3567 27.3217 92.2244 27.3429 92.1026 27.3852C91.9808 27.4276 91.875 27.4858 91.7849 27.5599C91.7002 27.6288 91.6314 27.7108 91.5785 27.8061C91.5308 27.9014 91.507 28.0047 91.507 28.1159C91.507 28.317 91.5785 28.4812 91.7214 28.6082C91.8697 28.73 92.1238 28.828 92.4838 28.9021L93 29.0212C93.3441 29.09 93.638 29.1747 93.8815 29.2753C94.1251 29.3759 94.3236 29.4977 94.4772 29.6406C94.6307 29.7783 94.7419 29.9398 94.8107 30.1251C94.8848 30.3104 94.9219 30.5222 94.9219 30.7604C94.9219 31.0145 94.8663 31.2501 94.7551 31.4672C94.6439 31.679 94.4851 31.8643 94.2786 32.0231C94.0774 32.182 93.8339 32.3064 93.548 32.3964C93.2674 32.4811 92.9577 32.5235 92.6188 32.5235H92.6109C92.3091 32.5235 92.0179 32.4784 91.7373 32.3884C91.462 32.2984 91.2158 32.1687 90.9987 31.9993C90.7869 31.8246 90.6122 31.6128 90.4746 31.364C90.3369 31.1098 90.2575 30.8239 90.2363 30.5063H91.2687C91.2899 30.6757 91.3376 30.8319 91.4117 30.9748C91.4911 31.1125 91.5917 31.2343 91.7135 31.3402C91.8405 31.4407 91.9835 31.5202 92.1423 31.5784C92.3064 31.6313 92.4865 31.6578 92.6823 31.6578H92.6903C93.0397 31.6578 93.3124 31.581 93.5083 31.4275C93.7095 31.2687 93.8101 31.0754 93.8101 30.8478Z" fill="white"/>
<path d="M86.8987 31.475H89.6385V32.3963H85.8027V26.583H89.5512V27.5122H86.8987V29.0449H89.2176V29.9423H86.8987V31.475Z" fill="white"/>
<path d="M83.8614 32.3963L82.6781 30.4268H81.606V32.3963H80.4941V26.583H82.686C82.9931 26.583 83.2764 26.6227 83.5358 26.7021C83.8005 26.7763 84.0255 26.8927 84.2108 27.0516C84.3961 27.2104 84.5417 27.4116 84.6476 27.6551C84.7535 27.8934 84.8064 28.174 84.8064 28.4969V28.5684C84.8064 28.9867 84.7164 29.3308 84.5364 29.6008C84.3564 29.8708 84.1102 30.0747 83.7979 30.2123L85.14 32.3963H83.8614ZM81.606 27.5201V29.5849H82.686C82.9931 29.5849 83.2366 29.5055 83.4167 29.3467C83.5967 29.1879 83.6867 28.9337 83.6867 28.5843V28.5208C83.6867 28.1713 83.5967 27.9172 83.4167 27.7584C83.2366 27.5995 82.9931 27.5201 82.686 27.5201H81.606Z" fill="white"/>
<path d="M76.9647 32.5235C76.6047 32.5235 76.2632 32.4652 75.9402 32.3487C75.6172 32.2323 75.3313 32.0602 75.0825 31.8325C74.8337 31.6049 74.6351 31.3216 74.4869 30.9828C74.3439 30.6386 74.2725 30.2416 74.2725 29.7915V29.1959C74.2725 28.7459 74.3439 28.3515 74.4869 28.0126C74.6351 27.6685 74.8337 27.3826 75.0825 27.1549C75.3313 26.922 75.6172 26.7472 75.9402 26.6308C76.2632 26.5143 76.6047 26.4561 76.9647 26.4561H76.9726C77.3273 26.4561 77.6662 26.5143 77.9891 26.6308C78.3174 26.7472 78.6033 26.922 78.8468 27.1549C79.0957 27.3826 79.2916 27.6685 79.4345 28.0126C79.5828 28.3515 79.6569 28.7459 79.6569 29.1959V29.7915C79.6569 30.2416 79.5828 30.6386 79.4345 30.9828C79.2916 31.3216 79.0957 31.6049 78.8468 31.8325C78.6033 32.0602 78.3174 32.2323 77.9891 32.3487C77.6662 32.4652 77.3273 32.5235 76.9726 32.5235H76.9647ZM76.9726 31.5943C77.1738 31.5943 77.367 31.5599 77.5523 31.491C77.7429 31.4169 77.9097 31.311 78.0527 31.1734C78.2009 31.0304 78.3174 30.8557 78.4021 30.6492C78.4921 30.4427 78.5371 30.2019 78.5371 29.9265V29.0609C78.5371 28.7856 78.4921 28.5447 78.4021 28.3382C78.3174 28.1317 78.2009 27.9597 78.0527 27.822C77.9097 27.6791 77.7429 27.5732 77.5523 27.5043C77.367 27.4302 77.1738 27.3932 76.9726 27.3932H76.9647C76.7635 27.3932 76.5676 27.4302 76.377 27.5043C76.1864 27.5732 76.017 27.6791 75.8687 27.822C75.7258 27.9597 75.6093 28.1317 75.5193 28.3382C75.4346 28.5447 75.3922 28.7856 75.3922 29.0609V29.9265C75.3922 30.2019 75.4346 30.4427 75.5193 30.6492C75.6093 30.8557 75.7258 31.0304 75.8687 31.1734C76.017 31.311 76.1864 31.4169 76.377 31.491C76.5676 31.5599 76.7635 31.5943 76.9647 31.5943H76.9726Z" fill="white"/>
<path d="M73.9254 27.5122H71.0347V29.1164H73.5442V30.0297H71.0347V32.3963H69.9229V26.583H73.9254V27.5122Z" fill="white"/>
</svg>
