<svg width="40" height="40" viewBox="0 0 40 40" fill="none" xmlns="http://www.w3.org/2000/svg">
<mask id="mask0_45_1364" style="mask-type:alpha" maskUnits="userSpaceOnUse" x="0" y="0" width="40" height="40">
<rect width="40" height="40" fill="#D9D9D9"/>
</mask>
<g mask="url(#mask0_45_1364)">
<path d="M19.9998 5L38.3332 18.75L36.3332 21.4167L33.3332 19.1667V35H6.6665V19.1667L3.6665 21.4167L1.6665 18.75L19.9998 5ZM12.2498 20.0833C12.2498 21.5556 13.0415 23.125 14.6248 24.7917C16.2082 26.4583 17.9998 28.1944 19.9998 30C21.9998 28.1944 23.7915 26.4583 25.3748 24.7917C26.9582 23.125 27.7498 21.5556 27.7498 20.0833C27.7498 18.8611 27.3332 17.8472 26.4998 17.0417C25.6665 16.2361 24.6665 15.8333 23.4998 15.8333C22.7776 15.8333 22.1179 15.9792 21.5207 16.2708C20.9235 16.5625 20.4165 16.9444 19.9998 17.4167C19.5832 16.9444 19.0623 16.5625 18.4373 16.2708C17.8123 15.9792 17.1665 15.8333 16.4998 15.8333C15.3332 15.8333 14.3332 16.2361 13.4998 17.0417C12.6665 17.8472 12.2498 18.8611 12.2498 20.0833ZM29.9998 31.6667V16.6667L19.9998 9.16667L9.99984 16.6667V31.6667H29.9998Z" fill="white" fill-opacity="0.6"/>
</g>
</svg>
