<svg width="40" height="40" viewBox="0 0 40 40" fill="none" xmlns="http://www.w3.org/2000/svg">
<mask id="mask0_45_1361" style="mask-type:alpha" maskUnits="userSpaceOnUse" x="0" y="0" width="40" height="40">
<rect width="40" height="40" fill="#D9D9D9"/>
</mask>
<g mask="url(#mask0_45_1361)">
<path d="M10 36.6668V21.4168C8.5 21.0279 7.29167 20.2363 6.375 19.0418C5.45833 17.8474 5 16.5002 5 15.0002V3.3335H8.33333V13.3335H10V3.3335H13.3333V13.3335H15V3.3335H18.3333V15.0002C18.3333 16.5002 17.875 17.8474 16.9583 19.0418C16.0417 20.2363 14.8333 21.0279 13.3333 21.4168V36.6668H10ZM26.6667 36.6668V20.7918C25.1667 20.2918 23.9583 19.2432 23.0417 17.646C22.125 16.0488 21.6667 14.2363 21.6667 12.2085C21.6667 9.73627 22.3194 7.63905 23.625 5.91683C24.9306 4.19461 26.5 3.3335 28.3333 3.3335C30.1667 3.3335 31.7361 4.20155 33.0417 5.93766C34.3472 7.67377 35 9.77794 35 12.2502C35 14.2779 34.5417 16.0835 33.625 17.6668C32.7083 19.2502 31.5 20.2918 30 20.7918V36.6668H26.6667Z" fill="white" fill-opacity="0.6"/>
</g>
</svg>
