<svg width="40" height="40" viewBox="0 0 40 40" fill="none" xmlns="http://www.w3.org/2000/svg">
<mask id="mask0_45_1358" style="mask-type:alpha" maskUnits="userSpaceOnUse" x="0" y="0" width="40" height="40">
<rect width="40" height="40" fill="#D9D9D9"/>
</mask>
<g mask="url(#mask0_45_1358)">
<path d="M31.0835 15.6668L32.3335 14.4168L29.1668 11.3335V6.66683H27.5002V12.0002L31.0835 15.6668ZM6.66683 36.6668C6.19461 36.6668 5.79877 36.5071 5.47933 36.1877C5.15988 35.8682 5.00016 35.4724 5.00016 35.0002V31.5835C4.44461 31.0002 4.02794 30.3543 3.75016 29.646C3.47238 28.9377 3.3335 28.2224 3.3335 27.5002V11.6668C3.3335 9.19461 4.47933 7.46544 6.771 6.47933C9.06266 5.49322 13.0696 5.00016 18.7918 5.00016C18.4307 5.50016 18.1182 6.02794 17.8543 6.5835C17.5904 7.13905 17.3613 7.7085 17.1668 8.29183C14.3335 8.34738 12.146 8.51405 10.6043 8.79183C9.06266 9.06961 8.00016 9.47238 7.41683 10.0002H16.7918C16.7085 10.5557 16.6668 11.1113 16.6668 11.6668C16.6668 12.2224 16.7085 12.7779 16.7918 13.3335H6.66683V18.3335H18.7918C19.2641 19.0002 19.7918 19.6182 20.3752 20.1877C20.9585 20.7571 21.6113 21.2502 22.3335 21.6668H6.66683V26.6668C6.66683 27.5835 6.99322 28.3682 7.646 29.021C8.29877 29.6738 9.0835 30.0002 10.0002 30.0002H23.3335C24.2502 30.0002 25.0349 29.6738 25.6877 29.021C26.3404 28.3682 26.6668 27.5835 26.6668 26.6668V23.2085C27.2224 23.2918 27.7779 23.3335 28.3335 23.3335C28.8891 23.3335 29.4446 23.2918 30.0002 23.2085V27.5002C30.0002 28.2224 29.8613 28.9377 29.5835 29.646C29.3057 30.3543 28.8891 31.0002 28.3335 31.5835V35.0002C28.3335 35.4724 28.1738 35.8682 27.8543 36.1877C27.5349 36.5071 27.1391 36.6668 26.6668 36.6668H25.0002C24.5279 36.6668 24.1321 36.5071 23.8127 36.1877C23.4932 35.8682 23.3335 35.4724 23.3335 35.0002V33.3335H10.0002V35.0002C10.0002 35.4724 9.84044 35.8682 9.521 36.1877C9.20155 36.5071 8.80572 36.6668 8.3335 36.6668H6.66683ZM28.3335 20.0002C26.0279 20.0002 24.0627 19.1877 22.4377 17.5627C20.8127 15.9377 20.0002 13.9724 20.0002 11.6668C20.0002 9.38905 20.8057 7.43072 22.4168 5.79183C24.0279 4.15294 26.0002 3.3335 28.3335 3.3335C30.6391 3.3335 32.6043 4.146 34.2293 5.771C35.8543 7.396 36.6668 9.36127 36.6668 11.6668C36.6668 13.9724 35.8543 15.9377 34.2293 17.5627C32.6043 19.1877 30.6391 20.0002 28.3335 20.0002ZM10.8335 28.3335C11.5279 28.3335 12.1182 28.0904 12.6043 27.6043C13.0904 27.1182 13.3335 26.5279 13.3335 25.8335C13.3335 25.1391 13.0904 24.5488 12.6043 24.0627C12.1182 23.5766 11.5279 23.3335 10.8335 23.3335C10.1391 23.3335 9.54877 23.5766 9.06266 24.0627C8.57655 24.5488 8.3335 25.1391 8.3335 25.8335C8.3335 26.5279 8.57655 27.1182 9.06266 27.6043C9.54877 28.0904 10.1391 28.3335 10.8335 28.3335ZM22.5002 28.3335C23.1946 28.3335 23.7849 28.0904 24.271 27.6043C24.7571 27.1182 25.0002 26.5279 25.0002 25.8335C25.0002 25.1391 24.7571 24.5488 24.271 24.0627C23.7849 23.5766 23.1946 23.3335 22.5002 23.3335C21.8057 23.3335 21.2154 23.5766 20.7293 24.0627C20.2432 24.5488 20.0002 25.1391 20.0002 25.8335C20.0002 26.5279 20.2432 27.1182 20.7293 27.6043C21.2154 28.0904 21.8057 28.3335 22.5002 28.3335Z" fill="white" fill-opacity="0.6"/>
</g>
</svg>
