<svg width="40" height="40" viewBox="0 0 40 40" fill="none" xmlns="http://www.w3.org/2000/svg">
<mask id="mask0_45_1367" style="mask-type:alpha" maskUnits="userSpaceOnUse" x="0" y="0" width="40" height="40">
<rect width="40" height="40" fill="#D9D9D9"/>
</mask>
<g mask="url(#mask0_45_1367)">
<path d="M15.8335 9.16667C14.9168 9.16667 14.1321 8.84028 13.4793 8.1875C12.8266 7.53472 12.5002 6.75 12.5002 5.83333C12.5002 4.91667 12.8266 4.13194 13.4793 3.47917C14.1321 2.82639 14.9168 2.5 15.8335 2.5C16.7502 2.5 17.5349 2.82639 18.1877 3.47917C18.8404 4.13194 19.1668 4.91667 19.1668 5.83333C19.1668 6.75 18.8404 7.53472 18.1877 8.1875C17.5349 8.84028 16.7502 9.16667 15.8335 9.16667ZM5.00016 38.3333L9.5835 14.8333L6.66683 16.0833V21.6667H3.3335V13.8333L12.0835 10.25C12.8335 9.94444 13.5974 9.90972 14.3752 10.1458C15.1529 10.3819 15.7502 10.8611 16.1668 11.5833L17.7502 14.25C18.5002 15.4722 19.5071 16.4583 20.771 17.2083C22.0349 17.9583 23.4446 18.3333 25.0002 18.3333V21.6667C23.1668 21.6667 21.4654 21.2778 19.896 20.5C18.3266 19.7222 17.0002 18.6667 15.9168 17.3333L14.9168 22.3333L18.3335 25.75V38.3333H15.0002V28.3333L11.4168 25L8.50016 38.3333H5.00016ZM27.9168 38.3333V15H21.6668V3.33333H36.6668V15H30.4168V38.3333H27.9168ZM30.0418 13.2917L34.1668 9.16667L30.0418 5.04167L28.2502 6.83333L29.3335 7.91667H24.1668V10.4167H29.3335L28.2502 11.5L30.0418 13.2917Z" fill="white" fill-opacity="0.6"/>
</g>
</svg>
