<svg width="50" height="50" viewBox="0 0 50 50" fill="none" xmlns="http://www.w3.org/2000/svg">
<mask id="mask0_45_1590" style="mask-type:alpha" maskUnits="userSpaceOnUse" x="0" y="0" width="50" height="50">
<rect width="50" height="50" fill="#D9D9D9"/>
</mask>
<g mask="url(#mask0_45_1590)">
<path d="M39.583 29.1667V15.625L29.1663 8.33333L18.7497 15.625V18.75H14.583V13.5417L29.1663 3.125L43.7497 13.5417V29.1667H39.583ZM30.208 16.6667H32.2913V14.5833H30.208V16.6667ZM26.0413 16.6667H28.1247V14.5833H26.0413V16.6667ZM30.208 20.8333H32.2913V18.75H30.208V20.8333ZM26.0413 20.8333H28.1247V18.75H26.0413V20.8333ZM14.583 38.5417L29.0622 42.5L41.458 38.6458C41.2844 38.3333 41.0327 38.0642 40.7028 37.8385C40.3729 37.6128 39.9997 37.5 39.583 37.5H29.0622C28.1247 37.5 27.3781 37.4653 26.8226 37.3958C26.267 37.3264 25.6941 37.1875 25.1038 36.9792L20.2601 35.3646L21.4059 31.3021L25.6247 32.7083C26.215 32.8819 26.9094 33.0208 27.708 33.125C28.5066 33.2292 29.6872 33.2986 31.2497 33.3333C31.2497 32.9514 31.1368 32.5868 30.9111 32.2396C30.6854 31.8924 30.4163 31.6667 30.1038 31.5625L17.9163 27.0833H14.583V38.5417ZM2.08301 45.8333V22.9167H17.9163C18.1594 22.9167 18.4025 22.9427 18.6455 22.9948C18.8886 23.0469 19.1143 23.1076 19.3226 23.1771L31.5622 27.7083C32.708 28.125 33.6368 28.8542 34.3486 29.8958C35.0604 30.9375 35.4163 32.0833 35.4163 33.3333H39.583C41.3191 33.3333 42.7948 33.9062 44.0101 35.0521C45.2254 36.1979 45.833 37.7083 45.833 39.5833V41.6667L29.1663 46.875L14.583 42.8125V45.8333H2.08301ZM6.24967 41.6667H10.4163V27.0833H6.24967V41.6667Z" fill="#666666"/>
</g>
</svg>
