<svg width="24" height="24" viewBox="0 0 24 24" fill="none" xmlns="http://www.w3.org/2000/svg">
<mask id="mask0_45_1248" style="mask-type:alpha" maskUnits="userSpaceOnUse" x="0" y="0" width="24" height="24">
<rect width="24" height="24" fill="#D9D9D9"/>
</mask>
<g mask="url(#mask0_45_1248)">
<path d="M2 18V16C2.63333 16 3.10417 15.8333 3.4125 15.5C3.72083 15.1667 4.36667 15 5.35 15C6.33333 15 6.97917 15.1667 7.2875 15.5C7.59583 15.8333 8.05 16 8.65 16C9.28333 16 9.75417 15.8333 10.0625 15.5C10.3708 15.1667 11.0167 15 12 15C12.95 15 13.5958 15.1667 13.9375 15.5C14.2792 15.8333 14.75 16 15.35 16C15.9833 16 16.4458 15.8333 16.7375 15.5C17.0292 15.1667 17.6667 15 18.65 15C19.6333 15 20.2792 15.1667 20.5875 15.5C20.8958 15.8333 21.3667 16 22 16V18C21.05 18 20.4042 17.8333 20.0625 17.5C19.7208 17.1667 19.25 17 18.65 17C18.05 17 17.5958 17.1667 17.2875 17.5C16.9792 17.8333 16.3333 18 15.35 18C14.4 18 13.7542 17.8333 13.4125 17.5C13.0708 17.1667 12.6 17 12 17C11.3667 17 10.8958 17.1667 10.5875 17.5C10.2792 17.8333 9.63333 18 8.65 18C7.66667 18 7.02917 17.8333 6.7375 17.5C6.44583 17.1667 5.98333 17 5.35 17C4.71667 17 4.24583 17.1667 3.9375 17.5C3.62917 17.8333 2.98333 18 2 18ZM2 14V12C2.63333 12 3.10417 11.8333 3.4125 11.5C3.72083 11.1667 4.36667 11 5.35 11C6.3 11 6.9375 11.1667 7.2625 11.5C7.5875 11.8333 8.05 12 8.65 12C9.28333 12 9.75417 11.8333 10.0625 11.5C10.3708 11.1667 11.0167 11 12 11C12.95 11 13.5917 11.1667 13.925 11.5C14.2583 11.8333 14.7167 12 15.3 12C15.9333 12 16.4042 11.8333 16.7125 11.5C17.0208 11.1667 17.6667 11 18.65 11C19.6 11 20.2458 11.1667 20.5875 11.5C20.9292 11.8333 21.4 12 22 12V14C21.0167 14 20.3625 13.8333 20.0375 13.5C19.7125 13.1667 19.25 13 18.65 13C18.05 13 17.5958 13.1667 17.2875 13.5C16.9792 13.8333 16.3333 14 15.35 14C14.4 14 13.7542 13.8333 13.4125 13.5C13.0708 13.1667 12.6 13 12 13C11.3667 13 10.9042 13.1667 10.6125 13.5C10.3208 13.8333 9.68333 14 8.7 14C7.71667 14 7.0625 13.8333 6.7375 13.5C6.4125 13.1667 5.95 13 5.35 13C4.75 13 4.27917 13.1667 3.9375 13.5C3.59583 13.8333 2.95 14 2 14ZM2 10V8C2.63333 8 3.10417 7.83333 3.4125 7.5C3.72083 7.16667 4.36667 7 5.35 7C6.3 7 6.9375 7.16667 7.2625 7.5C7.5875 7.83333 8.05 8 8.65 8C9.28333 8 9.75417 7.83333 10.0625 7.5C10.3708 7.16667 11.0167 7 12 7C12.95 7 13.5917 7.16667 13.925 7.5C14.2583 7.83333 14.7167 8 15.3 8C15.9333 8 16.4042 7.83333 16.7125 7.5C17.0208 7.16667 17.6667 7 18.65 7C19.6 7 20.2458 7.16667 20.5875 7.5C20.9292 7.83333 21.4 8 22 8V10C21.0167 10 20.3625 9.83333 20.0375 9.5C19.7125 9.16667 19.25 9 18.65 9C18.05 9 17.5958 9.16667 17.2875 9.5C16.9792 9.83333 16.3333 10 15.35 10C14.4 10 13.7542 9.83333 13.4125 9.5C13.0708 9.16667 12.6 9 12 9C11.3667 9 10.9042 9.16667 10.6125 9.5C10.3208 9.83333 9.68333 10 8.7 10C7.71667 10 7.0625 9.83333 6.7375 9.5C6.4125 9.16667 5.95 9 5.35 9C4.75 9 4.27917 9.16667 3.9375 9.5C3.59583 9.83333 2.95 10 2 10Z" fill="white"/>
</g>
</svg>
