<svg width="20" height="12" viewBox="0 0 20 12" fill="none" xmlns="http://www.w3.org/2000/svg">
<path d="M10.0004 3.5502L2.65038 10.9002C2.40038 11.1502 2.10871 11.271 1.77538 11.2627C1.44204 11.2544 1.15038 11.1252 0.900377 10.8752C0.650377 10.6252 0.525377 10.3335 0.525377 10.0002C0.525377 9.66686 0.650377 9.37519 0.900377 9.12519L8.57538 1.42519C8.77538 1.22519 9.00038 1.07519 9.25038 0.975195C9.50038 0.875195 9.75038 0.825195 10.0004 0.825195C10.2504 0.825195 10.5004 0.875195 10.7504 0.975195C11.0004 1.07519 11.2254 1.22519 11.4254 1.42519L19.1254 9.1252C19.3754 9.3752 19.4962 9.67103 19.4879 10.0127C19.4795 10.3544 19.3504 10.6502 19.1004 10.9002C18.8504 11.1502 18.5587 11.2752 18.2254 11.2752C17.892 11.2752 17.6004 11.1502 17.3504 10.9002L10.0004 3.5502Z" fill="white"/>
</svg>
