<svg width="300" height="150" viewBox="0 0 300 150" fill="none" xmlns="http://www.w3.org/2000/svg">
<g clip-path="url(#clip0_38_66)">
<path d="M61.7627 103.602C56.3012 103.612 51.8052 109.56 51.8052 117.003C51.8052 124.446 56.3012 130.335 61.7627 130.355C67.2746 130.325 71.7346 124.376 71.7346 117.003C71.7346 109.63 67.2746 103.612 61.7627 103.602ZM61.6258 124.246C58.7725 124.246 56.611 120.996 56.611 117.013C56.611 113.031 58.9166 109.711 61.7555 109.711C64.5943 109.711 66.8207 112.951 66.8207 117.013C66.8207 121.076 64.4862 124.246 61.6186 124.246H61.6258Z" fill="#004289"/>
<path d="M16.0531 94.3731C17.5806 96.4696 19.3243 98.2953 21.0319 99.4789L21.212 99.6093L24.1517 94.7643L23.8707 94.5436C21.0751 92.4371 18.8848 89.7788 17.4581 86.4184C16.0387 83.1181 15.311 79.2662 15.311 74.6819V70.3685H10.0513V74.2205C10.0513 79.1959 9.2371 83.1081 7.72402 86.5387C6.02361 90.3305 3.50902 93.39 0.288324 96.2188L0.00732422 96.4596L3.2064 101.064L3.37932 100.923C5.27427 99.4789 7.29171 97.262 9.04976 94.7944C10.57 92.6377 11.8886 90.3105 12.6811 88.1136C13.4521 90.2603 14.6409 92.4571 16.0604 94.343L16.0531 94.3731Z" fill="#004289"/>
<path d="M10.3682 127.195H32.4015V106.24H10.3682V127.195ZM15.3109 112.158H27.4371V121.287H15.3109V112.158Z" fill="#004289"/>
<path d="M32.4807 69.1346H27.5884V103.842H32.4807V88.4847H38.2232V82.3156H32.4807V69.1346Z" fill="#004289"/>
<path d="M157.432 96.1485C159.039 98.0945 160.883 99.7296 162.613 100.783L162.793 100.903L165.437 95.9178L165.156 95.7272C162.634 93.9216 160.379 91.6947 158.765 88.9863C157.115 86.2076 156.135 82.8673 156.135 78.8347V77.6511H163.42V71.6725H143.627V77.6511H150.911V79.0855C150.911 82.7469 150.032 86.1675 148.591 89.1267C146.891 92.6777 144.405 95.5466 141.999 97.3924L141.682 97.6331L144.931 102.318L145.111 102.197C146.869 100.813 148.8 98.7165 150.457 96.3692C151.783 94.4332 152.972 92.3868 153.7 90.3505C154.579 92.3266 155.926 94.3128 157.432 96.1585V96.1485Z" fill="#004289"/>
<path d="M192.867 112.299H210.678V127.195H215.628V106.37H192.867V112.299Z" fill="#004289"/>
<path d="M205.159 88.4346C205.159 85.1544 204.107 82.135 202.536 79.8279H207.429V73.9195H198.091V67.4093H192.788V73.9195H183.227V79.8279H188.22C186.699 82.135 185.633 85.1243 185.633 88.4346C185.633 95.7473 189.963 101.696 195.382 101.716C200.8 101.696 205.159 95.7473 205.166 88.4346H205.159ZM190.352 88.1638C190.352 84.1112 192.809 80.6805 195.374 80.6805C197.939 80.6805 200.389 84.1312 200.396 88.1638C200.396 92.1461 197.939 95.5868 195.374 95.5968C192.802 95.5868 190.352 92.1461 190.352 88.1638Z" fill="#004289"/>
<path d="M215.628 69.1346H210.736V103.963H215.628V90.6715H221.378V84.5124H215.628V69.1346Z" fill="#004289"/>
<path d="M174.127 69.1346H169.227V103.963H174.127V88.4847H179.869V82.3156H174.127V69.1346Z" fill="#004289"/>
<path d="M285.467 95.3962H268.91V77.8417H281.526V71.6625H263.953V101.395H285.467V95.3962Z" fill="#004289"/>
<path d="M67.7501 79.4667H60.0479V85.5757H67.7501V105.056H72.6496V69.1346H67.7501V79.4667Z" fill="#004289"/>
<path d="M55.2994 95.2759C56.8268 97.3724 58.6065 99.198 60.3213 100.432L60.5087 100.582L63.4556 95.7373L63.1674 95.5066C60.3718 93.4803 58.2246 90.822 56.7908 87.5117C55.3282 84.2316 54.6005 80.2392 54.6005 75.6449V70.3785H49.3263V75.2136C49.3263 80.189 48.5265 84.0911 47.0423 87.4616C45.3419 91.3236 42.7912 94.3931 39.5633 97.2119L39.2896 97.4526L42.4958 102.077L42.6543 101.937C44.5565 100.492 46.5235 98.3955 48.2743 95.9981C49.8523 93.8013 51.178 91.4239 51.9706 89.1167C52.7271 91.2032 53.8871 93.3499 55.2849 95.2759H55.2994Z" fill="#004289"/>
<path d="M163.614 103.602C158.153 103.612 153.657 109.56 153.649 117.003C153.657 124.376 158.153 130.335 163.614 130.355C169.119 130.325 173.586 124.376 173.586 117.003C173.586 109.63 169.119 103.612 163.614 103.602ZM163.47 124.246C160.624 124.246 158.455 120.996 158.455 117.013C158.455 113.031 160.754 109.711 163.614 109.711C166.475 109.711 168.672 112.951 168.679 117.013C168.672 120.996 166.338 124.246 163.47 124.246Z" fill="#004289"/>
<path d="M276.108 108.698H271.151V127.195H294.323V121.096H276.108V108.698Z" fill="#004289"/>
<path d="M294.207 85.2246V69.1346H289.315V111.958H294.207V91.3737H300V85.2246H294.207Z" fill="#004289"/>
<path d="M252.763 84.8234H248.642V70.1177H244.016V125.7H248.642V91.5142H252.763V127.195H257.569V69.1346H252.763V84.8234Z" fill="#004289"/>
<path d="M237.215 92.5273C236.112 89.1668 235.658 85.4252 235.658 80.8109V78.6141H241.213V72.3546H225.06V78.6141H230.795V80.9212C230.795 85.2848 230.384 88.8458 229.39 92.1561C228.244 95.9479 226.313 99.3785 223.237 103.03L223.021 103.311L226.061 107.504L226.248 107.303C227.776 105.728 229.375 103.451 230.716 101.104C231.84 99.1177 232.791 97.0714 233.396 95.2658C234.008 97.0212 234.967 99.0375 236.083 100.923C237.388 103.13 238.85 105.227 240.255 106.471L240.45 106.651L243.008 102.388L242.806 102.127C240.053 98.7867 238.346 95.8075 237.222 92.5172L237.215 92.5273Z" fill="#004289"/>
<path d="M13.9204 147.227C11.5715 146.064 11.132 145.281 11.132 143.937C11.132 142.593 11.8093 141.53 13.4161 141.53C14.5905 141.53 15.3831 142.061 16.2333 143.044L17.0691 141.61C16.082 140.516 15.0732 139.864 13.5025 139.864C11.305 139.864 9.82069 141.419 9.82069 144.047C9.82069 146.405 10.6853 147.538 13.2143 148.812C15.3614 149.886 16.0171 150.758 16.0171 152.263C16.0171 153.998 15.0444 155.062 13.4809 155.062C12.2704 155.062 11.2473 154.289 10.3611 153.106L9.48926 154.46C10.4115 155.754 11.8453 156.717 13.4377 156.717C15.8874 156.717 17.3284 154.731 17.3284 152.173C17.3284 149.615 16.5287 148.521 13.9276 147.207L13.9204 147.227Z" fill="#004289"/>
<path d="M22.6529 143.967C21.5073 143.967 20.4626 144.358 19.6916 144.94L20.1671 146.365C20.8877 145.783 21.6442 145.422 22.5665 145.422C23.849 145.422 24.483 146.304 24.483 148.14V149.595C23.9643 149.193 23.1717 148.882 22.2783 148.882C20.5346 148.882 18.9062 150.056 18.9062 152.815C18.9062 155.774 20.3545 156.727 21.7235 156.727C22.9844 156.727 23.849 155.914 24.4758 154.981V156.476H25.7295V147.929C25.7295 145.081 24.5407 143.967 22.6529 143.967ZM24.4758 153.467C23.9426 154.49 23.078 155.312 21.9396 155.312C20.866 155.312 20.1383 154.51 20.1383 152.684C20.1383 151.149 20.9165 150.267 22.2062 150.267C23.2798 150.267 23.8994 150.538 24.4686 150.979V153.457L24.4758 153.467Z" fill="#004289"/>
<path d="M38.3747 149.304V156.476H39.6356V149.003C39.6356 145.422 38.5188 143.967 36.7175 143.967C35.2909 143.967 34.5704 144.89 34.0516 146.064C33.6337 144.89 32.8772 143.967 31.6379 143.967C30.5932 143.967 29.8511 144.659 29.4043 145.723V144.228H28.1362V156.486H29.4043V149.314C29.4043 146.595 30.1609 145.482 31.3713 145.482C32.5818 145.482 33.2663 146.505 33.2663 149.314V156.486H34.5272V149.314C34.5272 146.595 35.2909 145.482 36.487 145.482C37.7623 145.482 38.3819 146.505 38.3819 149.314L38.3747 149.304Z" fill="#004289"/>
<path d="M44.6792 149.364C43.1877 148.421 42.741 148.01 42.741 146.977C42.741 146.094 43.2742 145.452 44.2036 145.452C45.1331 145.452 45.7095 145.803 46.394 146.555L47.1001 145.261C46.43 144.489 45.4934 143.967 44.2757 143.967C42.6834 143.967 41.5305 145.221 41.5305 147.087C41.5305 149.053 42.2655 149.795 44.0307 150.849C45.587 151.781 46.113 152.343 46.113 153.346C46.113 154.54 45.5438 155.242 44.3333 155.242C43.4615 155.242 42.6401 154.741 41.934 153.888L41.1919 155.172C42.0349 156.115 43.0868 156.737 44.2973 156.737C45.8248 156.737 47.3163 155.694 47.3163 153.286C47.3163 151.089 46.3436 150.417 44.6792 149.374V149.364Z" fill="#004289"/>
<path d="M54.6724 151.38C54.6724 154.069 53.707 155.202 52.4965 155.202C51.0771 155.202 50.407 154.018 50.407 151.38V144.218H49.1533V151.681C49.1533 155.202 50.371 156.717 52.2299 156.717C53.3467 156.717 54.1609 155.995 54.6652 154.971V156.466H55.9261V144.208H54.6652V151.37L54.6724 151.38Z" fill="#004289"/>
<path d="M64.8245 156.476V149.003C64.8245 145.472 63.5996 143.967 61.7335 143.967C60.6311 143.967 59.8097 144.679 59.3125 145.723V144.228H58.0444V156.486H59.3125V149.314C59.3125 146.635 60.2564 145.482 61.4885 145.482C62.8935 145.482 63.5708 146.676 63.5708 149.314V156.486H64.8317L64.8245 156.476Z" fill="#004289"/>
<path d="M68.7874 159.656L69.1909 160.99C72.462 160.84 73.6509 159.074 73.6509 155.383V144.218H72.3972V145.592C71.7775 144.609 71.0282 143.967 69.9186 143.967C68.0669 143.967 66.5898 146.194 66.5898 150.548C66.5898 154.901 67.9876 156.727 69.7529 156.727C70.9417 156.727 71.7847 155.914 72.4044 154.981V155.613C72.4044 158.462 71.7343 159.536 68.7946 159.656H68.7874ZM70.0627 155.212C68.6721 155.212 67.8291 153.607 67.8291 150.528C67.8291 147.227 68.5496 145.482 70.0123 145.482C71.057 145.482 71.9072 146.304 72.39 147.318V153.447C71.7703 154.53 70.9994 155.212 70.0555 155.212H70.0627Z" fill="#004289"/>
<path d="M87.535 148.19C87.535 142.583 85.2654 140.125 82.1816 140.125H79.0762V156.476H81.9438C85.0853 156.476 87.535 154.119 87.535 148.18V148.19ZM80.3875 141.78H82.0807C84.7826 141.78 86.2237 144.078 86.2237 148.25C86.2237 152.955 84.6457 154.821 82.1095 154.821H80.3803V141.78H80.3875Z" fill="#004289"/>
<path d="M90.8927 145.743V144.228H89.6318V156.486H90.8927V149.294C90.8927 146.946 91.5772 145.592 92.8093 145.592C93.3929 145.592 93.782 145.773 94.1278 146.054L94.4449 144.288C94.1495 144.098 93.7243 143.987 93.0759 143.987C92.132 143.987 91.289 144.77 90.8999 145.763L90.8927 145.743Z" fill="#004289"/>
<path d="M101.974 155.312L101.391 154.048C100.584 154.801 99.9784 155.212 98.9481 155.212C97.5142 155.212 96.6208 153.557 96.4983 150.949H102.371C102.414 150.658 102.428 150.407 102.428 149.986C102.428 146.485 101.182 143.967 98.8832 143.967C96.7865 143.967 95.2446 146.385 95.2446 150.277C95.2446 155.102 97.2044 156.727 98.8184 156.727C100.144 156.727 100.922 156.235 101.981 155.312H101.974ZM98.8688 145.472C100.411 145.472 101.153 147.127 101.254 149.514H96.4983C96.6424 146.776 97.5575 145.472 98.8688 145.472Z" fill="#004289"/>
<path d="M106.615 156.727C107.875 156.727 108.747 155.914 109.367 154.981V156.476H110.628V147.929C110.628 145.081 109.439 143.967 107.537 143.967C106.391 143.967 105.354 144.358 104.583 144.94L105.058 146.365C105.779 145.783 106.535 145.422 107.458 145.422C108.747 145.422 109.367 146.304 109.367 148.14V149.595C108.855 149.193 108.063 148.882 107.184 148.882C105.433 148.882 103.797 150.056 103.797 152.815C103.797 155.774 105.246 156.727 106.615 156.727ZM107.105 150.277C108.171 150.277 108.798 150.548 109.367 150.989V153.467C108.834 154.49 107.976 155.312 106.845 155.312C105.714 155.312 105.044 154.51 105.044 152.684C105.044 151.149 105.822 150.267 107.112 150.267L107.105 150.277Z" fill="#004289"/>
<path d="M123.265 149.304V156.476H124.519V149.003C124.519 145.422 123.402 143.967 121.601 143.967C120.174 143.967 119.454 144.89 118.935 146.064C118.517 144.89 117.768 143.967 116.521 143.967C115.477 143.967 114.742 144.659 114.288 145.723V144.228H113.034V156.486H114.288V149.314C114.288 146.595 115.044 145.482 116.255 145.482C117.465 145.482 118.15 146.505 118.15 149.314V156.486H119.404V149.314C119.404 146.595 120.174 145.482 121.371 145.482C122.639 145.482 123.265 146.505 123.265 149.314V149.304Z" fill="#004289"/>
<path d="M133.936 147.227C131.587 146.064 131.155 145.291 131.155 143.937C131.155 142.583 131.825 141.53 133.432 141.53C134.613 141.53 135.399 142.061 136.249 143.044L137.085 141.62C136.098 140.526 135.089 139.874 133.518 139.874C131.321 139.874 129.844 141.419 129.844 144.047C129.844 146.405 130.694 147.548 133.237 148.802C135.384 149.885 136.04 150.748 136.04 152.263C136.04 153.988 135.067 155.062 133.504 155.062C132.293 155.062 131.27 154.279 130.377 153.095L129.505 154.44C130.427 155.754 131.861 156.707 133.446 156.707C135.889 156.707 137.337 154.72 137.337 152.163C137.337 149.605 136.537 148.511 133.936 147.197V147.227Z" fill="#004289"/>
<path d="M142.683 145.482C143.57 145.482 144.16 145.923 144.794 146.726L145.551 145.412C144.859 144.569 143.951 143.967 142.763 143.967C140.918 143.967 138.973 145.873 138.973 150.417C138.973 154.69 140.738 156.737 142.683 156.737C143.915 156.737 144.773 156.085 145.515 155.032L144.758 153.918C144.16 154.731 143.584 155.222 142.734 155.222C141.17 155.222 140.248 153.286 140.248 150.267C140.248 147.247 141.314 145.482 142.69 145.482H142.683Z" fill="#004289"/>
<path d="M150.94 143.967C149.838 143.967 149.01 144.679 148.505 145.723V139.955H147.251V156.486H148.505V149.314C148.505 146.625 149.471 145.482 150.688 145.482C152.101 145.482 152.763 146.666 152.763 149.314V156.486H154.024V149.003C154.024 145.482 152.799 143.967 150.933 143.967H150.94Z" fill="#004289"/>
<path d="M159.644 143.967C157.504 143.967 155.79 146.194 155.79 150.367C155.79 154.54 157.432 156.737 159.579 156.737C161.727 156.737 163.441 154.43 163.441 150.267C163.441 146.104 161.784 143.967 159.644 143.967ZM159.623 155.222C158.095 155.222 157.065 153.547 157.065 150.317C157.065 147.087 158.095 145.482 159.623 145.482C161.15 145.482 162.18 147.097 162.18 150.317C162.18 153.537 161.143 155.222 159.623 155.222Z" fill="#004289"/>
<path d="M166.604 139.955H165.343V156.486H166.604V139.955Z" fill="#004289"/>
<path d="M172.354 143.967C171.216 143.967 170.171 144.368 169.407 144.95L169.876 146.385C170.596 145.793 171.353 145.442 172.275 145.442C173.565 145.442 174.184 146.335 174.184 148.14V149.605C173.666 149.193 172.873 148.892 171.994 148.892C170.243 148.892 168.615 150.066 168.615 152.825C168.615 155.794 170.056 156.737 171.432 156.737C172.693 156.737 173.565 155.934 174.184 154.991V156.486H175.445V147.939C175.445 145.081 174.256 143.967 172.354 143.967ZM174.184 153.467C173.651 154.49 172.787 155.312 171.655 155.312C170.589 155.312 169.861 154.51 169.861 152.694C169.861 151.149 170.639 150.287 171.929 150.287C173.003 150.287 173.622 150.548 174.192 150.989V153.467H174.184Z" fill="#004289"/>
<path d="M179.105 145.743V144.218H177.844V156.486H179.105V149.294C179.105 146.956 179.79 145.582 181.014 145.582C181.605 145.582 181.987 145.763 182.34 146.044L182.657 144.268C182.362 144.088 181.937 143.967 181.288 143.967C180.344 143.967 179.501 144.75 179.105 145.743Z" fill="#004289"/>
<path d="M187.492 149.364C185.993 148.421 185.547 148 185.547 146.966C185.547 146.084 186.087 145.442 187.009 145.442C187.931 145.442 188.522 145.803 189.207 146.545L189.913 145.261C189.236 144.489 188.306 143.957 187.096 143.957C185.496 143.957 184.343 145.211 184.343 147.087C184.343 149.053 185.085 149.795 186.851 150.838C188.407 151.771 188.933 152.333 188.933 153.336C188.933 154.54 188.357 155.232 187.16 155.232C186.281 155.232 185.46 154.73 184.754 153.878L184.019 155.162C184.855 156.105 185.914 156.727 187.124 156.727C188.645 156.727 190.143 155.683 190.143 153.276C190.143 151.069 189.171 150.407 187.506 149.354L187.492 149.364Z" fill="#004289"/>
<path d="M195.872 143.967C194.762 143.967 193.941 144.679 193.436 145.723V139.955H192.183V156.486H193.436V149.314C193.436 146.625 194.395 145.482 195.619 145.482C197.024 145.482 197.695 146.666 197.695 149.314V156.486H198.955V149.003C198.955 145.482 197.731 143.967 195.872 143.967Z" fill="#004289"/>
<path d="M202.695 144.218H201.441V156.486H202.695V144.218Z" fill="#004289"/>
<path d="M202.097 139.523C201.578 139.523 201.174 140.085 201.174 140.797C201.174 141.469 201.578 142.031 202.097 142.031C202.558 142.031 202.968 141.469 202.968 140.797C202.968 140.085 202.558 139.523 202.097 139.523Z" fill="#004289"/>
<path d="M209.143 143.967C207.955 143.967 207.112 144.78 206.492 145.723V144.228H205.238V161H206.492V155.112C207.112 156.085 207.868 156.737 208.978 156.737C210.822 156.737 212.299 154.49 212.299 150.156C212.299 145.823 210.902 143.967 209.143 143.967ZM208.877 155.222C207.839 155.222 206.982 154.4 206.492 153.376V147.257C207.112 146.194 207.89 145.482 208.826 145.482C210.224 145.482 211.067 147.097 211.067 150.176C211.067 153.467 210.347 155.222 208.877 155.222Z" fill="#004289"/>
<path d="M218.964 141.79H224.555V140.135H217.653V156.486H218.964V148.862H222.185V147.217H218.964V141.79Z" fill="#004289"/>
<path d="M228.381 143.967C226.241 143.967 224.519 146.194 224.519 150.367C224.519 154.54 226.169 156.737 228.309 156.737C230.449 156.737 232.171 154.43 232.171 150.267C232.171 146.104 230.528 143.967 228.381 143.967ZM228.345 155.222C226.817 155.222 225.794 153.547 225.794 150.317C225.794 147.087 226.817 145.482 228.345 145.482C229.872 145.482 230.917 147.097 230.917 150.317C230.917 153.537 229.88 155.222 228.345 155.222Z" fill="#004289"/>
<path d="M239.124 151.38C239.124 154.068 238.173 155.212 236.948 155.212C235.536 155.212 234.866 154.028 234.866 151.38V144.218H233.605V151.691C233.605 155.222 234.83 156.737 236.696 156.737C237.791 156.737 238.613 156.025 239.117 154.991V156.486H240.378V144.218H239.117V151.38H239.124Z" fill="#004289"/>
<path d="M246.185 143.967C245.083 143.967 244.261 144.679 243.75 145.723V144.228H242.489V156.496H243.75V149.324C243.75 146.635 244.708 145.492 245.933 145.492C247.345 145.492 248.015 146.676 248.015 149.324V156.496H249.269V149.013C249.269 145.492 248.044 143.977 246.178 143.977L246.185 143.967Z" fill="#004289"/>
<path d="M256.848 145.602C256.229 144.619 255.472 143.967 254.363 143.967C252.518 143.967 251.041 146.194 251.041 150.558C251.041 154.921 252.432 156.737 254.197 156.737C255.386 156.737 256.222 155.934 256.848 154.991V156.486H258.109V139.955H256.848V145.612V145.602ZM256.848 153.447C256.229 154.52 255.451 155.222 254.514 155.222C253.123 155.222 252.28 153.617 252.28 150.528C252.28 147.227 253.001 145.482 254.463 145.482C255.508 145.482 256.351 146.294 256.848 147.328V153.447Z" fill="#004289"/>
<path d="M263.448 143.967C262.303 143.967 261.265 144.368 260.494 144.95L260.963 146.385C261.69 145.793 262.447 145.442 263.362 145.442C264.652 145.442 265.271 146.335 265.271 148.14V149.605C264.752 149.193 263.96 148.892 263.074 148.892C261.337 148.892 259.702 150.066 259.702 152.825C259.702 155.794 261.15 156.737 262.526 156.737C263.787 156.737 264.652 155.934 265.271 154.991V156.486H266.532V147.939C266.532 145.081 265.343 143.967 263.448 143.967ZM265.271 153.467C264.738 154.49 263.881 155.312 262.735 155.312C261.669 155.312 260.948 154.51 260.948 152.694C260.948 151.149 261.719 150.287 263.009 150.287C264.082 150.287 264.702 150.548 265.271 150.989V153.467Z" fill="#004289"/>
<path d="M270.546 139.955H269.285V144.228H268.197V145.703H269.285V153.978C269.285 156.005 269.876 156.747 270.971 156.747C271.634 156.747 272.102 156.616 272.592 156.326L272.678 154.811C272.275 155.042 271.943 155.162 271.432 155.162C270.762 155.162 270.546 154.791 270.546 153.687V145.703H272.729V144.228H270.546V139.955Z" fill="#004289"/>
<path d="M275.582 139.523C275.063 139.523 274.652 140.085 274.652 140.797C274.652 141.469 275.063 142.031 275.582 142.031C276.057 142.031 276.461 141.469 276.461 140.797C276.461 140.085 276.057 139.523 275.582 139.523Z" fill="#004289"/>
<path d="M276.18 144.218H274.926V156.486H276.18V144.218Z" fill="#004289"/>
<path d="M281.944 143.967C279.804 143.967 278.089 146.194 278.089 150.367C278.089 154.54 279.732 156.737 281.879 156.737C284.026 156.737 285.734 154.43 285.734 150.267C285.734 146.104 284.091 143.967 281.944 143.967ZM281.901 155.222C280.381 155.222 279.357 153.547 279.357 150.317C279.357 147.087 280.381 145.482 281.901 145.482C283.421 145.482 284.473 147.097 284.473 150.317C284.473 153.537 283.436 155.222 281.901 155.222Z" fill="#004289"/>
<path d="M291.239 143.967C290.129 143.967 289.308 144.679 288.803 145.723V144.228H287.542V156.496H288.803V149.324C288.803 146.635 289.762 145.492 290.987 145.492C292.406 145.492 293.069 146.676 293.069 149.324V156.496H294.323V149.013C294.323 145.492 293.098 143.977 291.239 143.977V143.967Z" fill="#004289"/>
<path d="M161.229 27.2145L151.553 21.6372L161.229 16.0599L159.507 10.2819L149.831 15.8593L153.844 2.38741L149.694 0L145.688 13.4718L141.675 0L137.532 2.38741L141.538 15.8593L131.861 10.2819L130.146 16.0599L139.816 21.6372L130.146 27.2145L131.861 32.9925L141.538 27.4051L137.532 40.8769L141.682 43.2744L145.688 29.8026L149.694 43.2744L153.844 40.8769L149.831 27.4051L159.507 32.9925L161.229 27.2145Z" fill="#009FE3"/>
<path d="M98.5952 64.8213H105.037V40.877H83.0249V48.942H98.5952V64.8213Z" fill="#009FE3"/>
<path d="M123.712 64.8213H130.146V40.877H108.135V48.942H123.712V64.8213Z" fill="#009FE3"/>
<path d="M81.9873 77.1998H123.712V89.5281H130.146V69.1348H81.9873V77.1998Z" fill="#009FE3"/>
<path d="M97.5576 127.195H130.139V93.6809H97.5576V127.195ZM103.999 101.746H123.712V119.13H103.999V101.746Z" fill="#009FE3"/>
</g>
<defs>
<clipPath id="clip0_38_66">
<rect width="300" height="161" fill="white"/>
</clipPath>
</defs>
</svg>
