<svg width="30" height="30" viewBox="0 0 30 30" fill="none" xmlns="http://www.w3.org/2000/svg">
<mask id="mask0_25_2" style="mask-type:alpha" maskUnits="userSpaceOnUse" x="0" y="0" width="30" height="30">
<rect width="30" height="30" fill="#D9D9D9"/>
</mask>
<g mask="url(#mask0_25_2)">
<path d="M15 15C13.625 15 12.4479 14.5105 11.4688 13.5313C10.4896 12.5521 10 11.375 10 10C10 8.62503 10.4896 7.44795 11.4688 6.46878C12.4479 5.48962 13.625 5.00003 15 5.00003C16.375 5.00003 17.5521 5.48962 18.5312 6.46878C19.5104 7.44795 20 8.62503 20 10C20 11.375 19.5104 12.5521 18.5312 13.5313C17.5521 14.5105 16.375 15 15 15ZM5 22.5V21.5C5 20.7917 5.18229 20.1407 5.54688 19.5469C5.91146 18.9532 6.39583 18.5 7 18.1875C8.29167 17.5417 9.60417 17.0573 10.9375 16.7344C12.2708 16.4115 13.625 16.25 15 16.25C16.375 16.25 17.7292 16.4115 19.0625 16.7344C20.3958 17.0573 21.7083 17.5417 23 18.1875C23.6042 18.5 24.0885 18.9532 24.4531 19.5469C24.8177 20.1407 25 20.7917 25 21.5V22.5C25 23.1875 24.7552 23.7761 24.2656 24.2657C23.776 24.7552 23.1875 25 22.5 25H7.5C6.8125 25 6.22396 24.7552 5.73438 24.2657C5.24479 23.7761 5 23.1875 5 22.5ZM7.5 22.5H22.5V21.5C22.5 21.2709 22.4427 21.0625 22.3281 20.875C22.2135 20.6875 22.0625 20.5417 21.875 20.4375C20.75 19.875 19.6146 19.4532 18.4688 19.1719C17.3229 18.8907 16.1667 18.75 15 18.75C13.8333 18.75 12.6771 18.8907 11.5312 19.1719C10.3854 19.4532 9.25 19.875 8.125 20.4375C7.9375 20.5417 7.78646 20.6875 7.67188 20.875C7.55729 21.0625 7.5 21.2709 7.5 21.5V22.5ZM15 12.5C15.6875 12.5 16.276 12.2552 16.7656 11.7657C17.2552 11.2761 17.5 10.6875 17.5 10C17.5 9.31253 17.2552 8.72399 16.7656 8.23441C16.276 7.74483 15.6875 7.50003 15 7.50003C14.3125 7.50003 13.724 7.74483 13.2344 8.23441C12.7448 8.72399 12.5 9.31253 12.5 10C12.5 10.6875 12.7448 11.2761 13.2344 11.7657C13.724 12.2552 14.3125 12.5 15 12.5Z" fill="#1D1D1D"/>
</g>
</svg>
