<svg width="136" height="52" viewBox="0 0 136 52" fill="none" xmlns="http://www.w3.org/2000/svg">
<path d="M27.9984 33.4614C25.5226 33.4647 23.4844 35.3859 23.4844 37.7899C23.4844 40.1939 25.5226 42.0957 27.9984 42.1022C30.4972 42.0925 32.519 40.1712 32.519 37.7899C32.519 35.4086 30.4972 33.4647 27.9984 33.4614ZM27.9364 40.1291C26.6429 40.1291 25.663 39.0794 25.663 37.7931C25.663 36.5069 26.7082 35.4345 27.9952 35.4345C29.2821 35.4345 30.2914 36.481 30.2914 37.7931C30.2914 39.1053 29.2331 40.1291 27.9331 40.1291H27.9364Z" fill="white"/>
<path d="M7.27704 30.4808C7.9695 31.1579 8.75995 31.7475 9.53407 32.1298L9.61573 32.172L10.9484 30.6071L10.821 30.5358C9.55367 29.8555 8.5607 28.9969 7.91397 27.9115C7.2705 26.8456 6.94061 25.6015 6.94061 24.1209V22.7277H4.55619V23.9718C4.55619 25.5788 4.18709 26.8424 3.50116 27.9504C2.73031 29.1751 1.59036 30.1632 0.130316 31.0769L0.00292969 31.1546L1.45318 32.6417L1.53157 32.5964C2.39061 32.1298 3.30519 31.4138 4.10217 30.6168C4.79136 29.9203 5.3891 29.1686 5.7484 28.4591C6.09789 29.1524 6.63684 29.8619 7.2803 30.471L7.27704 30.4808Z" fill="white"/>
<path d="M4.7002 41.0816H14.6886V34.3135H4.7002V41.0816ZM6.94089 36.225H12.4381V39.1733H6.94089V36.225Z" fill="white"/>
<path d="M14.7247 22.3292H12.5068V33.5392H14.7247V28.5789H17.3279V26.5864H14.7247V22.3292Z" fill="white"/>
<path d="M71.3687 31.0542C72.0971 31.6827 72.9333 32.2108 73.7172 32.551L73.7989 32.5899L74.9976 30.9797L74.8702 30.9181C73.727 30.335 72.7046 29.6157 71.973 28.7409C71.225 27.8435 70.7808 26.7646 70.7808 25.4622V25.0799H74.083V23.1489H65.1104V25.0799H68.4127V25.5432C68.4127 26.7257 68.0142 27.8305 67.3609 28.7863C66.5901 29.9332 65.4632 30.8598 64.3722 31.456L64.2285 31.5337L65.7016 33.0467L65.7833 33.0079C66.5803 32.5607 67.4556 31.8836 68.2069 31.1255C68.8079 30.5002 69.3469 29.8393 69.6767 29.1816C70.0752 29.8198 70.686 30.4613 71.3687 31.0574V31.0542Z" fill="white"/>
<path d="M87.4326 36.2704H95.507V41.0816H97.7509V34.3556H87.4326V36.2704Z" fill="white"/>
<path d="M93.0052 28.5627C93.0052 27.5033 92.5283 26.5281 91.8163 25.7829H94.0341V23.8746H89.8009V21.772H87.3969V23.8746H83.0625V25.7829H85.3261C84.6369 26.5281 84.1535 27.4936 84.1535 28.5627C84.1535 30.9246 86.1165 32.8459 88.5728 32.8523C91.0291 32.8459 93.0052 30.9246 93.0085 28.5627H93.0052ZM86.2929 28.4753C86.2929 27.1664 87.4067 26.0583 88.5695 26.0583C89.7323 26.0583 90.8429 27.1728 90.8462 28.4753C90.8462 29.7615 89.7323 30.8728 88.5695 30.876C87.4034 30.8728 86.2929 29.7615 86.2929 28.4753Z" fill="white"/>
<path d="M97.751 22.3292H95.5332V33.5781H97.751V29.2852H100.358V27.296H97.751V22.3292Z" fill="white"/>
<path d="M78.9369 22.3292H76.7158V33.5781H78.9369V28.5789H81.5402V26.5864H78.9369V22.3292Z" fill="white"/>
<path d="M129.411 30.8112H121.905V25.1414H127.625V23.1457H119.658V32.7487H129.411V30.8112Z" fill="white"/>
<path d="M30.7134 25.6663H27.2217V27.6394H30.7134V33.9312H32.9345V22.3292H30.7134V25.6663Z" fill="white"/>
<path d="M25.0683 30.7723C25.7608 31.4495 26.5676 32.0391 27.345 32.4376L27.4299 32.4862L28.7658 30.9214L28.6351 30.8469C27.3678 30.1924 26.3945 29.3338 25.7445 28.2647C25.0814 27.2052 24.7515 25.9158 24.7515 24.4319V22.731H22.3605V24.2926C22.3605 25.8996 21.998 27.1599 21.3251 28.2485C20.5543 29.4958 19.398 30.4872 17.9347 31.3976L17.8105 31.4754L19.2641 32.969L19.3359 32.9236C20.1982 32.4571 21.0899 31.7799 21.8837 31.0056C22.599 30.2961 23.2 29.5282 23.5593 28.7831C23.9022 29.4569 24.4281 30.1503 25.0618 30.7723H25.0683Z" fill="white"/>
<path d="M74.1716 33.4614C71.6958 33.4647 69.6576 35.3859 69.6543 37.7899C69.6576 40.1712 71.6958 42.0957 74.1716 42.1022C76.6671 42.0925 78.6922 40.1712 78.6922 37.7899C78.6922 35.4086 76.6671 33.4647 74.1716 33.4614ZM74.1063 40.1291C72.8161 40.1291 71.8329 39.0794 71.8329 37.7931C71.8329 36.5069 72.8749 35.4345 74.1716 35.4345C75.4684 35.4345 76.4646 36.481 76.4679 37.7931C76.4646 39.0794 75.4063 40.1291 74.1063 40.1291Z" fill="white"/>
<path d="M125.168 35.1073H122.921V41.0816H133.425V39.1118H125.168V35.1073Z" fill="white"/>
<path d="M133.374 27.526V22.3292H131.156V36.1603H133.374V29.512H136V27.526H133.374Z" fill="white"/>
<path d="M114.585 27.3964H112.717V22.6467H110.62V40.5989H112.717V29.5574H114.585V41.0816H116.764V22.3292H114.585V27.3964Z" fill="white"/>
<path d="M107.537 29.8846C107.037 28.7993 106.832 27.5908 106.832 26.1004V25.3909H109.35V23.3692H102.027V25.3909H104.627V26.1361C104.627 27.5454 104.441 28.6956 103.99 29.7647C103.471 30.9894 102.595 32.0974 101.201 33.2768L101.103 33.3675L102.481 34.7217L102.566 34.6569C103.258 34.1483 103.983 33.4128 104.591 32.6547C105.101 32.0132 105.532 31.3523 105.806 30.7691C106.084 31.3361 106.518 31.9873 107.024 32.5964C107.616 33.3092 108.279 33.9863 108.916 34.388L109.004 34.4464L110.163 33.0694L110.072 32.9852C108.824 31.9063 108.05 30.9441 107.54 29.8814L107.537 29.8846Z" fill="white"/>
<path d="M6.31055 47.5517C5.24573 47.1758 5.04648 46.9231 5.04648 46.489C5.04648 46.0548 5.35351 45.7114 6.08191 45.7114C6.61432 45.7114 6.97361 45.8831 7.35904 46.2006L7.73793 45.7373C7.29045 45.3842 6.83316 45.1736 6.1211 45.1736C5.12487 45.1736 4.45201 45.6758 4.45201 46.5246C4.45201 47.286 4.84397 47.6521 5.99045 48.0636C6.96381 48.4102 7.26105 48.6921 7.26105 49.1781C7.26105 49.7386 6.82009 50.082 6.1113 50.082C5.56256 50.082 5.09874 49.8325 4.69698 49.4502L4.30176 49.8876C4.71985 50.3055 5.36985 50.6166 6.0917 50.6166C7.20225 50.6166 7.85552 49.9751 7.85552 49.1489C7.85552 48.3227 7.49296 47.9696 6.31381 47.5452L6.31055 47.5517Z" fill="white"/>
<path d="M10.2698 46.4987C9.75043 46.4987 9.27682 46.625 8.92732 46.813L9.1429 47.273C9.46953 47.0851 9.81249 46.9685 10.2306 46.9685C10.812 46.9685 11.0994 47.2536 11.0994 47.8465V48.3163C10.8642 48.1867 10.505 48.0862 10.0999 48.0862C9.30948 48.0862 8.57129 48.4653 8.57129 49.3563C8.57129 50.312 9.22782 50.6198 9.84842 50.6198C10.42 50.6198 10.812 50.3574 11.0962 50.0561V50.5388H11.6645V47.7784C11.6645 46.8583 11.1256 46.4987 10.2698 46.4987ZM11.0962 49.5669C10.8545 49.8973 10.4625 50.163 9.94641 50.163C9.45973 50.163 9.12983 49.9038 9.12983 49.3141C9.12983 48.8184 9.48259 48.5333 10.0673 48.5333C10.5539 48.5333 10.8349 48.6208 11.0929 48.7634V49.5636L11.0962 49.5669Z" fill="white"/>
<path d="M17.3963 48.2223V50.5388H17.9679V48.1251C17.9679 46.9685 17.4617 46.4987 16.6451 46.4987C15.9983 46.4987 15.6717 46.7968 15.4365 47.1758C15.2471 46.7968 14.9041 46.4987 14.3423 46.4987C13.8687 46.4987 13.5323 46.7222 13.3298 47.0657V46.5829H12.7549V50.5421H13.3298V48.2255C13.3298 47.3475 13.6727 46.9879 14.2215 46.9879C14.7702 46.9879 15.0805 47.3184 15.0805 48.2255V50.5421H15.6521V48.2255C15.6521 47.3475 15.9983 46.9879 16.5406 46.9879C17.1187 46.9879 17.3996 47.3184 17.3996 48.2255L17.3963 48.2223Z" fill="white"/>
<path d="M20.2547 48.2417C19.5786 47.9372 19.3761 47.8044 19.3761 47.4707C19.3761 47.1855 19.6178 46.9782 20.0392 46.9782C20.4605 46.9782 20.7218 47.0916 21.0321 47.3346L21.3522 46.9166C21.0484 46.6672 20.6238 46.4987 20.0718 46.4987C19.35 46.4987 18.8273 46.9037 18.8273 47.5063C18.8273 48.1413 19.1605 48.3811 19.9608 48.7212C20.6663 49.0226 20.9047 49.204 20.9047 49.528C20.9047 49.9135 20.6467 50.1403 20.0979 50.1403C19.7027 50.1403 19.3304 49.9783 19.0103 49.7029L18.6738 50.1176C19.056 50.4222 19.5329 50.6231 20.0816 50.6231C20.7741 50.6231 21.4502 50.2861 21.4502 49.5085C21.4502 48.799 21.0093 48.5819 20.2547 48.245V48.2417Z" fill="white"/>
<path d="M24.7852 48.893C24.7852 49.7612 24.3475 50.1274 23.7988 50.1274C23.1553 50.1274 22.8515 49.745 22.8515 48.893V46.5797H22.2832V48.9902C22.2832 50.1274 22.8352 50.6166 23.6779 50.6166C24.1842 50.6166 24.5533 50.3833 24.7819 50.0528V50.5356H25.3535V46.5764H24.7819V48.8897L24.7852 48.893Z" fill="white"/>
<path d="M29.3871 50.5388V48.1251C29.3871 46.9847 28.8318 46.4987 27.9858 46.4987C27.4861 46.4987 27.1137 46.7287 26.8884 47.0657V46.5829H26.3135V50.5421H26.8884V48.2255C26.8884 47.3605 27.3162 46.9879 27.8748 46.9879C28.5117 46.9879 28.8188 47.3735 28.8188 48.2255V50.5421H29.3904L29.3871 50.5388Z" fill="white"/>
<path d="M31.1837 51.5659L31.3666 51.9968C32.8496 51.9482 33.3885 51.3779 33.3885 50.1857V46.5797H32.8202V47.0235C32.5393 46.706 32.1996 46.4987 31.6965 46.4987C30.8571 46.4987 30.1875 47.2179 30.1875 48.624C30.1875 50.0302 30.8212 50.6198 31.6214 50.6198C32.1604 50.6198 32.5425 50.3574 32.8234 50.0561V50.2602C32.8234 51.1803 32.5197 51.527 31.187 51.5659H31.1837ZM31.7619 50.1306C31.1315 50.1306 30.7493 49.6122 30.7493 48.6176C30.7493 47.5516 31.0759 46.9879 31.739 46.9879C32.2126 46.9879 32.598 47.2536 32.8169 47.5808V49.5604C32.536 49.9103 32.1865 50.1306 31.7586 50.1306H31.7619Z" fill="white"/>
<path d="M39.6823 47.8627C39.6823 46.0516 38.6534 45.2578 37.2554 45.2578H35.8477V50.5388H37.1477C38.5718 50.5388 39.6823 49.7774 39.6823 47.8594V47.8627ZM36.4421 45.7924H37.2097C38.4346 45.7924 39.0879 46.5343 39.0879 47.8821C39.0879 49.4016 38.3725 50.0042 37.2228 50.0042H36.4389V45.7924H36.4421Z" fill="white"/>
<path d="M41.2044 47.0721V46.5829H40.6328V50.5421H41.2044V48.2191C41.2044 47.4609 41.5147 47.0236 42.0733 47.0236C42.3378 47.0236 42.5142 47.0819 42.671 47.1726L42.8147 46.6024C42.6808 46.5408 42.4881 46.5052 42.1941 46.5052C41.7662 46.5052 41.3841 46.7579 41.2077 47.0786L41.2044 47.0721Z" fill="white"/>
<path d="M46.2285 50.163L45.9639 49.7548C45.5981 49.9978 45.3237 50.1306 44.8566 50.1306C44.2066 50.1306 43.8016 49.596 43.7461 48.7536H46.4081C46.4277 48.6597 46.4343 48.5787 46.4343 48.4426C46.4343 47.3119 45.8692 46.4987 44.8272 46.4987C43.8767 46.4987 43.1777 47.2795 43.1777 48.5366C43.1777 50.095 44.0662 50.6198 44.7978 50.6198C45.3988 50.6198 45.7516 50.4611 46.2317 50.163H46.2285ZM44.8207 46.9847C45.5197 46.9847 45.8561 47.5193 45.9018 48.2903H43.7461C43.8114 47.4059 44.2262 46.9847 44.8207 46.9847Z" fill="white"/>
<path d="M48.3318 50.6198C48.9034 50.6198 49.2987 50.3574 49.5796 50.0561V50.5388H50.1512V47.7784C50.1512 46.8583 49.6122 46.4987 48.7499 46.4987C48.2306 46.4987 47.7602 46.625 47.4107 46.813L47.6263 47.273C47.9529 47.0851 48.2959 46.9685 48.714 46.9685C49.2987 46.9685 49.5796 47.2536 49.5796 47.8465V48.3163C49.3476 48.1867 48.9884 48.0862 48.5899 48.0862C47.7961 48.0862 47.0547 48.4653 47.0547 49.3563C47.0547 50.312 47.7112 50.6198 48.3318 50.6198ZM48.5539 48.5366C49.0373 48.5366 49.3215 48.624 49.5796 48.7666V49.5669C49.3378 49.8973 48.9492 50.163 48.4363 50.163C47.9235 50.163 47.6198 49.9038 47.6198 49.3141C47.6198 48.8184 47.9725 48.5333 48.5572 48.5333L48.5539 48.5366Z" fill="white"/>
<path d="M55.8804 48.2223V50.5388H56.4487V48.1251C56.4487 46.9685 55.9424 46.4987 55.1258 46.4987C54.4791 46.4987 54.1525 46.7968 53.9173 47.1758C53.7279 46.7968 53.3882 46.4987 52.8231 46.4987C52.3495 46.4987 52.0163 46.7222 51.8105 47.0657V46.5829H51.2422V50.5421H51.8105V48.2255C51.8105 47.3475 52.1535 46.9879 52.7022 46.9879C53.251 46.9879 53.5613 47.3184 53.5613 48.2255V50.5421H54.1296V48.2255C54.1296 47.3475 54.4791 46.9879 55.0213 46.9879C55.5962 46.9879 55.8804 47.3184 55.8804 48.2255V48.2223Z" fill="white"/>
<path d="M60.7178 47.5517C59.653 47.1758 59.457 46.9264 59.457 46.489C59.457 46.0516 59.7607 45.7114 60.4891 45.7114C61.0248 45.7114 61.3808 45.8831 61.7663 46.2006L62.1452 45.7406C61.6977 45.3874 61.2404 45.1768 60.5283 45.1768C59.5321 45.1768 58.8625 45.6758 58.8625 46.5246C58.8625 47.286 59.2479 47.6553 60.4009 48.0603C61.3743 48.4102 61.6715 48.6888 61.6715 49.1781C61.6715 49.7353 61.2306 50.082 60.5218 50.082C59.973 50.082 59.5092 49.8293 59.1042 49.447L58.709 49.8811C59.1271 50.3055 59.7771 50.6133 60.4957 50.6133C61.6029 50.6133 62.2595 49.9718 62.2595 49.1457C62.2595 48.3195 61.8969 47.9664 60.7178 47.5419V47.5517Z" fill="white"/>
<path d="M64.6831 46.9879C65.0849 46.9879 65.3527 47.1305 65.6402 47.3897L65.9831 46.9652C65.6696 46.6931 65.258 46.4987 64.7191 46.4987C63.8829 46.4987 63.001 47.1143 63.001 48.5819C63.001 49.9621 63.8012 50.6231 64.6831 50.6231C65.2417 50.6231 65.6304 50.4125 65.9668 50.0723L65.6238 49.7126C65.3527 49.9751 65.0914 50.1338 64.706 50.1338C63.9972 50.1338 63.5791 49.5085 63.5791 48.5333C63.5791 47.5581 64.0625 46.9879 64.6864 46.9879H64.6831Z" fill="white"/>
<path d="M68.4263 46.4987C67.9265 46.4987 67.5509 46.7287 67.3222 47.0657V45.2027H66.7539V50.5421H67.3222V48.2255C67.3222 47.3573 67.7599 46.9879 68.3119 46.9879C68.9521 46.9879 69.2526 47.3702 69.2526 48.2255V50.5421H69.8243V48.1251C69.8243 46.9879 69.269 46.4987 68.423 46.4987H68.4263Z" fill="white"/>
<path d="M72.3715 46.4987C71.4014 46.4987 70.624 47.2179 70.624 48.5657C70.624 49.9135 71.3687 50.6231 72.3421 50.6231C73.3155 50.6231 74.0929 49.8779 74.0929 48.5333C74.0929 47.1888 73.3416 46.4987 72.3715 46.4987ZM72.3617 50.1338C71.6692 50.1338 71.2022 49.5928 71.2022 48.5495C71.2022 47.5063 71.6692 46.9879 72.3617 46.9879C73.0542 46.9879 73.5213 47.5095 73.5213 48.5495C73.5213 49.5895 73.0509 50.1338 72.3617 50.1338Z" fill="white"/>
<path d="M75.5277 45.2027H74.9561V50.5421H75.5277V45.2027Z" fill="white"/>
<path d="M78.1337 46.4987C77.6176 46.4987 77.144 46.6283 76.7978 46.8162L77.0101 47.2795C77.3367 47.0883 77.6797 46.975 78.0978 46.975C78.6824 46.975 78.9633 47.2633 78.9633 47.8465V48.3195C78.7282 48.1867 78.3689 48.0895 77.9704 48.0895C77.1767 48.0895 76.4385 48.4685 76.4385 49.3595C76.4385 50.3185 77.0917 50.6231 77.7156 50.6231C78.2872 50.6231 78.6824 50.3639 78.9633 50.0593V50.5421H79.535V47.7817C79.535 46.8583 78.996 46.4987 78.1337 46.4987ZM78.9633 49.5669C78.7216 49.8973 78.3297 50.163 77.8169 50.163C77.3335 50.163 77.0035 49.9038 77.0035 49.3174C77.0035 48.8184 77.3563 48.5398 77.941 48.5398C78.4277 48.5398 78.7086 48.624 78.9666 48.7666V49.5669H78.9633Z" fill="white"/>
<path d="M81.1947 47.0721V46.5797H80.623V50.5421H81.1947V48.2191C81.1947 47.4642 81.505 47.0203 82.0602 47.0203C82.3281 47.0203 82.5012 47.0786 82.6612 47.1693L82.8049 46.5959C82.671 46.5376 82.4783 46.4987 82.1844 46.4987C81.7565 46.4987 81.3743 46.7514 81.1947 47.0721Z" fill="white"/>
<path d="M84.9962 48.2417C84.3169 47.9372 84.1143 47.8011 84.1143 47.4674C84.1143 47.1823 84.3593 46.975 84.7774 46.975C85.1955 46.975 85.4633 47.0916 85.7736 47.3313L86.0937 46.9166C85.7867 46.6672 85.3653 46.4954 84.8166 46.4954C84.0915 46.4954 83.5689 46.9004 83.5689 47.5063C83.5689 48.1413 83.9053 48.3811 84.7055 48.718C85.4111 49.0193 85.6495 49.2007 85.6495 49.5247C85.6495 49.9135 85.3882 50.1371 84.846 50.1371C84.4475 50.1371 84.0751 49.9751 83.755 49.6997L83.4219 50.1144C83.8008 50.4189 84.2809 50.6198 84.8297 50.6198C85.5189 50.6198 86.1983 50.2829 86.1983 49.5053C86.1983 48.7925 85.7573 48.5787 85.0028 48.2385L84.9962 48.2417Z" fill="white"/>
<path d="M88.7954 46.4987C88.2924 46.4987 87.92 46.7287 87.6914 47.0657V45.2027H87.123V50.5421H87.6914V48.2255C87.6914 47.3573 88.1258 46.9879 88.6811 46.9879C89.318 46.9879 89.6218 47.3702 89.6218 48.2255V50.5421H90.1934V48.1251C90.1934 46.9879 89.6381 46.4987 88.7954 46.4987Z" fill="white"/>
<path d="M91.8887 46.5797H91.3203V50.5421H91.8887V46.5797Z" fill="white"/>
<path d="M91.6173 45.0634C91.3821 45.0634 91.1992 45.2449 91.1992 45.4749C91.1992 45.692 91.3821 45.8734 91.6173 45.8734C91.8264 45.8734 92.0125 45.692 92.0125 45.4749C92.0125 45.2449 91.8264 45.0634 91.6173 45.0634Z" fill="white"/>
<path d="M94.8114 46.4987C94.2724 46.4987 93.8903 46.7611 93.6094 47.0657V46.5829H93.041V52H93.6094V50.0982C93.8903 50.4125 94.2332 50.6231 94.7362 50.6231C95.5724 50.6231 96.242 49.8973 96.242 48.4977C96.242 47.0981 95.6083 46.4987 94.8114 46.4987ZM94.6905 50.1338C94.2202 50.1338 93.8315 49.8682 93.6094 49.5377V47.5614C93.8903 47.2179 94.243 46.9879 94.6676 46.9879C95.3013 46.9879 95.6835 47.5095 95.6835 48.5042C95.6835 49.5669 95.3568 50.1338 94.6905 50.1338Z" fill="white"/>
<path d="M99.2634 45.7956H101.798V45.2611H98.6689V50.5421H99.2634V48.0797H100.723V47.5484H99.2634V45.7956Z" fill="white"/>
<path d="M103.533 46.4987C102.563 46.4987 101.782 47.2179 101.782 48.5657C101.782 49.9135 102.53 50.6231 103.5 50.6231C104.47 50.6231 105.251 49.8779 105.251 48.5333C105.251 47.1888 104.506 46.4987 103.533 46.4987ZM103.517 50.1338C102.824 50.1338 102.36 49.5928 102.36 48.5495C102.36 47.5063 102.824 46.9879 103.517 46.9879C104.209 46.9879 104.683 47.5095 104.683 48.5495C104.683 49.5895 104.212 50.1338 103.517 50.1338Z" fill="white"/>
<path d="M108.402 48.893C108.402 49.7612 107.971 50.1306 107.416 50.1306C106.776 50.1306 106.472 49.7483 106.472 48.893V46.5797H105.9V48.9934C105.9 50.1338 106.456 50.6231 107.302 50.6231C107.798 50.6231 108.17 50.393 108.399 50.0593V50.5421H108.971V46.5797H108.399V48.893H108.402Z" fill="white"/>
<path d="M111.603 46.4987C111.104 46.4987 110.731 46.7287 110.499 47.0657V46.5829H109.928V50.5453H110.499V48.2288C110.499 47.3605 110.934 46.9911 111.489 46.9911C112.129 46.9911 112.433 47.3735 112.433 48.2288V50.5453H113.001V48.1283C113.001 46.9912 112.446 46.5019 111.6 46.5019L111.603 46.4987Z" fill="white"/>
<path d="M116.438 47.0268C116.157 46.7093 115.814 46.4987 115.311 46.4987C114.475 46.4987 113.806 47.2179 113.806 48.6273C113.806 50.0366 114.436 50.6231 115.236 50.6231C115.775 50.6231 116.154 50.3639 116.438 50.0593V50.5421H117.01V45.2027H116.438V47.03V47.0268ZM116.438 49.5604C116.157 49.907 115.805 50.1338 115.38 50.1338C114.75 50.1338 114.367 49.6155 114.367 48.6176C114.367 47.5517 114.694 46.9879 115.357 46.9879C115.831 46.9879 116.213 47.2503 116.438 47.584V49.5604Z" fill="white"/>
<path d="M119.43 46.4987C118.911 46.4987 118.44 46.6283 118.091 46.8162L118.303 47.2795C118.633 47.0883 118.976 46.975 119.391 46.975C119.975 46.975 120.256 47.2633 120.256 47.8465V48.3195C120.021 48.1867 119.662 48.0895 119.26 48.0895C118.473 48.0895 117.731 48.4685 117.731 49.3595C117.731 50.3185 118.388 50.6231 119.012 50.6231C119.583 50.6231 119.975 50.3639 120.256 50.0593V50.5421H120.828V47.7817C120.828 46.8583 120.289 46.4987 119.43 46.4987ZM120.256 49.5669C120.015 49.8973 119.626 50.163 119.107 50.163C118.623 50.163 118.297 49.9038 118.297 49.3174C118.297 48.8184 118.646 48.5398 119.231 48.5398C119.717 48.5398 119.998 48.624 120.256 48.7666V49.5669Z" fill="white"/>
<path d="M122.647 45.2027H122.075V46.5829H121.582V47.0592H122.075V49.7321C122.075 50.3865 122.343 50.6263 122.84 50.6263C123.14 50.6263 123.352 50.5842 123.574 50.4902L123.614 50.001C123.431 50.0755 123.281 50.1144 123.049 50.1144C122.745 50.1144 122.647 49.9945 122.647 49.6381V47.0592H123.637V46.5829H122.647V45.2027Z" fill="white"/>
<path d="M124.93 45.0634C124.695 45.0634 124.509 45.2449 124.509 45.4749C124.509 45.692 124.695 45.8734 124.93 45.8734C125.146 45.8734 125.329 45.692 125.329 45.4749C125.329 45.2449 125.146 45.0634 124.93 45.0634Z" fill="white"/>
<path d="M125.201 46.5797H124.633V50.5421H125.201V46.5797Z" fill="white"/>
<path d="M127.815 46.4987C126.845 46.4987 126.067 47.2179 126.067 48.5657C126.067 49.9135 126.812 50.6231 127.785 50.6231C128.759 50.6231 129.533 49.8779 129.533 48.5333C129.533 47.1888 128.788 46.4987 127.815 46.4987ZM127.795 50.1338C127.106 50.1338 126.642 49.5928 126.642 48.5495C126.642 47.5063 127.106 46.9879 127.795 46.9879C128.484 46.9879 128.961 47.5095 128.961 48.5495C128.961 49.5895 128.491 50.1338 127.795 50.1338Z" fill="white"/>
<path d="M132.028 46.4987C131.525 46.4987 131.153 46.7287 130.924 47.0657V46.5829H130.353V50.5453H130.924V48.2288C130.924 47.3605 131.359 46.9911 131.914 46.9911C132.557 46.9911 132.858 47.3735 132.858 48.2288V50.5453H133.426V48.1283C133.426 46.9912 132.871 46.5019 132.028 46.5019V46.4987Z" fill="white"/>
<path d="M73.0909 8.78978L68.7043 6.98841L73.0909 5.18704L72.3103 3.32087L67.9236 5.12224L69.7429 0.77109L67.8615 0L66.0455 4.35115L64.2261 0L62.348 0.77109L64.1641 5.12224L59.7774 3.32087L59 5.18704L63.3834 6.98841L59 8.78978L59.7774 10.656L64.1641 8.85134L62.348 13.2025L64.2294 13.9768L66.0455 9.62567L67.8615 13.9768L69.7429 13.2025L67.9236 8.85134L72.3103 10.656L73.0909 8.78978Z" fill="#009FE3"/>
<path d="M44.6972 20.9361H47.6173V13.2025H37.6387V15.8074H44.6972V20.9361Z" fill="#009FE3"/>
<path d="M56.0833 20.9361H59.0001V13.2025H49.0215V15.8074H56.0833V20.9361Z" fill="#009FE3"/>
<path d="M37.168 24.9341H56.0833V28.9159H59.0001V22.3292H37.168V24.9341Z" fill="#009FE3"/>
<path d="M44.2266 41.0816H58.9969V30.2572H44.2266V41.0816ZM47.1467 32.8621H56.0833V38.4768H47.1467V32.8621Z" fill="#009FE3"/>
</svg>
