<svg width="297" height="62" viewBox="0 0 297 62" fill="none" xmlns="http://www.w3.org/2000/svg">
<path d="M1.616 2.368H8.176C8.176 6.448 6.304 10.144 1.664 12.464L0.944 11.44C4.608 9.6 6.576 6.848 6.88 3.456H1.616V2.368ZM14.192 6.656V7.744H11.888V15.184H10.576V0.832H11.888V6.656H14.192ZM27.7908 5.408L27.3108 6.432C25.1028 6.08 22.9748 4.944 22.0628 3.328C21.1668 4.96 19.0388 6.08 16.8148 6.432L16.3188 5.408C18.8948 5.056 21.3908 3.488 21.3908 1.632V0.992H22.7348V1.632C22.7348 3.456 25.2628 5.056 27.7908 5.408ZM18.4468 11.312V13.936H25.6788V11.312H18.4468ZM17.1668 14.992V10.272H26.9588V14.992H17.1668ZM15.5668 7.616H28.5428V8.672H15.5668V7.616ZM43.0156 5.968V7.04H39.1276V1.888H42.9036V2.96H40.4236V5.968H43.0156ZM38.5356 5.68L38.6636 6.736C37.3676 7.024 36.3436 7.04 35.3356 7.04H34.6796V1.888H38.3756V2.96H35.9756V5.984C36.7596 5.952 37.5756 5.888 38.5356 5.68ZM43.5916 8.368L43.6716 9.344C42.2476 9.568 40.8076 9.68 39.3996 9.76V14.72H38.0876V9.824C36.6156 9.872 35.2076 9.872 33.9436 9.872L33.7516 8.768C36.6796 8.768 40.3116 8.752 43.5916 8.368ZM44.4556 0.848H45.7676V15.184H44.4556V0.848ZM60.0864 5.152V6.224H50.3264V1.36H51.6384V5.152H60.0864ZM51.5424 10.64V13.76H60.1664V14.832H50.2304V10.64H51.5424ZM48.5664 8.144H61.5744V9.2H48.5664V8.144ZM68.3193 11.712V10.656H78.2553V15.2H76.9433V11.712H68.3193ZM69.8233 2.464V5.248H76.8953V2.464H69.8233ZM74.0312 8.112H79.8553V9.168H66.8633V8.112H72.7193V6.288H68.5433V1.424H78.1913V6.288H74.0312V8.112ZM86.51 8.96V12.368H89.63V8.96H86.51ZM86.286 3.216V7.904H89.854V3.216H86.286ZM90.942 12.368H94.606V13.44H81.582V12.368H85.198V8.96H82.782V7.904H84.974V3.216H82.75V2.16H93.39V3.216H91.166V7.904H93.374V8.96H90.942V12.368ZM106.365 3.344V2.176H97.9488V1.248H107.661V4.24H99.2768V5.472H107.917V6.416H97.9808V3.344H106.365ZM99.1968 12.72V14.048H108.157V14.992H97.9008V11.808H106.413V10.608H97.8688V9.664H107.709V12.72H99.1968ZM96.3168 7.504H109.325V8.496H96.3168V7.504ZM123.126 2.448V3.504H114.662V2.448H118.23V0.704H119.542V2.448H123.126ZM116.71 6.752C116.71 7.696 117.574 8.304 118.886 8.304C120.198 8.304 121.078 7.696 121.078 6.752C121.078 5.824 120.198 5.216 118.886 5.216C117.574 5.216 116.71 5.824 116.71 6.752ZM122.326 6.752C122.326 8.304 120.934 9.296 118.886 9.296C116.838 9.296 115.462 8.304 115.462 6.752C115.462 5.216 116.838 4.224 118.886 4.224C120.934 4.224 122.326 5.216 122.326 6.752ZM121.254 14.16C123.35 14.16 124.63 13.616 124.63 12.688C124.63 11.76 123.35 11.216 121.254 11.216C119.158 11.216 117.878 11.76 117.878 12.688C117.878 13.616 119.158 14.16 121.254 14.16ZM121.254 10.208C124.134 10.208 125.926 11.104 125.926 12.688C125.926 14.256 124.134 15.168 121.254 15.168C118.358 15.168 116.582 14.256 116.582 12.688C116.582 11.104 118.358 10.208 121.254 10.208ZM127.83 4.384H125.75V6.368H127.83V7.456H125.75V10.064H124.438V0.832H125.75V3.312H127.83V4.384ZM137.844 2.592V3.648H129.38V2.592H132.948V0.832H134.26V2.592H137.844ZM131.428 7.104C131.428 8.112 132.308 8.752 133.604 8.752C134.9 8.752 135.796 8.112 135.796 7.104C135.796 6.112 134.9 5.472 133.604 5.472C132.308 5.472 131.428 6.112 131.428 7.104ZM137.044 7.104C137.044 8.72 135.636 9.776 133.604 9.776C131.572 9.776 130.18 8.72 130.18 7.104C130.18 5.504 131.572 4.448 133.604 4.448C135.636 4.448 137.044 5.504 137.044 7.104ZM132.852 10.752V13.792H141.108V14.864H131.54V10.752H132.852ZM140.468 5.568H142.58V6.672H140.468V11.6H139.156V0.832H140.468V5.568ZM149.181 5.088C149.181 6.432 150.205 7.376 151.645 7.376C153.069 7.376 154.109 6.432 154.109 5.088C154.109 3.728 153.069 2.8 151.645 2.8C150.205 2.8 149.181 3.728 149.181 5.088ZM155.389 5.088C155.389 7.088 153.805 8.48 151.645 8.48C149.469 8.48 147.901 7.088 147.901 5.088C147.901 3.072 149.469 1.696 151.645 1.696C153.805 1.696 155.389 3.072 155.389 5.088ZM149.437 11.104V10.032H158.765V15.184H157.453V11.104H149.437ZM160.845 4.112H158.765V6.096H160.845V7.168H158.765V9.36H157.453V0.848H158.765V3.024H160.845V4.112ZM174.54 5.552L174.044 6.608C171.852 6.24 169.74 5.104 168.828 3.456C167.932 5.104 165.82 6.24 163.628 6.608L163.132 5.552C165.676 5.2 168.156 3.6 168.156 1.696V1.056H169.5V1.696C169.5 3.6 171.98 5.2 174.54 5.552ZM163.788 11.568V10.496H173.724V15.2H172.412V11.568H163.788ZM169.484 8.032H175.372V9.104H162.348V8.032H168.172V5.84H169.484V8.032ZM184.555 8.88L183.243 8.752C183.643 6.368 183.675 4.624 183.675 3.472H177.707V2.4H184.955V3.184C184.955 4.336 184.955 6.208 184.555 8.88ZM181.259 6.496V10.88C182.827 10.816 184.427 10.72 185.883 10.544L185.963 11.504C182.987 11.984 179.611 12.048 177.067 12.048L176.923 10.96C177.835 10.96 178.891 10.944 179.963 10.912V6.496H181.259ZM190.363 6.832V7.936H188.075V15.184H186.763V0.832H188.075V6.832H190.363ZM197.236 2.224V10.448C199.3 10.448 201.428 10.272 203.748 9.808L203.908 10.896C201.46 11.392 199.268 11.552 197.076 11.552H195.94V2.224H197.236ZM208.708 6.56V7.648H206.404V15.184H205.092V0.832H206.404V6.56H208.708ZM221.586 4.752V5.808H211.842V1.088H213.154V4.752H221.586ZM220.162 13.92V11.184H213.026V13.92H220.162ZM223.074 8.384H217.202V10.144H221.442V14.976H211.746V10.144H215.906V8.384H210.082V7.312H223.074V8.384ZM229.457 1.888C231.697 1.888 233.297 3.248 233.297 5.264C233.297 7.264 231.697 8.64 229.457 8.64C227.233 8.64 225.617 7.264 225.617 5.264C225.617 3.248 227.233 1.888 229.457 1.888ZM229.457 3.008C227.985 3.008 226.897 3.92 226.897 5.264C226.897 6.592 227.985 7.52 229.457 7.52C230.945 7.52 232.017 6.592 232.017 5.264C232.017 3.92 230.945 3.008 229.457 3.008ZM235.185 0.832H236.497V15.216H235.185V0.832ZM225.057 12.064L224.897 10.96C227.505 10.96 231.105 10.944 234.241 10.464L234.353 11.44C231.121 12.032 227.649 12.064 225.057 12.064ZM243.866 2.368H250.426C250.426 6.448 248.554 10.144 243.914 12.464L243.194 11.44C246.858 9.6 248.826 6.848 249.13 3.456H243.866V2.368ZM256.442 6.656V7.744H254.138V15.184H252.826V0.832H254.138V6.656H256.442ZM263.097 4.368V5.472C263.097 7.872 264.729 10.208 266.857 11.136L266.137 12.16C264.489 11.408 263.129 9.856 262.473 7.968C261.833 9.968 260.473 11.6 258.825 12.4L258.089 11.408C260.217 10.4 261.801 7.984 261.801 5.472V4.368H258.473V3.312H261.785V1.088H263.113V3.312H266.377V4.368H263.097ZM268.249 0.815999H269.577V15.168H268.249V0.815999ZM282.584 3.344V2.176H274.168V1.248H283.88V4.24H275.496V5.472H284.136V6.416H274.2V3.344H282.584ZM275.416 12.72V14.048H284.376V14.992H274.12V11.808H282.632V10.608H274.088V9.664H283.928V12.72H275.416ZM272.536 7.504H285.544V8.496H272.536V7.504ZM2.704 26.328V33.48H6.72V26.328H2.704ZM1.424 34.536V25.272H8V34.536H1.424ZM14.256 29.56V30.664H11.888V38.184H10.576V23.848H11.888V29.56H14.256ZM22.0468 24.152C25.1508 24.152 27.0868 25.16 27.0868 26.872C27.0868 28.568 25.1508 29.576 22.0468 29.576C18.9427 29.576 17.0068 28.568 17.0068 26.872C17.0068 25.16 18.9427 24.152 22.0468 24.152ZM22.0468 25.192C19.7748 25.192 18.3508 25.816 18.3508 26.872C18.3508 27.928 19.7748 28.552 22.0468 28.552C24.3188 28.552 25.7428 27.928 25.7428 26.872C25.7428 25.816 24.3188 25.192 22.0468 25.192ZM17.1668 33.272H26.9588V37.992H17.1668V33.272ZM25.6788 34.312H18.4468V36.936H25.6788V34.312ZM15.5668 30.808H28.5428V31.864H15.5668V30.808ZM33.5335 33.816C34.6535 33.816 35.3895 32.36 35.3895 30.008C35.3895 27.704 34.6535 26.248 33.5335 26.248C32.3815 26.248 31.6615 27.704 31.6615 30.008C31.6615 32.36 32.3815 33.816 33.5335 33.816ZM38.3815 29.416V24.152H39.6295V37.48H38.3815V30.488H36.5735C36.4615 33.304 35.2935 35.032 33.5335 35.032C31.6615 35.032 30.4615 33.112 30.4615 30.008C30.4615 26.952 31.6615 25.032 33.5335 25.032C35.2615 25.032 36.4135 26.712 36.5735 29.416H38.3815ZM41.2295 23.832H42.4775V38.184H41.2295V23.832ZM52.8704 25.176V27.864C52.8704 30.2 53.9744 32.632 55.8784 33.688L55.0944 34.728C53.7344 33.928 52.7424 32.456 52.2304 30.744C51.7184 32.616 50.6624 34.232 49.2544 35.096L48.4224 34.104C50.4064 32.952 51.6064 30.392 51.6064 27.912V25.176H52.8704ZM59.5264 23.832H60.7744V38.184H59.5264V30.68H57.6224V37.464H56.3744V24.152H57.6224V29.608H59.5264V23.832ZM64.1491 25.384H70.8691C70.8691 29.528 68.9651 33.176 64.1971 35.512L63.4931 34.44C67.3491 32.6 69.2691 29.848 69.5411 26.44H64.1491V25.384ZM73.7651 23.832H75.0771V38.184H73.7651V23.832ZM85.1239 31.224H88.5319V28.344H85.1239V31.224ZM83.8279 33.512V26.28H79.8759V33.512H83.8279ZM88.5319 23.832H89.8439V38.216H88.5319V32.296H85.1239V34.552H78.5959V25.24H85.1239V27.272H88.5319V23.832ZM108.093 23.848V34.344H106.781V23.848H108.093ZM105.085 31.256L104.445 32.296C102.797 31.72 101.485 30.536 100.829 29.032C100.221 30.664 98.8928 31.96 97.1968 32.568L96.5088 31.544C98.6848 30.792 100.141 28.92 100.141 26.872V26.088H96.8608V25.032H104.733V26.088H101.485V26.872C101.485 28.808 102.973 30.552 105.085 31.256ZM100.173 36.792H108.525V37.864H98.8608V33.352H100.173V36.792ZM118.3 26.36V28.104C118.3 30.232 118.78 32.92 120.524 34.232L119.692 35.176C118.635 34.36 118.028 33.032 117.676 31.56C117.356 33.048 116.764 34.456 115.676 35.304C114.588 34.44 113.996 33.032 113.676 31.544C113.308 33 112.7 34.344 111.676 35.176L110.844 34.232C112.572 32.888 113.052 30.136 113.052 28.104V26.36H111.292V25.288H115.356V26.36H114.299V28.104C114.299 29.688 114.508 31.992 115.676 33.544C116.828 32.024 117.052 29.752 117.052 28.104V26.36H115.98V25.288H119.948V26.36H118.3ZM124.396 29.528V30.632H122.412V38.184H121.1V23.848H122.412V29.528H124.396ZM141.108 23.848V34.44H139.796V23.848H141.108ZM138.164 31.416L137.54 32.44C135.876 31.912 134.564 30.776 133.908 29.304C133.284 30.888 131.972 32.136 130.276 32.712L129.636 31.688C131.78 30.984 133.236 29.176 133.236 27.176V26.808H129.972V25.752H133.236V23.896H134.548V25.752H137.78V26.808H134.532V27.176C134.532 29.064 136.036 30.76 138.164 31.416ZM133.188 36.792H141.54V37.864H131.876V33.464H133.188V36.792ZM157.043 30.936V32.008H151.187V38.2H149.859V32.008H144.067V30.936H153.587C154.035 28.872 154.035 27.352 154.035 26.008V25.816H145.683V24.76H155.315V26.008C155.315 27.352 155.315 28.872 154.915 30.936H157.043ZM165.922 35.336H171.794V36.408H158.754V35.336H164.594V32.632H160.386V28.2H168.898V25.96H160.354V24.888H170.178V29.256H161.682V31.576H170.514V32.632H165.922V35.336ZM177.691 25.384H184.235C184.235 29.464 182.539 33.096 177.771 35.448L177.051 34.424C180.907 32.536 182.683 29.8 182.923 26.44H177.691V25.384ZM187.563 23.848H188.875V38.184H187.563V30.664H184.203V29.592H187.563V23.848ZM203.29 27.816V28.872H193.418V24.296H203.162V25.352H194.73V27.816H203.29ZM201.802 36.904V35.112H194.762V36.904H201.802ZM201.802 34.072V32.504H203.114V37.96H193.466V32.504H194.762V34.072H201.802ZM191.786 30.312H204.778V31.384H191.786V30.312ZM214.872 29.24L215.048 30.312C212.616 30.792 210.472 30.952 208.328 30.952H207.208V24.728H208.504V29.848C210.536 29.832 212.584 29.688 214.872 29.24ZM216.52 32.456V33.48C216.52 34.984 217.576 36.488 219.4 37.096L218.744 38.072C217.352 37.56 216.36 36.552 215.88 35.336C215.448 36.504 214.584 37.624 213.24 38.184C211.864 37.656 211.016 36.584 210.584 35.4C210.072 36.552 209.096 37.544 207.752 38.072L207.096 37.096C208.888 36.44 209.976 34.872 209.976 33.48V32.456H211.24V33.48C211.24 34.76 211.88 36.136 213.224 36.936C214.568 36.056 215.24 34.6 215.24 33.48V32.456H216.52ZM217.64 27.224H219.768V28.328H217.64V31.864H216.328V23.848H217.64V27.224ZM227.687 27.816H231.719V23.848H233.047V34.312H231.719V28.872H227.687V27.816ZM229.415 30.664L229.559 31.736C227.511 32.104 225.815 32.2 223.127 32.2H222.039V25.016H228.615V26.088H223.351V31.128C225.863 31.128 227.511 31.032 229.415 30.664ZM225.159 36.888H233.415V37.96H223.847V33.544H225.159V36.888ZM241.328 26.648V33.56C243.248 33.544 244.608 33.464 246.176 33.128L246.288 34.216C244.576 34.584 243.12 34.648 240.976 34.648H240.032V25.576H245.376V26.648H241.328ZM250.448 23.832H251.712V38.184H250.448V30.664H248.416V37.464H247.184V24.152H248.416V29.592H250.448V23.832ZM262.751 25.352V26.408H254.287V25.352H257.855V23.752H259.167V25.352H262.751ZM256.335 29.736C256.335 30.696 257.199 31.32 258.511 31.32C259.823 31.32 260.703 30.696 260.703 29.736C260.703 28.792 259.823 28.168 258.511 28.168C257.199 28.168 256.335 28.792 256.335 29.736ZM261.951 29.736C261.951 31.32 260.559 32.328 258.511 32.328C256.479 32.328 255.087 31.32 255.087 29.736C255.087 28.168 256.479 27.144 258.511 27.144C260.559 27.144 261.951 28.168 261.951 29.736ZM256.063 34.664V33.592H265.375V38.2H264.063V34.664H256.063ZM267.503 27.8V28.888H265.375V32.808H264.063V23.848H265.375V27.8H267.503ZM278.061 25.768V26.824H269.341V25.768H273.053V23.976H274.365V25.768H278.061ZM275.901 30.312C275.901 29.304 275.005 28.648 273.709 28.648C272.429 28.648 271.533 29.304 271.533 30.312C271.533 31.32 272.429 31.992 273.709 31.992C275.005 31.992 275.901 31.32 275.901 30.312ZM270.285 30.312C270.285 28.696 271.693 27.624 273.709 27.624C275.725 27.624 277.133 28.696 277.133 30.312C277.133 31.944 275.725 33 273.709 33C271.693 33 270.285 31.944 270.285 30.312ZM269.229 35.368L269.037 34.264C271.757 34.264 275.325 34.248 278.429 33.832L278.525 34.808C275.325 35.352 271.869 35.368 269.229 35.368ZM279.341 23.848H280.653V38.184H279.341V23.848ZM289.58 30.04V25.976H285.548V30.04H289.58ZM290.86 24.92V31.096H284.268V24.92H290.86ZM290.236 37.144C292.364 37.144 293.66 36.52 293.66 35.496C293.66 34.456 292.364 33.848 290.236 33.848C288.108 33.848 286.828 34.456 286.828 35.496C286.828 36.52 288.108 37.144 290.236 37.144ZM290.236 32.808C293.148 32.808 294.972 33.784 294.972 35.496C294.972 37.192 293.148 38.184 290.236 38.184C287.34 38.184 285.516 37.192 285.516 35.496C285.516 33.784 287.34 32.808 290.236 32.808ZM294.812 27.416H296.94V28.504H294.812V32.312H293.5V23.848H294.812V27.416ZM9.168 53.776L8.544 54.8C6.912 54.272 5.68 53.136 5.072 51.712C4.464 53.344 3.168 54.624 1.456 55.232L0.784 54.192C2.944 53.44 4.384 51.584 4.384 49.52V48.96H1.168V47.904H8.864V48.96H5.696V49.52C5.696 51.392 7.056 53.072 9.168 53.776ZM7.424 60.128C9.536 60.128 10.832 59.536 10.832 58.512C10.832 57.504 9.536 56.912 7.424 56.912C5.28 56.912 4 57.504 4 58.512C4 59.536 5.28 60.128 7.424 60.128ZM7.424 55.872C10.336 55.872 12.144 56.848 12.144 58.512C12.144 60.192 10.336 61.168 7.424 61.168C4.48 61.168 2.688 60.192 2.688 58.512C2.688 56.848 4.48 55.872 7.424 55.872ZM11.984 50.464H14.112V51.568H11.984V55.504H10.672V46.848H11.984V50.464ZM24.0788 48.352V49.408H15.6148V48.352H19.1828V46.752H20.4948V48.352H24.0788ZM17.6628 52.736C17.6628 53.696 18.5268 54.32 19.8388 54.32C21.1508 54.32 22.0308 53.696 22.0308 52.736C22.0308 51.792 21.1508 51.168 19.8388 51.168C18.5268 51.168 17.6628 51.792 17.6628 52.736ZM23.2788 52.736C23.2788 54.32 21.8868 55.328 19.8388 55.328C17.8068 55.328 16.4148 54.32 16.4148 52.736C16.4148 51.168 17.8068 50.144 19.8388 50.144C21.8868 50.144 23.2788 51.168 23.2788 52.736ZM17.3908 57.664V56.592H26.7028V61.2H25.3908V57.664H17.3908ZM28.8308 50.8V51.888H26.7028V55.808H25.3908V46.848H26.7028V50.8H28.8308ZM36.0076 53.28V56.64C38.3596 56.64 40.4716 56.528 42.9836 56.128L43.1116 57.2C40.5196 57.632 38.3436 57.728 35.8796 57.728H34.6956V52.224H39.9756V49.232H34.6476V48.16H41.3036V53.28H36.0076ZM44.3276 46.816H45.6396V61.2H44.3276V46.816ZM50.6144 49.28V56.56C53.1584 56.56 54.8384 56.464 56.7744 56.096L56.9344 57.184C54.8544 57.568 53.1264 57.664 50.4064 57.664H49.3024V48.192H55.8304V49.28H50.6144ZM59.0944 46.832H60.4064V61.216H59.0944V53.12H54.9824V52.032H59.0944V46.832ZM71.9891 53.104L71.3491 54.128C69.7011 53.568 68.3731 52.384 67.7171 50.848C67.0931 52.496 65.7651 53.792 64.0531 54.416L63.3811 53.376C65.5571 52.608 67.0451 50.72 67.0451 48.656V47.312H68.3571V48.656C68.3571 50.624 69.8611 52.416 71.9891 53.104ZM73.7811 59.936V58.032H67.1251V59.936H73.7811ZM73.7811 57.008V55.248H75.0771V60.992H65.8291V55.248H67.1251V57.008H73.7811ZM73.7651 46.848H75.0771V54.544H73.7651V46.848ZM78.8199 47.792H84.4039C84.4039 51.264 82.7399 53.968 78.8199 55.584L78.1799 54.608C80.2119 53.808 81.5559 52.704 82.3239 51.376L78.3559 51.792L78.1479 50.704L82.7719 50.416C82.9319 49.92 83.0439 49.408 83.0919 48.864H78.8199V47.792ZM81.9879 57.024V59.936H88.8359V57.024H81.9879ZM80.7079 60.992V55.968H90.1319V60.992H80.7079ZM88.8679 46.832H90.1319V55.28H88.8679V51.552H86.9799V55.184H85.7319V47.104H86.9799V50.48H88.8679V46.832ZM100.995 54.32V49.328H97.4266V54.32H100.995ZM96.1146 54.32V49.328H93.8906V48.272H104.531V49.328H102.307V54.32H104.499V55.392H93.9226V54.32H96.1146ZM92.7386 58.256H105.747V59.344H92.7386V58.256ZM119.1 50.656H121.516V46.848H122.844V57.776H121.516V54.736H119.1V53.664H121.516V51.728H119.1V50.656ZM119.1 48.592V49.648H111.068V48.592H114.492V46.816H115.804V48.592H119.1ZM113.132 53.168C113.132 54.192 113.948 54.896 115.132 54.896C116.316 54.896 117.132 54.192 117.132 53.168C117.132 52.16 116.316 51.472 115.132 51.472C113.948 51.472 113.132 52.16 113.132 53.168ZM118.38 53.168C118.38 54.816 117.036 55.92 115.132 55.92C113.228 55.92 111.884 54.816 111.884 53.168C111.884 51.536 113.228 50.448 115.132 50.448C117.036 50.448 118.38 51.536 118.38 53.168ZM114.94 59.792H123.18V60.864H113.628V56.848H114.94V59.792ZM134.074 53.776L133.45 54.8C131.818 54.272 130.586 53.136 129.978 51.712C129.37 53.344 128.074 54.624 126.362 55.232L125.69 54.192C127.85 53.44 129.29 51.584 129.29 49.52V48.96H126.074V47.904H133.77V48.96H130.602V49.52C130.602 51.392 131.962 53.072 134.074 53.776ZM132.33 60.128C134.442 60.128 135.738 59.536 135.738 58.512C135.738 57.504 134.442 56.912 132.33 56.912C130.186 56.912 128.906 57.504 128.906 58.512C128.906 59.536 130.186 60.128 132.33 60.128ZM132.33 55.872C135.242 55.872 137.05 56.848 137.05 58.512C137.05 60.192 135.242 61.168 132.33 61.168C129.386 61.168 127.594 60.192 127.594 58.512C127.594 56.848 129.386 55.872 132.33 55.872ZM136.89 50.464H139.018V51.568H136.89V55.504H135.578V46.848H136.89V50.464ZM146.953 47.728C149.929 47.728 152.169 49.312 152.169 51.696C152.169 54.096 149.929 55.664 146.953 55.664C143.977 55.664 141.737 54.096 141.737 51.696C141.737 49.312 143.977 47.728 146.953 47.728ZM146.953 48.8C144.697 48.8 142.985 49.968 142.985 51.696C142.985 53.44 144.697 54.592 146.953 54.592C149.225 54.592 150.921 53.44 150.921 51.696C150.921 49.968 149.225 48.8 146.953 48.8ZM140.457 58.192H153.497V59.28H140.457V58.192ZM162.344 58.336H168.216V59.408H155.176V58.336H161.016V55.632H156.808V51.2H165.32V48.96H156.776V47.888H166.6V52.256H158.104V54.576H166.936V55.632H162.344V58.336ZM175.217 49.344V56.4C175.905 56.368 176.689 56.304 177.537 56.112L177.681 57.2C176.465 57.472 175.473 57.488 174.545 57.488H173.921V48.288H177.457V49.344H175.217ZM179.537 49.344V56.4C180.689 56.384 181.649 56.32 182.705 56.064L182.833 57.152C181.537 57.456 180.465 57.488 178.961 57.488H178.241V48.288H182.129V49.344H179.537ZM184.145 46.848H185.457V61.168H184.145V53.152H181.409V52.08H184.145V46.848ZM190.079 48.224V56.448C192.143 56.448 194.271 56.272 196.591 55.808L196.751 56.896C194.303 57.392 192.111 57.552 189.919 57.552H188.783V48.224H190.079ZM201.551 52.56V53.648H199.247V61.184H197.935V46.832H199.247V52.56H201.551ZM205.758 51.488V54.128H213.086V51.488H205.758ZM210.078 58.272H215.934V59.344H202.926V58.272H208.75V55.184H204.462V47.856H205.758V50.416H213.086V47.856H214.366V55.184H210.078V58.272ZM222.477 49.392V51.216C222.477 53.504 224.109 56.048 226.189 57.024L225.437 58.08C223.837 57.28 222.493 55.6 221.837 53.68C221.181 55.776 219.789 57.6 218.173 58.432L217.405 57.392C219.453 56.368 221.181 53.648 221.181 51.216V49.392H217.901V48.304H225.661V49.392H222.477ZM231.053 52.624V53.728H228.685V61.184H227.373V46.848H228.685V52.624H231.053ZM233.74 60.208C233.164 60.208 232.684 59.76 232.684 59.104C232.684 58.432 233.164 57.968 233.74 57.968C234.316 57.968 234.796 58.432 234.796 59.104C234.796 59.76 234.316 60.208 233.74 60.208Z" fill="#1D1D1D"/>
</svg>
