<svg width="24" height="24" viewBox="0 0 24 24" fill="none" xmlns="http://www.w3.org/2000/svg">
<mask id="mask0_28_1161" style="mask-type:alpha" maskUnits="userSpaceOnUse" x="0" y="0" width="24" height="24">
<rect x="24" width="24" height="24" transform="rotate(90 24 0)" fill="#D9D9D9"/>
</mask>
<g mask="url(#mask0_28_1161)">
<path d="M12.0004 9.5502L4.65038 16.9002C4.40038 17.1502 4.10871 17.271 3.77538 17.2627C3.44204 17.2544 3.15038 17.1252 2.90038 16.8752C2.65038 16.6252 2.52538 16.3335 2.52538 16.0002C2.52538 15.6669 2.65038 15.3752 2.90038 15.1252L10.5754 7.42519C10.7754 7.22519 11.0004 7.07519 11.2504 6.97519C11.5004 6.87519 11.7504 6.82519 12.0004 6.82519C12.2504 6.82519 12.5004 6.87519 12.7504 6.97519C13.0004 7.07519 13.2254 7.22519 13.4254 7.42519L21.1254 15.1252C21.3754 15.3752 21.4962 15.671 21.4879 16.0127C21.4795 16.3544 21.3504 16.6502 21.1004 16.9002C20.8504 17.1502 20.5587 17.2752 20.2254 17.2752C19.892 17.2752 19.6004 17.1502 19.3504 16.9002L12.0004 9.5502Z" fill="white"/>
</g>
</svg>
