<svg width="20" height="20" viewBox="0 0 20 20" fill="none" xmlns="http://www.w3.org/2000/svg">
<path d="M10 10C8.625 10 7.44792 9.51045 6.46875 8.53128C5.48958 7.55212 5 6.37503 5 5.00003C5 3.62503 5.48958 2.44795 6.46875 1.46878C7.44792 0.489618 8.625 3.43323e-05 10 3.43323e-05C11.375 3.43323e-05 12.5521 0.489618 13.5312 1.46878C14.5104 2.44795 15 3.62503 15 5.00003C15 6.37503 14.5104 7.55212 13.5312 8.53128C12.5521 9.51045 11.375 10 10 10ZM0 17.5V16.5C0 15.7917 0.182292 15.1407 0.546875 14.5469C0.911458 13.9532 1.39583 13.5 2 13.1875C3.29167 12.5417 4.60417 12.0573 5.9375 11.7344C7.27083 11.4115 8.625 11.25 10 11.25C11.375 11.25 12.7292 11.4115 14.0625 11.7344C15.3958 12.0573 16.7083 12.5417 18 13.1875C18.6042 13.5 19.0885 13.9532 19.4531 14.5469C19.8177 15.1407 20 15.7917 20 16.5V17.5C20 18.1875 19.7552 18.7761 19.2656 19.2657C18.776 19.7552 18.1875 20 17.5 20H2.5C1.8125 20 1.22396 19.7552 0.734375 19.2657C0.244792 18.7761 0 18.1875 0 17.5ZM2.5 17.5H17.5V16.5C17.5 16.2709 17.4427 16.0625 17.3281 15.875C17.2135 15.6875 17.0625 15.5417 16.875 15.4375C15.75 14.875 14.6146 14.4532 13.4688 14.1719C12.3229 13.8907 11.1667 13.75 10 13.75C8.83333 13.75 7.67708 13.8907 6.53125 14.1719C5.38542 14.4532 4.25 14.875 3.125 15.4375C2.9375 15.5417 2.78646 15.6875 2.67188 15.875C2.55729 16.0625 2.5 16.2709 2.5 16.5V17.5ZM10 7.50003C10.6875 7.50003 11.276 7.25524 11.7656 6.76566C12.2552 6.27608 12.5 5.68753 12.5 5.00003C12.5 4.31253 12.2552 3.72399 11.7656 3.23441C11.276 2.74483 10.6875 2.50003 10 2.50003C9.3125 2.50003 8.72396 2.74483 8.23438 3.23441C7.74479 3.72399 7.5 4.31253 7.5 5.00003C7.5 5.68753 7.74479 6.27608 8.23438 6.76566C8.72396 7.25524 9.3125 7.50003 10 7.50003Z" fill="white"/>
</svg>
