<svg width="10" height="16" viewBox="0 0 10 16" fill="none" xmlns="http://www.w3.org/2000/svg">
<path d="M2.95952 8.12146L9.18918 14.14C9.40107 14.3447 9.50594 14.586 9.50379 14.8638C9.50163 15.1417 9.3982 15.3866 9.19349 15.5984C8.98878 15.8103 8.74755 15.9187 8.46982 15.9235C8.19208 15.9283 7.94726 15.8283 7.73537 15.6236L1.20941 9.33931C1.0399 9.17554 0.911686 8.99022 0.824774 8.78335C0.737862 8.57649 0.69261 8.3689 0.689019 8.1606C0.685428 7.9523 0.723498 7.74328 0.803227 7.53354C0.882957 7.3238 1.00471 7.13417 1.16848 6.96466L7.47359 0.438341C7.6783 0.226447 7.92305 0.121519 8.20785 0.123554C8.49265 0.12559 8.741 0.228964 8.95289 0.433675C9.16479 0.638386 9.27313 0.87961 9.27791 1.15735C9.2827 1.43508 9.18274 1.6799 8.97803 1.89179L2.95952 8.12146Z" fill="white"/>
</svg>
