<svg width="10" height="12" viewBox="0 0 10 12" fill="none" xmlns="http://www.w3.org/2000/svg">
<path d="M8.72949 5.29171C8.85449 5.37504 8.94824 5.47921 9.01074 5.60421C9.07324 5.72921 9.10449 5.86115 9.10449 6.00004C9.10449 6.13893 9.07324 6.27087 9.01074 6.39587C8.94824 6.52087 8.85449 6.62504 8.72949 6.70837L1.93783 11.0209C1.86838 11.0625 1.79546 11.0938 1.71908 11.1146C1.64269 11.1355 1.56977 11.1459 1.50033 11.1459C1.2781 11.1459 1.08366 11.066 0.916993 10.9063C0.750326 10.7466 0.666992 10.5487 0.666992 10.3125L0.666993 1.68754C0.666993 1.45143 0.750327 1.25351 0.916993 1.09379C1.08366 0.934068 1.2781 0.854207 1.50033 0.854207C1.56977 0.854207 1.64269 0.864624 1.71908 0.885457C1.79547 0.90629 1.86838 0.93754 1.93783 0.979207L8.72949 5.29171Z" fill="white"/>
</svg>
