<svg width="10" height="12" viewBox="0 0 10 12" fill="none" xmlns="http://www.w3.org/2000/svg">
<path d="M8.33333 11.8334C7.875 11.8334 7.48264 11.6702 7.15625 11.3438C6.82986 11.0174 6.66667 10.625 6.66667 10.1667V1.83335C6.66667 1.37502 6.82986 0.982659 7.15625 0.65627C7.48264 0.329881 7.875 0.166687 8.33333 0.166687C8.79167 0.166687 9.18403 0.329881 9.51042 0.65627C9.83681 0.982659 10 1.37502 10 1.83335V10.1667C10 10.625 9.83681 11.0174 9.51042 11.3438C9.18403 11.6702 8.79167 11.8334 8.33333 11.8334ZM1.66667 11.8334C1.20833 11.8334 0.815972 11.6702 0.489583 11.3438C0.163194 11.0174 0 10.625 0 10.1667V1.83335C0 1.37502 0.163194 0.982659 0.489583 0.65627C0.815972 0.329881 1.20833 0.166687 1.66667 0.166687C2.125 0.166687 2.51736 0.329881 2.84375 0.65627C3.17014 0.982659 3.33333 1.37502 3.33333 1.83335V10.1667C3.33333 10.625 3.17014 11.0174 2.84375 11.3438C2.51736 11.6702 2.125 11.8334 1.66667 11.8334Z" fill="white"/>
</svg>
