<svg width="9" height="9" viewBox="0 0 9 9" fill="none" xmlns="http://www.w3.org/2000/svg">
<path d="M3.875 5.125H0.75C0.572917 5.125 0.424479 5.0651 0.304687 4.94531C0.184896 4.82552 0.125 4.67708 0.125 4.5C0.125 4.32292 0.184896 4.17448 0.304687 4.05469C0.424479 3.9349 0.572917 3.875 0.75 3.875H3.875V0.75C3.875 0.572917 3.9349 0.424479 4.05469 0.304687C4.17448 0.184896 4.32292 0.125 4.5 0.125C4.67708 0.125 4.82552 0.184896 4.94531 0.304687C5.0651 0.424479 5.125 0.572917 5.125 0.75V3.875H8.25C8.42708 3.875 8.57552 3.9349 8.69531 4.05469C8.8151 4.17448 8.875 4.32292 8.875 4.5C8.875 4.67708 8.8151 4.82552 8.69531 4.94531C8.57552 5.0651 8.42708 5.125 8.25 5.125H5.125V8.25C5.125 8.42708 5.0651 8.57552 4.94531 8.69531C4.82552 8.8151 4.67708 8.875 4.5 8.875C4.32292 8.875 4.17448 8.8151 4.05469 8.69531C3.9349 8.57552 3.875 8.42708 3.875 8.25V5.125Z" fill="white"/>
</svg>
