<svg width="124" height="33" viewBox="0 0 124 33" fill="none" xmlns="http://www.w3.org/2000/svg">
<g clip-path="url(#clip0_1_164)">
<mask id="mask0_1_164" style="mask-type:luminance" maskUnits="userSpaceOnUse" x="0" y="0" width="124" height="33">
<path d="M123.5 0H0V32.297H123.5V0Z" fill="white"/>
</mask>
<g mask="url(#mask0_1_164)">
<path d="M61.558 16.924V20.386H57.039L58.002 21.106C60.459 23.232 61.073 26.056 58.773 28.606C54.297 33.576 40.727 33.548 36.407 28.364C33.968 25.438 35.485 22.27 38.284 20.382H33.523L33.379 20.238V16.92L61.558 16.924ZM46.245 21.28C44.057 21.439 39.309 22.707 40.611 25.798C41.711 28.398 47.005 28.719 49.389 28.463C51.542 28.232 55.989 26.976 54.776 23.945C53.746 21.377 48.544 21.112 46.245 21.28Z" fill="white"/>
<path d="M114.074 8.174H118.498V2.597H123.498V17.497H118.498V11.636H114.074C113.263 14.684 110.204 16.661 107.229 17.245C101.484 18.374 93.189 14.406 95.849 7.599C98.615 0.52 111.804 0.665998 114.074 8.174ZM104.629 5.798C104.057 5.80466 103.493 5.92952 102.971 6.16472C102.45 6.39992 101.983 6.74038 101.599 7.16473C101.216 7.58908 100.924 8.08815 100.743 8.63059C100.561 9.17303 100.494 9.74713 100.545 10.3168C100.596 10.8865 100.764 11.4395 101.039 11.9411C101.314 12.4427 101.69 12.882 102.143 13.2314C102.595 13.5809 103.116 13.8329 103.671 13.9717C104.225 14.1105 104.803 14.1331 105.367 14.038C110.92 13.538 110.33 5.492 104.629 5.798Z" fill="white"/>
<path d="M50.208 -0.000999451V2.885H61.173V6.25H57.614L58.594 7.722C59.776 10.294 58.316 12.503 56.163 13.886C53.018 15.906 48.222 16.286 44.597 15.753C39.837 15.053 33.516 11.631 37.797 6.253H34.238V2.885H45.108V-0.000999451H50.208ZM46.821 6.279C44.826 6.409 40.195 7.458 41.595 10.389C43.05 13.435 51.808 13.407 53.654 10.61C54.508 9.31 53.776 8.084 52.604 7.364C50.8185 6.4606 48.8126 6.08426 46.821 6.279Z" fill="white"/>
<path d="M104.455 19.04V21.54H118.498V19.04H123.498V30.291H100.366C100.044 30.291 99.4519 29.575 99.4519 29.281V19.04H104.455ZM118.498 25.002H104.455V26.829H118.498V25.002Z" fill="white"/>
<path d="M20.487 2.885V6.347H13.273C13.529 10.992 15.642 15.109 20.198 16.733L17.983 19.38C17.548 19.58 15.49 18.317 15.031 18.003C13.7174 17.0958 12.5588 15.9825 11.6 14.706L10.487 12.791C9.9048 14.1732 8.95467 15.3692 7.74 16.249C6.12813 17.6444 4.26858 18.7248 2.258 19.434L0 16.733C2.63204 15.7785 4.8712 13.9746 6.364 11.606C7.21183 9.97063 7.72934 8.18432 7.887 6.349H0.577V2.885H20.487Z" fill="white"/>
<path d="M66.078 6.347V2.981H80.458C80.6883 3.06368 80.914 3.15882 81.134 3.266C82.634 4.128 81.814 7.247 81.498 8.637C79.841 15.937 75.538 23.246 69.317 27.486L65.501 25.146C69.6135 22.0887 72.8658 18.02 74.942 13.335C75.8028 11.4262 76.408 9.41214 76.742 7.345C76.776 7.068 76.884 6.518 76.706 6.345L66.078 6.347Z" fill="white"/>
<path d="M90.798 2.404H85.796V30.386H90.798V2.404Z" fill="white"/>
<path d="M8.75301 21.059V27.216H27.893V30.678H4.85701C4.41801 30.678 3.65701 30.01 3.65701 29.572V21.062L8.75301 21.059Z" fill="white"/>
<path d="M27.893 2.404V22.022H22.94L22.796 21.878V2.404H27.893Z" fill="white"/>
</g>
</g>
<defs>
<clipPath id="clip0_1_164">
<rect width="123.5" height="32.297" fill="white"/>
</clipPath>
</defs>
</svg>
