<svg width="15" height="15" viewBox="0 0 15 15" fill="none" xmlns="http://www.w3.org/2000/svg">
<mask id="mask0_2101_95" style="mask-type:alpha" maskUnits="userSpaceOnUse" x="0" y="0" width="15" height="15">
<rect width="15" height="15" fill="#D9D9D9"/>
</mask>
<g mask="url(#mask0_2101_95)">
<path d="M6.875 8.125H3.75C3.57292 8.125 3.42448 8.0651 3.30469 7.94531C3.1849 7.82552 3.125 7.67708 3.125 7.5C3.125 7.32292 3.1849 7.17448 3.30469 7.05469C3.42448 6.9349 3.57292 6.875 3.75 6.875H6.875V3.75C6.875 3.57292 6.9349 3.42448 7.05469 3.30469C7.17448 3.1849 7.32292 3.125 7.5 3.125C7.67708 3.125 7.82552 3.1849 7.94531 3.30469C8.0651 3.42448 8.125 3.57292 8.125 3.75V6.875H11.25C11.4271 6.875 11.5755 6.9349 11.6953 7.05469C11.8151 7.17448 11.875 7.32292 11.875 7.5C11.875 7.67708 11.8151 7.82552 11.6953 7.94531C11.5755 8.0651 11.4271 8.125 11.25 8.125H8.125V11.25C8.125 11.4271 8.0651 11.5755 7.94531 11.6953C7.82552 11.8151 7.67708 11.875 7.5 11.875C7.32292 11.875 7.17448 11.8151 7.05469 11.6953C6.9349 11.5755 6.875 11.4271 6.875 11.25V8.125Z" fill="#004EA2"/>
</g>
</svg>
