<svg width="45" height="45" viewBox="0 0 45 45" fill="none" xmlns="http://www.w3.org/2000/svg">
<mask id="mask0_2101_119" style="mask-type:alpha" maskUnits="userSpaceOnUse" x="0" y="0" width="45" height="45">
<rect width="45" height="45" fill="#D9D9D9"/>
</mask>
<g mask="url(#mask0_2101_119)">
<path d="M22.464 36.31C20.952 35.1946 19.327 34.3328 17.589 33.7246C15.851 33.1165 14.0505 32.8124 12.1875 32.8124C11.0433 32.8124 9.91953 32.9392 8.81618 33.1928C7.71281 33.4464 6.64911 33.8196 5.62508 34.3124C4.95683 34.62 4.32101 34.5744 3.71764 34.1753C3.11429 33.7763 2.81262 33.2114 2.81262 32.4806V12.1587C2.81262 11.7548 2.91959 11.3816 3.13353 11.0391C3.34747 10.6965 3.64434 10.4471 4.02415 10.2908C5.29337 9.67306 6.61608 9.20973 7.99226 8.90086C9.36845 8.59195 10.7669 8.4375 12.1875 8.4375C14.0121 8.4375 15.7885 8.69592 17.5168 9.21277C19.2452 9.72961 20.9063 10.4568 22.5 11.3943V32.9278C24.0817 31.9278 25.7506 31.1898 27.5067 30.7139C29.2627 30.2379 31.0313 30 32.8125 30C33.8894 30 34.9069 30.0757 35.8648 30.2271C36.8227 30.3785 37.8125 30.6177 38.8341 30.9447C38.9664 30.9807 39.0896 30.9837 39.2037 30.9537C39.3179 30.9236 39.375 30.8244 39.375 30.6562V9.5986C39.6995 9.69475 40.0162 9.80172 40.3251 9.9195C40.634 10.0373 40.9351 10.1851 41.2283 10.363C41.548 10.5192 41.7878 10.7476 41.9477 11.0481C42.1075 11.3486 42.1875 11.6707 42.1875 12.0144V32.4445C42.1875 33.1753 41.8768 33.7372 41.2554 34.1303C40.634 34.5233 39.9711 34.572 39.2668 34.2763C38.2548 33.7955 37.2061 33.4313 36.1208 33.1838C35.0355 32.9362 33.9327 32.8124 32.8125 32.8124C30.9375 32.8124 29.119 33.1075 27.357 33.6976C25.595 34.2877 23.964 35.1585 22.464 36.31ZM26.25 28.125V11.25L35.625 1.875V19.6875L26.25 28.125ZM19.6876 31.5685V13.0961C18.5121 12.5144 17.2946 12.0613 16.0349 11.7368C14.7753 11.4122 13.4928 11.25 12.1875 11.25C11.0313 11.25 9.93332 11.3563 8.89367 11.5691C7.85401 11.7818 6.87865 12.0769 5.96759 12.4543C5.87143 12.4903 5.79031 12.5414 5.72422 12.6075C5.65809 12.6736 5.62503 12.7548 5.62503 12.8509V30.7211C5.62503 30.8894 5.68212 30.9885 5.79631 31.0186C5.9105 31.0486 6.0337 31.0396 6.16592 30.9915C7.09139 30.6574 8.04511 30.4086 9.02707 30.2452C10.009 30.0817 11.0625 30 12.1875 30C13.589 30 14.9279 30.1448 16.2044 30.4344C17.4809 30.7241 18.6419 31.1021 19.6876 31.5685Z" fill="white"/>
</g>
</svg>
