<svg width="45" height="45" viewBox="0 0 45 45" fill="none" xmlns="http://www.w3.org/2000/svg">
<mask id="mask0_2101_134" style="mask-type:alpha" maskUnits="userSpaceOnUse" x="0" y="0" width="45" height="45">
<rect width="45" height="45" fill="#D9D9D9"/>
</mask>
<g mask="url(#mask0_2101_134)">
<path d="M24.2344 20.719L16.9327 13.4173L18.9375 11.4595L24.2344 16.7563L34.875 6.1626L36.8329 8.12047L24.2344 20.719ZM25.9254 40.8535L12.2235 36.9448V39.5193H2.84863V21.5628H16.2764L27.7572 25.8032C28.6081 26.1181 29.3148 26.6752 29.8773 27.4744C30.4398 28.2737 30.7211 29.2118 30.7211 30.2887H35.4086C36.7548 30.2887 37.8545 30.7448 38.7079 31.6571C39.5612 32.5693 39.9879 33.7718 39.9879 35.2646V36.4545L25.9254 40.8535ZM5.66104 36.7069H9.41104V24.3752H5.66104V36.7069ZM25.8317 37.8896L37.024 34.4209C36.9663 34.005 36.7854 33.6811 36.4814 33.4491C36.1773 33.2171 35.8197 33.1011 35.4086 33.1011H26.5168C25.6082 33.1011 24.7512 33.0416 23.9459 32.9226C23.1406 32.8036 22.3389 32.6059 21.5409 32.3295L18.1081 31.1684L18.9879 28.4714L22.6298 29.6901C23.2283 29.9017 23.9146 30.0543 24.6887 30.1481C25.4627 30.2418 26.536 30.2887 27.9086 30.2887C27.9086 29.8248 27.8041 29.4245 27.5949 29.088C27.3858 28.7514 27.1106 28.5243 26.7692 28.4065L15.8004 24.3752H12.2235V34.0386L25.8317 37.8896Z" fill="white"/>
</g>
</svg>
