<svg width="45" height="45" viewBox="0 0 45 45" fill="none" xmlns="http://www.w3.org/2000/svg">
<mask id="mask0_2101_128" style="mask-type:alpha" maskUnits="userSpaceOnUse" x="0" y="0" width="45" height="45">
<rect width="45" height="45" fill="#D9D9D9"/>
</mask>
<g mask="url(#mask0_2101_128)">
<path d="M4.43518 38.5815V5.76904H22.2476V13.269H40.5649V38.5815H4.43518ZM7.24759 35.769H11.9351V31.0815H7.24759V35.769ZM7.24759 28.269H11.9351V23.5815H7.24759V28.269ZM7.24759 20.769H11.9351V16.0815H7.24759V20.769ZM7.24759 13.269H11.9351V8.58149H7.24759V13.269ZM14.7476 35.769H19.4351V31.0815H14.7476V35.769ZM14.7476 28.269H19.4351V23.5815H14.7476V28.269ZM14.7476 20.769H19.4351V16.0815H14.7476V20.769ZM14.7476 13.269H19.4351V8.58149H14.7476V13.269ZM22.2476 35.769H37.7524V16.0815H22.2476V20.769H26.3582V23.5815H22.2476V28.269H26.3582V31.0815H22.2476V35.769ZM30.4688 23.5815V20.769H33.2812V23.5815H30.4688ZM30.4688 31.0815V28.269H33.2812V31.0815H30.4688Z" fill="white"/>
</g>
</svg>
