<svg width="45" height="45" viewBox="0 0 45 45" fill="none" xmlns="http://www.w3.org/2000/svg">
<mask id="mask0_2101_125" style="mask-type:alpha" maskUnits="userSpaceOnUse" x="0" y="0" width="45" height="45">
<rect width="45" height="45" fill="#D9D9D9"/>
</mask>
<g mask="url(#mask0_2101_125)">
<path d="M30 15.5771V9.9521H15V15.5771H12.1876V7.13965H32.8125V15.5771H30ZM33.3894 23.077C33.9207 23.077 34.366 22.8973 34.7254 22.5379C35.0847 22.1786 35.2644 21.7333 35.2644 21.202C35.2644 20.6708 35.0847 20.2254 34.7254 19.8661C34.366 19.5067 33.9207 19.327 33.3894 19.327C32.8582 19.327 32.4129 19.5067 32.0535 19.8661C31.6941 20.2254 31.5144 20.6708 31.5144 21.202C31.5144 21.7333 31.6941 22.1786 32.0535 22.5379C32.4129 22.8973 32.8582 23.077 33.3894 23.077ZM30 35.6251V27.6203H15V35.6251H30ZM32.8125 38.4376H12.1876V30.9376H5.22852V20.2645C5.22852 18.9364 5.68223 17.8231 6.58967 16.9247C7.49711 16.0263 8.60586 15.5771 9.91592 15.5771H35.0841C36.4122 15.5771 37.5255 16.0263 38.4239 16.9247C39.3223 17.8231 39.7715 18.9364 39.7715 20.2645V30.9376H32.8125V38.4376ZM36.9591 28.1251V20.2645C36.9591 19.7333 36.7795 19.2879 36.4201 18.9286C36.0607 18.5692 35.6154 18.3895 35.0841 18.3895H9.91592C9.38467 18.3895 8.93936 18.5692 8.57998 18.9286C8.22061 19.2879 8.04092 19.7333 8.04092 20.2645V28.1251H12.1876V24.8078H32.8125V28.1251H36.9591Z" fill="white"/>
</g>
</svg>
