<svg width="45" height="45" viewBox="0 0 45 45" fill="none" xmlns="http://www.w3.org/2000/svg">
<mask id="mask0_2101_122" style="mask-type:alpha" maskUnits="userSpaceOnUse" x="0" y="0" width="45" height="45">
<rect width="45" height="45" fill="#D9D9D9"/>
</mask>
<g mask="url(#mask0_2101_122)">
<path d="M22.5 40.3124C20.0576 40.3124 17.753 39.8443 15.5859 38.9079C13.4189 37.9717 11.5288 36.697 9.91584 35.0841C8.30288 33.4711 7.02825 31.581 6.09197 29.414C5.15566 27.2469 4.6875 24.9423 4.6875 22.5C4.6875 20.0384 5.15566 17.7289 6.09197 15.5715C7.02825 13.4141 8.30288 11.5288 9.91584 9.91585C11.5288 8.30288 13.4189 7.02825 15.5859 6.09197C17.753 5.15566 20.0576 4.6875 22.5 4.6875C24.9615 4.6875 27.271 5.15566 29.4284 6.09197C31.5858 7.02825 33.4711 8.30288 35.0841 9.91585C36.697 11.5288 37.9717 13.4141 38.9079 15.5715C39.8443 17.7289 40.3124 20.0384 40.3124 22.5C40.3124 24.9423 39.8443 27.2469 38.9079 29.414C37.9717 31.581 36.697 33.4711 35.0841 35.0841C33.4711 36.697 31.5858 37.9717 29.4284 38.9079C27.271 39.8443 24.9615 40.3124 22.5 40.3124ZM22.5 37.4603C23.4567 36.1911 24.262 34.911 24.9158 33.6201C25.5697 32.3292 26.1021 30.9182 26.5132 29.3869H18.4867C18.9218 30.9663 19.4603 32.4014 20.1021 33.6923C20.7439 34.9831 21.5432 36.2391 22.5 37.4603ZM18.869 36.9447C18.1503 35.9134 17.5048 34.7409 16.9327 33.4272C16.3606 32.1135 15.9159 30.7667 15.5985 29.3869H9.23789C10.2283 31.3341 11.5564 32.9699 13.2223 34.2945C14.8882 35.619 16.7705 36.5024 18.869 36.9447ZM26.1309 36.9447C28.2295 36.5024 30.1117 35.619 31.7776 34.2945C33.4435 32.9699 34.7716 31.3341 35.762 29.3869H29.4014C29.024 30.7788 28.5492 32.1316 27.9771 33.4453C27.4049 34.759 26.7896 35.9255 26.1309 36.9447ZM8.05884 26.5745H15.0288C14.911 25.8774 14.8257 25.1941 14.7728 24.5246C14.72 23.8551 14.6935 23.1802 14.6935 22.5C14.6935 21.8197 14.72 21.1448 14.7728 20.4753C14.8257 19.8058 14.911 19.1225 15.0288 18.4254H8.05884C7.87856 19.0624 7.74034 19.7247 7.64419 20.4122C7.54803 21.0997 7.49995 21.7956 7.49995 22.5C7.49995 23.2043 7.54803 23.9002 7.64419 24.5877C7.74034 25.2752 7.87856 25.9375 8.05884 26.5745ZM17.8413 26.5745H27.1586C27.2764 25.8774 27.3618 25.2001 27.4147 24.5426C27.4675 23.8852 27.494 23.2043 27.494 22.5C27.494 21.7956 27.4675 21.1147 27.4147 20.4573C27.3618 19.7998 27.2764 19.1225 27.1586 18.4254H17.8413C17.7235 19.1225 17.6382 19.7998 17.5853 20.4573C17.5324 21.1147 17.5059 21.7956 17.5059 22.5C17.5059 23.2043 17.5324 23.8852 17.5853 24.5426C17.6382 25.2001 17.7235 25.8774 17.8413 26.5745ZM29.9711 26.5745H36.9411C37.1213 25.9375 37.2596 25.2752 37.3557 24.5877C37.4519 23.9002 37.5 23.2043 37.5 22.5C37.5 21.7956 37.4519 21.0997 37.3557 20.4122C37.2596 19.7247 37.1213 19.0624 36.9411 18.4254H29.9711C30.0889 19.1225 30.1742 19.8058 30.2271 20.4753C30.2799 21.1448 30.3064 21.8197 30.3064 22.5C30.3064 23.1802 30.2799 23.8551 30.2271 24.5246C30.1742 25.1941 30.0889 25.8774 29.9711 26.5745ZM29.4014 15.613H35.762C34.7596 13.6418 33.4405 12.006 31.8046 10.7055C30.1688 9.40498 28.2776 8.51556 26.1309 8.03719C26.8496 9.12853 27.4891 10.322 28.0492 11.6177C28.6093 12.9134 29.06 14.2452 29.4014 15.613ZM18.4867 15.613H26.5132C26.0781 14.0457 25.5306 12.6015 24.8708 11.2806C24.2109 9.9597 23.4206 8.71271 22.5 7.53961C21.5793 8.71271 20.789 9.9597 20.1292 11.2806C19.4693 12.6015 18.9218 14.0457 18.4867 15.613ZM9.23789 15.613H15.5985C15.9399 14.2452 16.3906 12.9134 16.9508 11.6177C17.5108 10.322 18.1503 9.12853 18.869 8.03719C16.7104 8.51556 14.8161 9.408 13.1863 10.7145C11.5565 12.021 10.2403 13.6538 9.23789 15.613Z" fill="white"/>
</g>
</svg>
