<svg width="45" height="45" viewBox="0 0 45 45" fill="none" xmlns="http://www.w3.org/2000/svg">
<mask id="mask0_2101_137" style="mask-type:alpha" maskUnits="userSpaceOnUse" x="0" y="0" width="45" height="45">
<rect width="45" height="45" fill="#D9D9D9"/>
</mask>
<g mask="url(#mask0_2101_137)">
<path d="M7.03137 38.4374V35.625H10.7814V6.5625H27.6562V8.4375H34.2187V35.625H37.9687V38.4374H31.4062V11.25H27.6562V38.4374H7.03137ZM21.0938 24.1586C21.553 24.1586 21.9442 23.9969 22.2675 23.6736C22.5908 23.3503 22.7524 22.9591 22.7524 22.5C22.7524 22.0408 22.5908 21.6496 22.2675 21.3263C21.9442 21.003 21.553 20.8413 21.0938 20.8413C20.6347 20.8413 20.2435 21.003 19.9202 21.3263C19.5968 21.6496 19.4352 22.0408 19.4352 22.5C19.4352 22.9591 19.5968 23.3503 19.9202 23.6736C20.2435 23.9969 20.6347 24.1586 21.0938 24.1586ZM13.5938 35.625H24.8438V9.37495H13.5938V35.625Z" fill="white"/>
</g>
</svg>
