<svg width="45" height="45" viewBox="0 0 45 45" fill="none" xmlns="http://www.w3.org/2000/svg">
<mask id="mask0_2101_131" style="mask-type:alpha" maskUnits="userSpaceOnUse" x="0" y="0" width="45" height="45">
<rect width="45" height="45" fill="#D9D9D9"/>
</mask>
<g mask="url(#mask0_2101_131)">
<path d="M12.1876 40.3124V32.7548C10.4063 31.1298 9.0235 29.2674 8.03912 27.1676C7.05475 25.0678 6.56256 22.8826 6.56256 20.6119C6.56256 16.1885 8.11205 12.4286 11.211 9.33216C14.31 6.23572 18.073 4.6875 22.5 4.6875C26.1418 4.6875 29.3984 5.77585 32.2698 7.95253C35.1412 10.1292 37.006 12.9531 37.8641 16.4243L40.0549 25.0766C40.1953 25.6112 40.0961 26.0967 39.7571 26.5329C39.4182 26.9693 38.9663 27.1874 38.4014 27.1874H34.6875V33.173C34.6875 34.1051 34.3556 34.903 33.6918 35.5667C33.028 36.2305 32.2301 36.5624 31.298 36.5624H27.1875V40.3124H24.375V33.75H31.298C31.4663 33.75 31.6045 33.6959 31.7127 33.5877C31.8209 33.4795 31.875 33.3413 31.875 33.173V24.375H36.9375L35.1563 17.1093C34.4375 14.2535 32.9002 11.938 30.5445 10.1628C28.1887 8.38758 25.5072 7.49995 22.5 7.49995C18.875 7.49995 15.7813 8.76733 13.2188 11.3021C10.6563 13.8368 9.37501 16.9192 9.37501 20.5493C9.37501 22.4212 9.75783 24.1995 10.5235 25.8842C11.2891 27.5689 12.375 29.0664 13.7813 30.3768L15 31.5V40.3124H12.1876ZM21.0397 27.7283H23.9603L24.1695 25.6911C24.5397 25.5973 24.8864 25.4609 25.2097 25.2818C25.5331 25.1027 25.8089 24.8809 26.0373 24.6165L27.869 25.4639L29.3293 22.9795L27.7067 21.7716C27.8413 21.3894 27.9086 21.0072 27.9086 20.625C27.9086 20.2427 27.8413 19.8605 27.7067 19.4783L29.3293 18.2704L27.869 15.7861L26.0373 16.6334C25.8089 16.369 25.5331 16.1472 25.2097 15.9681C24.8864 15.789 24.5397 15.6526 24.1695 15.5588L23.9603 13.5216H21.0397L20.8306 15.5588C20.4604 15.6526 20.1136 15.789 19.7903 15.9681C19.467 16.1472 19.1911 16.369 18.9627 16.6334L17.131 15.7861L15.6707 18.2704L17.2933 19.4783C17.1587 19.8605 17.0914 20.2427 17.0914 20.625C17.0914 21.0072 17.1587 21.3894 17.2933 21.7716L15.6707 22.9795L17.131 25.4639L18.9627 24.6165C19.1911 24.8809 19.467 25.1027 19.7903 25.2818C20.1136 25.4609 20.4604 25.5973 20.8306 25.6911L21.0397 27.7283ZM22.4989 23.78C21.6222 23.78 20.8774 23.4732 20.2644 22.8595C19.6514 22.2458 19.345 21.5006 19.345 20.6239C19.345 19.7472 19.6518 19.0023 20.2655 18.3893C20.8792 17.7764 21.6244 17.4699 22.5011 17.4699C23.3778 17.4699 24.1226 17.7767 24.7356 18.3904C25.3486 19.0041 25.6551 19.7493 25.6551 20.626C25.6551 21.5027 25.3482 22.2476 24.7345 22.8606C24.1209 23.4735 23.3757 23.78 22.4989 23.78Z" fill="white"/>
</g>
</svg>
