<svg width="146" height="51" viewBox="0 0 146 51" fill="none" xmlns="http://www.w3.org/2000/svg">
<path d="M15.2217 31.6484H2.69629V29.1992H15.2217V31.6484ZM18.541 38.6738H0.526367V36.2139H18.541V38.6738ZM16.4785 30.8105C16.4785 31.9564 16.4463 32.9697 16.3818 33.8506C16.3174 34.7314 16.1527 35.7305 15.8877 36.8477L12.7725 36.7832C12.9515 36.0384 13.084 35.333 13.1699 34.667C13.263 34.001 13.3203 33.4066 13.3418 32.8838C13.3704 32.361 13.3883 31.7308 13.3955 30.9932V30.8105V29.1992H16.4785V30.8105ZM16.3604 47.8584H2.61035V40.5752H16.3604V47.8584ZM5.65039 45.377H13.2881V42.9814H5.65039V45.377ZM36.7383 33.1631H20.2598V30.7031H36.7383V33.1631ZM37.5547 46.1504H19.54V43.6689H37.5547V46.1504ZM30.0137 44.6465H26.9521V41.1982H30.0137V44.6465ZM28.4883 33.8613C29.8633 33.8613 31.0628 34.0153 32.0869 34.3232C33.111 34.624 33.8988 35.068 34.4502 35.6553C35.0016 36.2425 35.2773 36.93 35.2773 37.7178C35.2773 38.5342 35.0016 39.236 34.4502 39.8232C33.8988 40.4033 33.111 40.8545 32.0869 41.1768C31.07 41.4919 29.8704 41.653 28.4883 41.6602C27.0918 41.653 25.8779 41.4919 24.8467 41.1768C23.8226 40.8545 23.0348 40.4033 22.4834 39.8232C21.932 39.236 21.6598 38.5342 21.667 37.7178C21.6598 36.9229 21.932 36.2354 22.4834 35.6553C23.0348 35.068 23.8226 34.624 24.8467 34.3232C25.8779 34.0153 27.0918 33.8613 28.4883 33.8613ZM28.4883 36.2568C27.6647 36.264 26.9844 36.3177 26.4473 36.418C25.9173 36.5182 25.5163 36.6758 25.2441 36.8906C24.9792 37.1055 24.8503 37.3812 24.8574 37.7178C24.8503 38.0687 24.9792 38.3516 25.2441 38.5664C25.5163 38.7741 25.9173 38.9316 26.4473 39.0391C26.9844 39.1393 27.6647 39.1895 28.4883 39.1895C29.2975 39.1895 29.9635 39.1393 30.4863 39.0391C31.0163 38.9316 31.4173 38.7741 31.6895 38.5664C31.9616 38.3516 32.0977 38.0687 32.0977 37.7178C32.0977 37.3883 31.9616 37.1162 31.6895 36.9014C31.4173 36.6794 31.0163 36.5182 30.4863 36.418C29.9635 36.3177 29.2975 36.264 28.4883 36.2568ZM30.0137 32.2393H26.9521V28.5117H30.0137V32.2393ZM56.5469 40.4248H38.5322V37.9756H56.5469V40.4248ZM49.3281 43.626H46.2773V39.5225H49.3281V43.626ZM54.2695 36.5684H40.7451V29.1777H54.2695V36.5684ZM43.7637 34.1729H51.2295V31.5625H43.7637V34.1729ZM54.5703 47.751H40.5732V45.2695H54.5703V47.751ZM43.667 46.0859H40.5732V41.9824H43.667V46.0859ZM65.1084 43.1748H62.0039V39.9629H65.1084V43.1748ZM73.4658 48.0518H70.3398V28.3291H73.4658V48.0518ZM75.8506 38.7812H72.3809V36.2461H75.8506V38.7812ZM57.3311 42.3906C59.8089 42.3906 62.0075 42.362 63.9268 42.3047C65.846 42.2474 67.6829 42.097 69.4375 41.8535L69.6416 44.0771C68.3597 44.3278 67.0277 44.514 65.6455 44.6357C64.2633 44.7503 62.9743 44.8219 61.7783 44.8506C60.5895 44.8792 59.2396 44.8936 57.7285 44.8936L57.3311 42.3906ZM69.3408 32.873H57.707V30.4668H69.3408V32.873ZM63.583 33.5391C64.5212 33.5391 65.3626 33.6966 66.1074 34.0117C66.8522 34.3268 67.4323 34.7673 67.8477 35.333C68.2702 35.8916 68.4814 36.5361 68.4814 37.2666C68.4814 37.9899 68.2702 38.6344 67.8477 39.2002C67.4323 39.7588 66.8522 40.1956 66.1074 40.5107C65.3626 40.8187 64.5212 40.9727 63.583 40.9727C62.6305 40.9727 61.7819 40.8187 61.0371 40.5107C60.2923 40.1956 59.7087 39.7588 59.2861 39.2002C58.8708 38.6344 58.6667 37.9899 58.6738 37.2666C58.6667 36.5361 58.8708 35.8916 59.2861 35.333C59.7087 34.7673 60.2923 34.3268 61.0371 34.0117C61.7819 33.6966 62.6305 33.5391 63.583 33.5391ZM63.583 35.8701C63.182 35.8773 62.8311 35.931 62.5303 36.0312C62.2367 36.1315 62.0075 36.2891 61.8428 36.5039C61.6852 36.7116 61.61 36.9658 61.6172 37.2666C61.61 37.5674 61.6852 37.8216 61.8428 38.0293C62.0075 38.2298 62.2367 38.3838 62.5303 38.4912C62.8239 38.5915 63.1748 38.6416 63.583 38.6416C63.9697 38.6416 64.3063 38.5915 64.5928 38.4912C64.8864 38.3838 65.112 38.2298 65.2695 38.0293C65.4342 37.8216 65.5166 37.5674 65.5166 37.2666C65.5166 36.9658 65.4342 36.7116 65.2695 36.5039C65.112 36.2891 64.8864 36.1315 64.5928 36.0312C64.3063 35.931 63.9697 35.8773 63.583 35.8701ZM65.1084 32.2822H62.0039V28.4688H65.1084V32.2822ZM93.8545 48.0518H90.9004V28.3291H93.8545V48.0518ZM91.8779 38.3193H88.709V35.8271H91.8779V38.3193ZM89.5469 47.1816H86.625V28.5977H89.5469V47.1816ZM82.3066 33.0557C82.3066 34.8174 82.1742 36.4215 81.9092 37.8682C81.6514 39.3076 81.2038 40.5931 80.5664 41.7246C79.929 42.8561 79.0732 43.7441 77.999 44.3887L76.0977 42.0146C77.0645 41.4561 77.8343 40.722 78.4072 39.8125C78.9801 38.8958 79.3848 37.8753 79.6211 36.751C79.8574 35.6266 79.972 34.3949 79.9648 33.0557V31.3799H82.3066V33.0557ZM82.9834 33.0557C82.9906 34.2874 83.1159 35.4261 83.3594 36.4717C83.6029 37.5101 84.0111 38.4518 84.584 39.2969C85.1641 40.1419 85.9375 40.8151 86.9043 41.3164L85.1318 43.6582C84.029 43.0781 83.141 42.2581 82.4678 41.1982C81.8018 40.1383 81.3255 38.9281 81.0391 37.5674C80.7598 36.2067 80.6201 34.7028 80.6201 33.0557V31.3799H82.9834V33.0557ZM85.7979 32.7441H76.8389V30.2842H85.7979V32.7441ZM111.289 42.6055H108.185V28.3613H111.289V42.6055ZM113.867 36.1064H110.387V33.5713H113.867V36.1064ZM97.9795 36.9551C100.25 36.9551 101.997 36.9157 103.222 36.8369C104.446 36.7581 105.621 36.6006 106.745 36.3643L107.078 38.8242C105.918 39.0677 104.69 39.2288 103.394 39.3076C102.104 39.3864 100.3 39.4258 97.9795 39.4258H96.293V36.9551H97.9795ZM105.22 32.3467H99.376V38.2764H96.293V29.8867H105.22V32.3467ZM111.934 47.751H98.3555V45.2695H111.934V47.751ZM101.46 46.5586H98.3555V41.0479H101.46V46.5586Z" fill="black"/>
<path d="M106 15.81C106 16.36 106.08 16.93 106.3 17.47C107.27 19.87 109.74 21.35 112.88 20.1C113.63 19.8 134.4 11.43 134.4 11.43C134.4 11.43 126.22 32.17 125.91 32.94C124.72 35.91 126.15 38.6 128.58 39.5C129.12 39.7 129.68 39.8 130.23 39.79C132.22 39.78 133.97 38.61 134.83 36.27C134.96 35.92 145.19 7.83 145.41 7.16C145.54 6.76 145.78 5.82 145.78 5.17C145.78 3.78 145.27 2.47 144.28 1.48C143.31 0.5 142.01 0 140.64 0C139.97 0 139.43 0.12 138.61 0.38C138.12 0.54 111.75 10.35 109.5 11.19C107.25 12.03 106 13.83 106.01 15.81" fill="#ED1C24"/>
</svg>
