<svg width="201" height="32" viewBox="0 0 201 32" fill="none" xmlns="http://www.w3.org/2000/svg">
<path d="M189.689 29.1247C188.565 29.1247 187.488 29.0215 186.457 28.8152C185.448 28.609 184.554 28.2193 183.775 27.6463C183.019 27.0503 182.411 26.2022 181.953 25.102C181.517 23.9789 181.299 22.512 181.299 20.7012C181.299 19.0738 181.517 17.6756 181.953 16.5066C182.388 15.3377 182.904 14.4094 183.5 13.7217C184.119 13.0341 184.68 12.6101 185.185 12.4496L185.013 11.7964H184.428C183.374 11.7964 182.537 11.464 181.918 10.7993C181.322 10.1117 181.013 9.18337 180.99 8.01439C180.967 6.86834 181.265 5.9515 181.884 5.26387C182.526 4.57624 183.374 4.23242 184.428 4.23242H196.771C199.224 4.23242 200.45 5.37847 200.45 7.67058C200.45 8.70202 200.152 9.52718 199.556 10.1461C198.96 10.7649 198.032 11.0744 196.771 11.0744H189.654C188.806 11.0744 188.382 11.5672 188.382 12.5528V15.1314C189.528 14.8792 190.72 14.5813 191.958 14.2375C193.218 13.8936 194.41 13.7217 195.533 13.7217C196.611 13.7217 197.413 13.9624 197.94 14.4437C198.49 14.9022 198.765 15.5325 198.765 16.3347C198.765 17.1599 198.49 17.8131 197.94 18.2945C197.413 18.7529 196.611 18.9936 195.533 19.0165C194.41 19.0394 193.218 18.879 191.958 18.5352C190.697 18.1913 189.494 17.8934 188.348 17.6412V22.1452C188.348 22.5807 188.462 22.8902 188.691 23.0735C188.944 23.234 189.333 23.1652 189.86 22.8672C191.007 22.2025 192.13 21.6753 193.23 21.2857C194.33 20.8731 195.407 20.6668 196.462 20.6668C197.952 20.6668 199.075 21.0565 199.831 21.8358C200.61 22.6151 201 23.6351 201 24.8957C201 26.2481 200.587 27.291 199.762 28.0245C198.96 28.7579 197.654 29.1247 195.843 29.1247H189.689Z" fill="white"/>
<path d="M175.95 29.1938C174.804 29.1938 173.899 28.85 173.234 28.1624C172.569 27.4518 172.214 26.535 172.168 25.4119C172.076 23.4636 171.584 22.0883 170.69 21.2861C169.819 20.4609 168.65 20.0483 167.183 20.0483H166.495V25.5494C166.495 26.7413 166.174 27.6467 165.533 28.2655C164.891 28.8844 164.043 29.1938 162.988 29.1938C161.865 29.1938 160.983 28.8844 160.341 28.2655C159.699 27.6467 159.378 26.7413 159.378 25.5494V20.7016C159.378 18.272 159.733 16.4268 160.444 15.1662C161.177 13.9055 162.106 13.0001 163.229 12.45L163.057 11.7968H162.507C161.453 11.7968 160.616 11.4644 159.997 10.7997C159.401 10.1121 159.08 9.18377 159.034 8.0148C159.011 6.86875 159.321 5.94044 159.963 5.22989C160.604 4.51934 161.453 4.16406 162.507 4.16406H171.274C173.727 4.16406 175.709 4.76001 177.222 5.9519C178.735 7.1438 179.491 9.04625 179.491 11.6592C179.491 13.0116 179.262 14.1462 178.804 15.063C178.345 15.9569 177.761 16.6446 177.05 17.1259C176.34 17.6073 175.595 17.8938 174.816 17.9855V18.4324C176.237 18.7762 177.406 19.5326 178.322 20.7016C179.262 21.8706 179.732 23.4407 179.732 25.4119C179.732 26.6725 179.388 27.6238 178.701 28.2655C178.036 28.8844 177.119 29.1938 175.95 29.1938ZM166.323 14.788C166.323 15.2922 166.415 15.6246 166.598 15.785C166.782 15.9455 167.126 16.0257 167.63 16.0257H170.862C171.824 16.0257 172.523 15.808 172.959 15.3725C173.394 14.937 173.612 14.3295 173.612 13.5502C173.612 12.748 173.394 12.1291 172.959 11.6936C172.523 11.2581 171.824 11.0404 170.862 11.0404H167.63C167.126 11.0404 166.782 11.1091 166.598 11.2467C166.415 11.3842 166.323 11.7165 166.323 12.2437V14.788Z" fill="white"/>
<path d="M137.951 29.1919C136.415 28.9627 135.418 28.2636 134.96 27.0946C134.501 25.9028 134.593 24.4014 135.235 22.5907L139.773 9.69757C140.186 8.50568 140.656 7.48569 141.183 6.63762C141.733 5.78954 142.409 5.13629 143.211 4.67786C144.037 4.21944 145.057 3.99023 146.271 3.99023C148.105 3.99023 149.48 4.4945 150.397 5.50302C151.337 6.51155 152.116 7.90973 152.735 9.69757L157.239 22.5907C157.881 24.4014 157.996 25.9028 157.583 27.0946C157.193 28.2636 156.219 28.9627 154.66 29.1919C153.4 29.3524 152.3 29.2034 151.36 28.745C150.443 28.2865 149.893 27.5416 149.71 26.5102C149.572 25.8225 149.549 25.2495 149.641 24.7911C149.755 24.3327 149.859 23.9659 149.95 23.6909C150.019 23.4617 150.019 23.2439 149.95 23.0376C149.904 22.8084 149.732 22.6938 149.435 22.6938H143.04C142.742 22.6938 142.558 22.8084 142.489 23.0376C142.444 23.2439 142.467 23.4617 142.558 23.6909C142.65 23.9659 142.742 24.3327 142.833 24.7911C142.925 25.2495 142.913 25.8225 142.799 26.5102C142.615 27.5416 142.077 28.2865 141.183 28.745C140.289 29.2034 139.212 29.3524 137.951 29.1919ZM148.781 17.8804L146.993 12.2762C146.948 12.047 146.867 11.8751 146.753 11.7605C146.661 11.6229 146.501 11.5542 146.271 11.5542C146.042 11.5542 145.87 11.6229 145.756 11.7605C145.664 11.8751 145.584 12.047 145.515 12.2762L143.762 17.8804H148.781Z" fill="white"/>
<path d="M124.229 29.2619C121.983 29.2619 119.955 28.8034 118.144 27.8866C116.356 26.9468 114.946 25.5601 113.915 23.7264C112.883 21.8927 112.368 19.635 112.368 16.9533C112.368 14.2715 112.883 11.9565 113.915 10.0082C114.969 8.0599 116.402 6.57003 118.213 5.53858C120.046 4.48421 122.132 3.95703 124.47 3.95703C127.175 3.95703 129.249 4.33523 130.693 5.09162C132.137 5.84802 132.859 6.97115 132.859 8.46102C132.859 9.60707 132.55 10.5583 131.931 11.3147C131.312 12.0482 130.464 12.4149 129.387 12.4149C128.47 12.4149 127.576 12.3003 126.705 12.0711C125.857 11.8189 124.86 11.6929 123.714 11.6929C122.247 11.6929 121.089 12.1169 120.241 12.965C119.393 13.8131 118.969 14.9248 118.969 16.3C118.969 17.6524 119.393 18.7869 120.241 19.7038C121.089 20.5977 122.247 21.0447 123.714 21.0447C124.493 21.0447 125.203 20.9874 125.845 20.8728C126.51 20.7352 127.152 20.5977 127.771 20.4602C128.412 20.3227 129.1 20.2539 129.834 20.2539C131.048 20.2539 131.942 20.655 132.515 21.4573C133.088 22.2366 133.375 23.2107 133.375 24.3797C133.375 25.5487 132.951 26.4999 132.103 27.2334C131.255 27.9439 130.131 28.4596 128.733 28.7805C127.358 29.1014 125.857 29.2619 124.229 29.2619Z" fill="white"/>
<path d="M94.0077 11.7964C92.8616 11.7964 91.9219 11.464 91.1884 10.7993C90.4778 10.1346 90.1226 9.21775 90.1226 8.04878C90.1226 6.90272 90.4435 5.98588 91.0852 5.29825C91.75 4.5877 92.7241 4.23242 94.0077 4.23242H108.826C110.11 4.23242 111.072 4.5877 111.714 5.29825C112.379 5.98588 112.711 6.90272 112.711 8.04878C112.711 9.21775 112.345 10.1346 111.611 10.7993C110.9 11.464 109.972 11.7964 108.826 11.7964C108.047 11.7964 107.416 11.7161 106.935 11.5557C106.477 11.3723 106.099 11.166 105.801 10.9368C105.503 10.6847 105.216 10.4784 104.941 10.318C104.666 10.1346 104.322 10.0429 103.91 10.0429L103.6 10.6618C103.692 10.8681 103.852 11.166 104.081 11.5557C104.311 11.9224 104.528 12.4611 104.735 13.1716C104.941 13.8593 105.044 14.799 105.044 15.9909V25.9272C105.044 26.867 104.689 27.6463 103.978 28.2651C103.291 28.884 102.443 29.1934 101.434 29.1934C100.403 29.1934 99.5316 28.884 98.8211 28.2651C98.1335 27.6463 97.7896 26.867 97.7896 25.9272V15.9909C97.7896 14.799 97.8928 13.8593 98.0991 13.1716C98.3054 12.4611 98.5231 11.9224 98.7523 11.5557C99.0045 11.166 99.1764 10.8681 99.2681 10.6618L98.9242 10.0429C98.5117 10.0429 98.1678 10.1346 97.8928 10.318C97.6177 10.4784 97.3312 10.6847 97.0333 10.9368C96.7353 11.166 96.3571 11.3723 95.8987 11.5557C95.4402 11.7161 94.8099 11.7964 94.0077 11.7964Z" fill="white"/>
<path d="M78.1832 29.1247C77.06 29.1247 75.9827 29.0215 74.9513 28.8152C73.9428 28.609 73.0488 28.2193 72.2695 27.6463C71.5131 27.0503 70.9057 26.2022 70.4473 25.102C70.0118 23.9789 69.7941 22.512 69.7941 20.7012C69.7941 19.0738 70.0118 17.6756 70.4473 16.5066C70.8828 15.3377 71.3985 14.4094 71.9945 13.7217C72.6133 13.0341 73.1749 12.6101 73.6792 12.4496L73.5073 11.7964H72.9228C71.8684 11.7964 71.0318 11.464 70.4129 10.7993C69.817 10.1117 69.5075 9.18337 69.4846 8.01439C69.4617 6.86834 69.7597 5.9515 70.3785 5.26387C71.0203 4.57624 71.8684 4.23242 72.9228 4.23242H85.2658C87.7183 4.23242 88.9446 5.37847 88.9446 7.67058C88.9446 8.70202 88.6466 9.52718 88.0507 10.1461C87.4547 10.7649 86.5264 11.0744 85.2658 11.0744H78.1488C77.3007 11.0744 76.8767 11.5672 76.8767 12.5528V15.1314C78.0227 14.8792 79.2146 14.5813 80.4523 14.2375C81.713 13.8936 82.9049 13.7217 84.028 13.7217C85.1053 13.7217 85.9076 13.9624 86.4347 14.4437C86.9848 14.9022 87.2599 15.5325 87.2599 16.3347C87.2599 17.1599 86.9848 17.8131 86.4347 18.2945C85.9076 18.7529 85.1053 18.9936 84.028 19.0165C82.9049 19.0394 81.713 18.879 80.4523 18.5352C79.1917 18.1913 77.9883 17.8934 76.8423 17.6412V22.1452C76.8423 22.5807 76.9569 22.8902 77.1861 23.0735C77.4382 23.234 77.8279 23.1652 78.3551 22.8672C79.5011 22.2025 80.6243 21.6753 81.7245 21.2857C82.8247 20.8731 83.902 20.6668 84.9563 20.6668C86.4462 20.6668 87.5693 21.0565 88.3257 21.8358C89.105 22.6151 89.4947 23.6351 89.4947 24.8957C89.4947 26.2481 89.0821 27.291 88.257 28.0245C87.4547 28.7579 86.1482 29.1247 84.3375 29.1247H78.1832Z" fill="white"/>
<path fill-rule="evenodd" clip-rule="evenodd" d="M55.2885 25.5494V21.2517H60.0331C61.4772 21.2517 62.818 20.9996 64.0558 20.4953C65.2935 19.991 66.2906 19.12 67.047 17.8823C67.8034 16.6446 68.1816 14.9484 68.1816 12.7938C68.1816 9.8141 67.4481 7.6366 65.9812 6.26134C64.5371 4.86315 62.6576 4.16406 60.3426 4.16406H51.3002C50.2459 4.16406 49.3978 4.51934 48.756 5.22989C48.1371 5.94044 47.8391 6.86875 47.8621 8.0148L48.1715 20.7016V25.5494C48.1715 26.7413 48.4924 27.6467 49.1342 28.2655C49.7989 28.8844 50.6928 29.1938 51.8159 29.1938H51.8503C52.8818 29.1938 53.7069 28.8844 54.3258 28.2655C54.9676 27.6467 55.2885 26.7413 55.2885 25.5494ZM54.8415 14.6161C54.8415 15.1204 54.9332 15.4527 55.1166 15.6132C55.3229 15.7736 55.6781 15.8538 56.1824 15.8538H59.3799C60.3426 15.8538 61.0417 15.6361 61.4772 15.2006C61.9127 14.7422 62.1304 14.1004 62.1304 13.2752C62.1304 12.4501 61.9127 11.8197 61.4772 11.3842C61.0417 10.9487 60.3426 10.731 59.3799 10.731H56.1824C55.6781 10.731 55.3229 10.7997 55.1166 10.9373C54.9332 11.0748 54.8415 11.4071 54.8415 11.9343V14.6161Z" fill="white"/>
<path d="M17.7668 15.6576C16.6666 16.4828 13.2972 19.2104 11.7501 20.4711C6.62179 24.5969 9.34335 28.8945 11.7501 30.2698C14.1568 31.6451 17.3074 29.0476 18.6264 28.3788C19.3941 27.9895 20.4256 27.9895 21.3769 28.8946C22.2124 29.6894 23.6117 30.9574 26.1903 30.9574C28.7689 30.9574 31.1756 29.0665 31.0037 25.6283C30.8318 22.1901 23.7836 16.6891 22.4083 15.6576C21.0331 14.6262 19.1421 14.6262 17.7668 15.6576Z" fill="white"/>
<path d="M11.0624 15.6576C11.475 18.2706 9.51526 19.9553 8.48381 20.4711C7.68158 20.6429 5.76767 20.3678 4.52993 17.8924C2.98276 14.798 3.49849 12.2195 5.38947 9.98469C7.28046 7.74988 10.5467 12.3914 11.0624 15.6576Z" fill="white"/>
<path d="M18.6264 7.06218C18.6264 9.53766 18.0533 11.4172 17.7668 12.0475C15.3601 15.3137 11.0624 12.5633 11.0624 9.12516C11.0624 5.68701 11.7501 4.31166 14.3287 1.73304C16.9073 -0.845577 18.6264 3.96784 18.6264 7.06218Z" fill="white"/>
<path d="M25.3308 1.73304C22.9928 0.220183 21.7207 2.93642 21.3769 4.48365L21.205 8.78135C21.0904 10.1566 21.4801 13.0447 23.9555 13.5948C27.0499 14.2824 27.7375 13.079 28.9409 9.98469C30.1442 6.89033 28.2532 3.62411 25.3308 1.73304Z" fill="white"/>
<path d="M36.3329 12.0475C35.5077 10.1221 33.4678 11.2452 32.5509 12.0475C31.0611 13.2509 28.2532 16.2421 28.9409 18.5801C29.8004 21.5025 33.2385 21.6744 35.3014 19.4396C37.3643 17.2048 37.3643 14.4543 36.3329 12.0475Z" fill="white"/>
<path d="M35.9891 26.3159C36.0464 26.8317 35.714 27.9662 33.9262 28.3788C34.843 28.6653 36.5392 28.6539 35.9891 26.3159Z" fill="white"/>
<path d="M37.7082 26.3159C38.1666 27.4047 38.327 29.7197 35.3014 30.2698C36.6767 30.2125 39.0834 29.3415 37.7082 26.3159Z" fill="white"/>
<path d="M1.60748 3.4522C0.507273 4.27736 1.14906 6.20267 1.60748 7.06218C1.60748 3.76148 3.55578 3.28024 4.52993 3.4522C4.0142 3.10839 2.70769 2.62705 1.60748 3.4522Z" fill="white"/>
<path d="M3.32657 7.7499C2.98276 6.94766 2.914 5.30881 5.38947 5.17128C4.70184 5.28589 3.32657 5.96207 3.32657 7.7499Z" fill="white"/>
<path d="M17.7668 15.6576C16.6666 16.4828 13.2972 19.2104 11.7501 20.4711C6.62179 24.5969 9.34335 28.8945 11.7501 30.2698C14.1568 31.6451 17.3074 29.0476 18.6264 28.3788C19.3941 27.9895 20.4256 27.9895 21.3769 28.8946C22.2124 29.6894 23.6117 30.9574 26.1903 30.9574C28.7689 30.9574 31.1756 29.0665 31.0037 25.6283C30.8318 22.1901 23.7836 16.6891 22.4083 15.6576C21.0331 14.6262 19.1421 14.6262 17.7668 15.6576Z" stroke="white"/>
<path d="M11.0624 15.6576C11.475 18.2706 9.51526 19.9553 8.48381 20.4711C7.68158 20.6429 5.76767 20.3678 4.52993 17.8924C2.98276 14.798 3.49849 12.2195 5.38947 9.98469C7.28046 7.74988 10.5467 12.3914 11.0624 15.6576Z" stroke="white"/>
<path d="M18.6264 7.06218C18.6264 9.53766 18.0533 11.4172 17.7668 12.0475C15.3601 15.3137 11.0624 12.5633 11.0624 9.12516C11.0624 5.68701 11.7501 4.31166 14.3287 1.73304C16.9073 -0.845577 18.6264 3.96784 18.6264 7.06218Z" stroke="white"/>
<path d="M25.3308 1.73304C22.9928 0.220183 21.7207 2.93642 21.3769 4.48365L21.205 8.78135C21.0904 10.1566 21.4801 13.0447 23.9555 13.5948C27.0499 14.2824 27.7375 13.079 28.9409 9.98469C30.1442 6.89033 28.2532 3.62411 25.3308 1.73304Z" stroke="white"/>
<path d="M36.3329 12.0475C35.5077 10.1221 33.4678 11.2452 32.5509 12.0475C31.0611 13.2509 28.2532 16.2421 28.9409 18.5801C29.8004 21.5025 33.2385 21.6744 35.3014 19.4396C37.3643 17.2048 37.3643 14.4543 36.3329 12.0475Z" stroke="white"/>
<path d="M35.9891 26.3159C36.0464 26.8317 35.714 27.9662 33.9262 28.3788C34.843 28.6653 36.5392 28.6539 35.9891 26.3159Z" stroke="white"/>
<path d="M37.7082 26.3159C38.1666 27.4047 38.327 29.7197 35.3014 30.2698C36.6767 30.2125 39.0834 29.3415 37.7082 26.3159Z" stroke="white"/>
<path d="M1.60748 3.4522C0.507273 4.27736 1.14906 6.20267 1.60748 7.06218C1.60748 3.76148 3.55578 3.28024 4.52993 3.4522C4.0142 3.10839 2.70769 2.62705 1.60748 3.4522Z" stroke="white"/>
<path d="M3.32657 7.7499C2.98276 6.94766 2.914 5.30881 5.38947 5.17128C4.70184 5.28589 3.32657 5.96207 3.32657 7.7499Z" stroke="white"/>
</svg>
