<svg width="188" height="29" viewBox="0 0 188 29" fill="none" xmlns="http://www.w3.org/2000/svg">
<g clip-path="url(#clip0_33_39)">
<path d="M187.842 14.7057L182.334 14.6372V18.2879C182.334 22.9841 181.492 26.4291 181.088 27.4575C180.825 27.7489 180.211 27.9203 179.843 27.8174C179.615 26.9947 179.141 24.4409 179.141 20.1904V3.77073C179.141 3.08515 177.159 1.66257 176.422 1.43976C176.229 1.3712 176.861 0.651345 177.054 0.651345C178.562 0.651345 182.527 1.5426 182.439 2.22818C182.369 2.69094 182.334 3.23941 182.334 3.83929V13.2317L186.509 11.6206C186.877 11.4835 188.526 14.7057 187.86 14.7057M176.405 16.4882C176.983 17.2766 175.422 20.6188 174.861 19.8304C174.054 18.7164 171.844 15.4256 169.861 13.2317C167.212 16.8482 163.915 19.7619 160.95 21.3044C160.581 21.2701 160.143 20.7388 160.143 20.4132C163.809 17.2252 167.949 11.6378 169.686 6.54733C169.791 6.25595 168.546 5.3647 168.002 5.03905C167.826 4.93621 168.581 4.38775 168.774 4.38775C169.774 4.38775 172.545 5.50182 173.212 5.96458C173.58 6.22168 173.615 6.39307 173.44 6.82156C172.703 8.68976 171.721 10.4723 170.616 12.1177C173.107 13.7973 175.861 15.7341 176.405 16.4882ZM158.599 15.0142L153.056 14.9114V18.2879C153.056 22.9841 152.284 26.4291 151.845 27.4575C151.582 27.7489 150.968 27.9203 150.635 27.8174C150.372 26.9947 149.933 24.4409 149.933 20.1904V3.77073C149.933 3.08515 147.951 1.73113 147.214 1.43976C147.039 1.3712 147.653 0.651345 147.846 0.651345C149.354 0.651345 153.231 1.5426 153.161 2.22818C153.126 2.69094 153.056 3.23941 153.056 3.83929V13.5231L157.248 11.9463C157.652 11.7749 159.301 14.9971 158.599 14.9971M140.583 16.6253C142.127 16.6253 143.267 15.5798 143.267 13.9687C143.267 12.3576 142.197 11.2778 140.583 11.2778C138.969 11.2778 137.899 12.3576 137.899 13.9687C137.899 15.5798 138.969 16.6253 140.583 16.6253ZM135.338 2.9309C135.303 2.79378 135.479 2.34815 135.672 2.36529C136.777 2.57097 137.899 2.7595 139.303 2.9309L142.724 3.29082C143.022 3.3251 144.337 5.09047 143.46 5.09047H138.285C137.408 5.09047 135.391 3.22227 135.321 2.9309M131.9 6.92439C131.865 6.82156 132.075 6.46163 132.163 6.49591C132.742 6.70158 134.794 6.753 136.742 6.71872L143.741 6.65016C145.758 6.61588 146.355 5.63893 146.671 5.63893C147.004 5.63893 148.284 7.37002 148.284 8.17558C148.284 8.31269 148.144 8.39839 147.916 8.39839C147.583 8.39839 145.636 8.29555 144.092 8.29555L136.566 8.32983C135.356 8.32983 134.549 8.58692 134.18 8.91257C133.233 8.65548 132.058 7.26718 131.935 6.90726M148.618 20.3617C145.6 21.7158 139.811 22.5042 135.847 22.9841C134.777 23.1212 134.128 23.3097 133.496 23.6697C132.479 23.4126 131.005 21.9557 130.865 21.4073C130.9 21.2359 131.04 21.0816 131.128 20.9788C132.233 20.9788 133.847 21.013 135.794 20.9102C137.005 20.8417 138.145 20.7731 139.18 20.6874L138.987 17.8594C136.426 17.4309 134.847 15.9569 134.847 13.9173C134.847 11.6892 136.829 10.1809 139.952 10.0095C139.987 9.87238 140.022 9.78669 140.022 9.64957C140.022 9.39248 139.952 9.08397 139.583 8.82688C139.583 8.20986 141.601 8.82688 141.601 9.15253C141.601 9.28964 141.425 9.68385 141.338 10.0095C144.39 10.2152 146.32 11.7234 146.32 13.9173C146.32 15.9569 144.671 17.4309 142.145 17.8594L142.004 20.4132C145.197 20.0532 147.355 19.5562 148.793 19.0934C149.091 18.9906 148.969 20.1732 148.6 20.3446M110.393 4.37061L110.358 9.85525H118.182L118.375 4.37061H110.376H110.393ZM105.323 3.15371C105.288 2.98231 105.762 2.43385 105.99 2.43385C106.569 2.43385 108.569 2.50241 109.884 2.72522H117.34C118.287 2.72522 118.778 2.58811 119.147 2.26246C119.55 2.12534 122.164 2.51955 122.111 2.94804L121.006 9.54673C121.48 9.97522 122.111 10.8322 122.111 11.295C122.111 11.4321 121.971 11.5178 121.743 11.5178C121.41 11.5178 120.164 11.4835 118.287 11.4835H110.025C109.814 11.8434 109.551 12.1691 109.253 12.5119C108.955 12.8032 108.411 12.9404 108.007 12.8375C107.674 12.0491 107.393 10.5408 107.165 7.81565L106.867 4.40489C106.832 4.07924 105.885 3.35938 105.323 3.15371ZM123.936 26.4634C123.936 26.6005 123.831 26.6862 123.567 26.6862H120.112L109.832 26.7205C106.972 26.7205 106.411 25.7607 106.411 23.8925V21.0987C106.411 20.6017 105.341 19.7447 104.727 19.659C104.534 19.6247 105.201 18.8021 105.464 18.8021C106.639 18.8021 108.393 19.0591 109.27 19.3848C109.446 19.4534 109.709 19.5562 109.639 19.9161C109.569 20.3446 109.569 20.9616 109.569 21.493V23.9268C109.569 24.938 109.937 25.0751 110.849 25.0751L119.48 25.0408C121.304 25.0408 121.901 24.0467 122.129 24.0467C122.603 24.0467 123.936 25.6921 123.936 26.4463M127.199 15.8369C127.199 16.0083 127.058 16.094 126.83 16.094H116.182V17.9965C116.182 19.9333 115.445 21.6129 114.937 22.3671C114.673 22.6584 114.095 22.7956 113.726 22.6927C113.428 21.8015 112.989 20.6188 112.989 18.4593V16.094H105.832C104.622 16.094 103.815 16.4197 103.446 16.7453C102.499 16.4882 100.587 15.0314 100.587 14.7057C100.587 14.5686 100.762 14.2087 100.85 14.243C101.429 14.4486 103.482 14.4658 105.429 14.4658L121.901 14.4315C123.988 14.4315 124.69 13.2831 124.953 13.2831C125.322 13.2831 127.199 15.0314 127.199 15.8198M80.2732 7.52428C80.2732 9.63243 81.6766 11.0379 83.7992 11.0379C85.9218 11.0379 87.5357 9.63243 87.5357 7.52428C87.5357 5.41612 86.027 4.01068 83.8343 4.01068C81.6415 4.01068 80.2732 5.43326 80.2732 7.52428ZM77.0805 7.62711C77.0805 4.67912 79.5013 2.70808 83.2378 2.50241C83.2729 2.39957 83.308 2.31387 83.308 2.21104C83.308 1.91967 83.2378 1.59402 82.7993 1.28551C82.7993 0.634206 85.0447 1.28551 85.0447 1.64543C85.0447 1.78255 84.8692 2.17676 84.7815 2.50241C88.3426 2.7595 90.6933 4.73054 90.6933 7.62711C90.6933 10.6779 87.9742 12.6833 83.9044 12.6833C79.8346 12.6833 77.0805 10.6779 77.0805 7.62711ZM97.1839 16.5911C97.1839 16.7282 97.0435 16.8139 96.8155 16.8139H89.5179V18.3907C89.5179 22.8298 88.711 26.2749 88.2724 27.2861C88.0093 27.5775 87.3953 27.7146 87.062 27.646C86.7989 26.8233 86.3252 24.2695 86.3252 20.2932V16.8139L81.1854 16.8482V17.8422C81.1854 22.2471 80.3784 25.6921 79.975 26.7034C79.7118 26.9947 79.0979 27.1318 78.7295 27.0633C78.5014 26.2406 78.0278 23.6868 78.0278 19.7447V16.8482H75.8175C74.607 16.8482 73.8001 17.1738 73.4317 17.4995C72.4844 17.2424 70.5723 15.7855 70.5723 15.4256C70.5723 15.3227 70.7478 14.9628 70.8355 14.9971C71.4144 15.1856 73.4668 15.2199 75.414 15.2199L91.8861 15.1513C93.9737 15.1513 94.6753 14.003 94.9385 14.003C95.3069 14.003 97.1839 15.7684 97.1839 16.5568M50.5216 6.20454C50.5216 8.00418 51.9074 9.28964 53.9774 9.28964C56.0474 9.28964 57.4332 8.00418 57.4332 6.20454C57.4332 4.40489 56.0474 3.18799 53.9774 3.18799C51.9074 3.18799 50.5216 4.43917 50.5216 6.20454ZM47.3289 6.34165C47.3289 3.75359 49.6445 1.86825 53.2406 1.64543C53.2757 1.47404 53.3459 1.35406 53.3459 1.18267C53.3459 0.891298 53.2406 0.582787 52.8371 0.291416C52.8371 -0.394163 55.0825 0.291416 55.0825 0.617066C55.0825 0.82274 54.8545 1.26837 54.7142 1.6283C58.2752 1.85111 60.661 3.73645 60.661 6.32451C60.661 9.04969 57.9419 10.9865 53.9774 10.9865C50.0128 10.9865 47.3289 9.04969 47.3289 6.32451M63.2572 26.9947C63.2572 27.1661 63.1169 27.2175 62.8888 27.2175H49.8199C47.5745 27.2175 46.7851 26.4634 46.7324 24.7495L46.6623 22.5556C46.6623 22.2299 45.7852 21.8015 45.2238 21.5615C45.1887 21.3901 45.6975 20.8417 45.9606 20.8417C46.5921 20.8417 48.9954 20.9788 49.855 21.2701H58.3629L58.398 18.6135H49.8901C48.8551 18.6135 48.1709 18.8706 47.8025 19.2134C46.5921 19.042 45.6097 17.4995 45.5922 17.2766C45.5571 17.1052 45.7325 16.7796 45.8904 16.8139C46.9605 17.0024 48.3112 17.0024 50.2584 17.0024H57.2227C58.17 17.0024 58.6612 16.8996 59.0295 16.5396C59.433 16.5054 62.117 16.7967 62.0293 17.2252L61.1872 21.0987C61.8188 21.5615 62.2222 22.3499 62.2222 22.5385C62.2222 22.7099 62.117 22.8298 61.9591 22.8298C61.6609 22.8298 59.7488 22.7956 58.1875 22.7956H49.855V24.2353C49.855 25.3493 50.1883 25.5721 51.6969 25.5721H59.0646C61.1522 25.5721 61.4504 24.7152 61.6784 24.7152C62.1521 24.7152 63.2572 26.2577 63.2572 26.9433M67.099 14.2944C67.099 14.4315 66.9586 14.5172 66.7306 14.5172H61.9942L45.7501 14.5515C44.5748 14.5515 43.7678 14.8771 43.3994 15.1685C42.4171 14.9114 40.6804 13.4888 40.54 13.1289C40.505 13.026 40.7155 12.6661 40.8032 12.7004C41.3821 12.9061 43.417 12.9404 45.3817 12.9404L61.8188 12.8718C63.8712 12.8718 64.5729 11.7234 64.8711 11.7234C65.2395 11.7234 67.0814 13.4888 67.0814 14.2772M29.9796 14.2258C29.9796 14.5172 29.7516 14.5172 28.9446 14.7571C28.6113 14.86 28.4359 15.3742 28.1728 16.1969C27.5939 17.9279 25.7519 20.7217 21.9277 20.7217C18.1035 20.7217 16.0862 17.5337 15.9458 17.3623C15.7529 17.1052 15.4371 16.8653 15.174 16.8653C14.9986 16.8653 14.8758 16.9339 14.7705 17.0024C13.3847 17.9279 11.8761 18.9734 11.8761 21.373C11.8761 22.9498 13.2268 24.7495 15.5073 24.7495C17.4545 24.7495 18.7351 22.9498 19.1385 21.6986C19.2789 21.2701 19.2438 21.0987 19.4718 21.0987C19.7701 21.0987 19.8753 21.75 20.2788 21.75C20.6121 21.75 20.5068 21.5786 20.9454 21.5786C21.3489 21.5786 21.4541 22.11 21.7874 22.11C22.261 22.11 22.8926 21.7158 23.2083 21.7158C23.3136 21.7158 23.4715 21.7158 23.4715 21.8186C23.4715 21.99 23.1732 22.1443 22.8926 22.3842C22.3137 22.8812 21.8927 23.1726 21.4541 23.8925C19.9104 26.4463 18.1211 26.909 17.2089 27.1833C16.8756 27.2861 16.5423 27.4404 16.4019 27.7489C15.8932 28.8629 15.595 29 15.4547 29C15.2792 29 15.2266 28.8115 15.1915 28.383C15.1564 27.9203 14.8933 27.3889 13.9811 27.2347C11.6655 26.8062 8.80616 24.5095 8.80616 20.8931C8.80616 17.6366 11.3322 16.3682 12.6128 15.1171C12.7882 14.9457 12.911 14.7571 12.911 14.4658V14.3629C12.911 14.2087 12.876 14.003 12.6654 13.7459C11.3849 12.1691 10.42 11.1236 8.66582 11.1236C6.75372 11.1236 5.06967 12.6661 5.06967 14.8943C5.06967 17.2938 6.28008 18.1165 7.49049 18.4078C7.89397 18.5107 8.0343 18.545 8.0343 18.6649C8.0343 18.922 7.77117 18.8706 7.77117 19.2648C7.77117 19.5562 7.99922 19.5219 7.99922 19.9847C7.99922 20.3103 7.701 20.4132 7.701 20.9102C7.701 21.3044 7.89397 21.4415 7.89397 21.6643C7.89397 21.9557 8.06939 21.9214 8.06939 22.5556C8.06939 22.727 8.13956 22.847 7.99922 22.847C7.85888 22.847 7.701 22.6242 7.49049 22.3156C7.01685 21.6301 6.50813 21.2016 6.13974 20.9273C3.21019 18.8535 3.10494 17.9451 2.36816 16.5225C2.19274 16.1969 2.14012 15.6312 1.78927 15.477C0.719195 14.9457 -0.0175781 14.7914 -0.0175781 13.9344C-0.0175781 13.5402 0.456062 13.9344 1.19284 13.9344C1.59631 13.9344 2.06995 14.003 2.298 13.1803C2.80672 11.4321 4.91179 8.63834 8.6132 8.63834C12.5427 8.63834 14.4898 11.8263 14.6302 11.9977C14.8933 12.3576 15.1389 12.4947 15.402 12.4947C15.5775 12.4947 15.7003 12.4947 15.9985 12.2376C18.4895 10.0781 18.6824 9.11825 18.6824 7.86707C18.6824 6.29023 17.4019 4.45631 15.1214 4.45631C12.8409 4.45631 11.7533 6.22168 11.455 7.54142C11.3498 7.9699 11.2796 8.19272 11.0867 8.19272C10.7884 8.19272 10.7884 7.79851 10.4551 7.79851C9.91132 7.79851 9.85869 8.02132 9.57802 8.02132C9.20963 8.02132 9.20963 7.37002 8.66582 7.37002C8.52549 7.37002 8.22727 7.54142 8.0343 7.54142C7.52558 7.54142 7.49049 7.64425 7.26244 7.64425C6.99931 7.64425 6.71864 7.50714 6.71864 7.3186C6.71864 7.13007 6.89406 6.99295 7.42033 6.73586C8.12201 6.37593 8.77108 6.11884 9.10438 5.38184C10.1394 3.11943 12.4374 2.39957 13.3145 2.07392C13.6478 1.93681 13.8232 1.81683 13.9811 1.50832C14.6828 0.257137 14.9986 0.120021 15.1915 0.120021C15.3845 0.120021 15.367 0.445671 15.4547 0.839879C15.5599 1.30265 15.5599 1.66257 16.3318 1.85111C18.5246 2.41671 21.7348 4.38775 21.7348 7.98704C21.7348 11.5863 18.1035 13.8659 17.9281 14.003C17.5246 14.2944 17.3843 14.5343 17.3843 14.7571C17.3843 14.9285 17.4896 15.1171 17.5948 15.3227C18.4719 17.0367 19.9806 18.1508 21.7348 18.1508C23.8223 18.1508 25.4362 16.2483 25.4362 14.2772C25.4362 12.3062 24.0854 11.1236 22.9101 10.7636C22.4716 10.6265 22.2786 10.6265 22.2786 10.4037C22.2786 10.1466 22.5768 10.2323 22.5768 9.83811C22.5768 9.54673 22.4365 9.61529 22.4365 9.15253C22.4365 8.82688 22.8399 8.72404 22.8399 8.22699C22.8399 7.83279 22.647 7.69567 22.647 7.47286C22.647 7.18149 22.5417 7.21577 22.5417 6.5816C22.5417 6.41021 22.4716 6.29023 22.6119 6.29023C22.7873 6.29023 22.9452 6.51305 23.1557 6.82156C23.6293 7.50714 23.9977 8.03846 24.3661 8.26127C27.015 9.90666 27.5939 10.9522 28.2079 12.4262C28.3482 12.7518 28.471 13.3174 28.8745 13.5402C29.2078 13.7459 29.9445 13.9687 29.9445 14.2258" fill="white"/>
</g>
<defs>
<clipPath id="clip0_33_39">
<rect width="188" height="29" fill="white"/>
</clipPath>
</defs>
</svg>
