<svg width="188" height="29" viewBox="0 0 188 29" fill="none" xmlns="http://www.w3.org/2000/svg">
<g clip-path="url(#clip0_28_1327)">
<path d="M187.842 14.7057L182.334 14.6371V18.2878C182.334 22.984 181.492 26.4291 181.088 27.4574C180.825 27.7488 180.211 27.9202 179.843 27.8174C179.615 26.9947 179.141 24.4409 179.141 20.1903V3.77067C179.141 3.08509 177.159 1.66251 176.422 1.4397C176.229 1.37114 176.861 0.651284 177.054 0.651284C178.562 0.651284 182.527 1.54254 182.439 2.22812C182.369 2.69088 182.334 3.23935 182.334 3.83923V13.2317L186.509 11.6206C186.877 11.4834 188.526 14.7057 187.86 14.7057M176.405 16.4882C176.983 17.2766 175.422 20.6188 174.861 19.8304C174.054 18.7163 171.844 15.4255 169.861 13.2317C167.212 16.8481 163.915 19.7618 160.95 21.3044C160.581 21.2701 160.143 20.7388 160.143 20.4131C163.809 17.2252 167.949 11.6377 169.686 6.54726C169.791 6.25589 168.546 5.36464 168.002 5.03899C167.826 4.93615 168.581 4.38769 168.774 4.38769C169.774 4.38769 172.545 5.50176 173.212 5.96452C173.58 6.22161 173.615 6.39301 173.44 6.8215C172.703 8.6897 171.721 10.4722 170.616 12.1176C173.107 13.7973 175.861 15.734 176.405 16.4882ZM158.599 15.0142L153.056 14.9113V18.2878C153.056 22.984 152.284 26.4291 151.845 27.4574C151.582 27.7488 150.968 27.9202 150.635 27.8174C150.372 26.9947 149.933 24.4409 149.933 20.1903V3.77067C149.933 3.08509 147.951 1.73107 147.214 1.4397C147.039 1.37114 147.653 0.651284 147.846 0.651284C149.354 0.651284 153.231 1.54254 153.161 2.22812C153.126 2.69088 153.056 3.23935 153.056 3.83923V13.523L157.248 11.9462C157.652 11.7748 159.301 14.997 158.599 14.997M140.583 16.6253C142.127 16.6253 143.267 15.5798 143.267 13.9687C143.267 12.3575 142.197 11.2778 140.583 11.2778C138.969 11.2778 137.899 12.3575 137.899 13.9687C137.899 15.5798 138.969 16.6253 140.583 16.6253ZM135.338 2.93083C135.303 2.79372 135.479 2.34809 135.672 2.36523C136.777 2.57091 137.899 2.75944 139.303 2.93083L142.723 3.29076C143.022 3.32504 144.337 5.09041 143.46 5.09041H138.285C137.408 5.09041 135.391 3.22221 135.321 2.93083M131.9 6.92433C131.865 6.8215 132.075 6.46157 132.163 6.49585C132.742 6.70152 134.794 6.75294 136.742 6.71866L143.741 6.6501C145.758 6.61582 146.355 5.63887 146.671 5.63887C147.004 5.63887 148.284 7.36996 148.284 8.17552C148.284 8.31263 148.144 8.39833 147.916 8.39833C147.583 8.39833 145.636 8.29549 144.092 8.29549L136.566 8.32977C135.356 8.32977 134.549 8.58686 134.18 8.91251C133.233 8.65542 132.058 7.26712 131.935 6.90719M148.618 20.3617C145.6 21.7157 139.811 22.5041 135.847 22.984C134.777 23.1211 134.128 23.3097 133.496 23.6696C132.479 23.4125 131.005 21.9557 130.865 21.4072C130.9 21.2358 131.04 21.0815 131.128 20.9787C132.233 20.9787 133.847 21.013 135.794 20.9101C137.005 20.8416 138.145 20.773 139.18 20.6873L138.987 17.8593C136.426 17.4308 134.847 15.9568 134.847 13.9172C134.847 11.6891 136.829 10.1808 139.952 10.0094C139.987 9.87232 140.022 9.78663 140.022 9.64951C140.022 9.39242 139.952 9.08391 139.583 8.82682C139.583 8.20979 141.601 8.82682 141.601 9.15247C141.601 9.28958 141.425 9.68379 141.338 10.0094C144.39 10.2151 146.32 11.7234 146.32 13.9172C146.32 15.9568 144.671 17.4308 142.145 17.8593L142.004 20.4131C145.197 20.0532 147.355 19.5561 148.793 19.0934C149.091 18.9905 148.969 20.1732 148.6 20.3445M110.393 4.37055L110.358 9.85518H118.182L118.375 4.37055H110.376H110.393ZM105.323 3.15365C105.288 2.98225 105.762 2.43379 105.99 2.43379C106.569 2.43379 108.569 2.50235 109.884 2.72516H117.34C118.287 2.72516 118.778 2.58805 119.147 2.2624C119.55 2.12528 122.164 2.51949 122.111 2.94797L121.006 9.54667C121.48 9.97516 122.111 10.8321 122.111 11.2949C122.111 11.432 121.971 11.5177 121.743 11.5177C121.41 11.5177 120.164 11.4834 118.287 11.4834H110.025C109.814 11.8434 109.551 12.169 109.253 12.5118C108.955 12.8032 108.411 12.9403 108.007 12.8375C107.674 12.049 107.393 10.5408 107.165 7.81559L106.867 4.40483C106.832 4.07918 105.885 3.35932 105.323 3.15365ZM123.936 26.4633C123.936 26.6005 123.831 26.6862 123.567 26.6862H120.112L109.832 26.7204C106.972 26.7204 106.411 25.7606 106.411 23.8924V21.0987C106.411 20.6016 105.341 19.7447 104.727 19.659C104.534 19.6247 105.201 18.802 105.464 18.802C106.639 18.802 108.393 19.0591 109.27 19.3847C109.446 19.4533 109.709 19.5561 109.639 19.9161C109.569 20.3445 109.569 20.9616 109.569 21.4929V23.9267C109.569 24.9379 109.937 25.075 110.849 25.075L119.48 25.0408C121.304 25.0408 121.901 24.0467 122.129 24.0467C122.603 24.0467 123.936 25.6921 123.936 26.4462M127.199 15.8369C127.199 16.0083 127.058 16.094 126.83 16.094H116.182V17.9964C116.182 19.9332 115.445 21.6129 114.937 22.367C114.673 22.6584 114.095 22.7955 113.726 22.6927C113.428 21.8014 112.989 20.6188 112.989 18.4592V16.094H105.832C104.622 16.094 103.815 16.4196 103.446 16.7453C102.499 16.4882 100.587 15.0313 100.587 14.7057C100.587 14.5685 100.762 14.2086 100.85 14.2429C101.429 14.4486 103.482 14.4657 105.429 14.4657L121.901 14.4314C123.988 14.4314 124.69 13.2831 124.953 13.2831C125.322 13.2831 127.199 15.0313 127.199 15.8197M80.2732 7.52421C80.2732 9.63237 81.6766 11.0378 83.7992 11.0378C85.9218 11.0378 87.5357 9.63237 87.5357 7.52421C87.5357 5.41606 86.027 4.01062 83.8343 4.01062C81.6415 4.01062 80.2732 5.4332 80.2732 7.52421ZM77.0805 7.62705C77.0805 4.67906 79.5013 2.70802 83.2378 2.50235C83.2729 2.39951 83.308 2.31381 83.308 2.21098C83.308 1.91961 83.2378 1.59396 82.7993 1.28544C82.7993 0.634145 85.0447 1.28544 85.0447 1.64537C85.0447 1.78249 84.8692 2.1767 84.7815 2.50235C88.3426 2.75944 90.6933 4.73048 90.6933 7.62705C90.6933 10.6779 87.9742 12.6832 83.9044 12.6832C79.8346 12.6832 77.0805 10.6779 77.0805 7.62705ZM97.1839 16.591C97.1839 16.7281 97.0435 16.8138 96.8155 16.8138H89.5179V18.3906C89.5179 22.8298 88.711 26.2748 88.2724 27.286C88.0093 27.5774 87.3953 27.7145 87.062 27.646C86.7989 26.8233 86.3252 24.2695 86.3252 20.2931V16.8138L81.1854 16.8481V17.8422C81.1854 22.247 80.3784 25.6921 79.975 26.7033C79.7118 26.9947 79.0978 27.1318 78.7295 27.0632C78.5014 26.2405 78.0278 23.6867 78.0278 19.7447V16.8481H75.8175C74.607 16.8481 73.8001 17.1737 73.4317 17.4994C72.4844 17.2423 70.5723 15.7854 70.5723 15.4255C70.5723 15.3227 70.7477 14.9627 70.8355 14.997C71.4144 15.1856 73.4668 15.2198 75.414 15.2198L91.8861 15.1513C93.9737 15.1513 94.6753 14.0029 94.9385 14.0029C95.3069 14.0029 97.1839 15.7683 97.1839 16.5567M50.5216 6.20447C50.5216 8.00412 51.9074 9.28958 53.9774 9.28958C56.0474 9.28958 57.4332 8.00412 57.4332 6.20447C57.4332 4.40483 56.0474 3.18793 53.9774 3.18793C51.9074 3.18793 50.5216 4.43911 50.5216 6.20447ZM47.3289 6.34159C47.3289 3.75353 49.6445 1.86819 53.2406 1.64537C53.2757 1.47398 53.3459 1.354 53.3459 1.18261C53.3459 0.891237 53.2406 0.582726 52.8371 0.291355C52.8371 -0.394224 55.0825 0.291355 55.0825 0.617005C55.0825 0.822679 54.8545 1.26831 54.7142 1.62823C58.2752 1.85105 60.661 3.73639 60.661 6.32445C60.661 9.04963 57.9419 10.9864 53.9774 10.9864C50.0128 10.9864 47.3289 9.04963 47.3289 6.32445M63.2572 26.9947C63.2572 27.1661 63.1169 27.2175 62.8888 27.2175H49.8199C47.5745 27.2175 46.7851 26.4633 46.7324 24.7494L46.6623 22.5555C46.6623 22.2299 45.7852 21.8014 45.2238 21.5614C45.1887 21.3901 45.6975 20.8416 45.9606 20.8416C46.5921 20.8416 48.9954 20.9787 49.855 21.2701H58.3629L58.398 18.6135H49.89C48.8551 18.6135 48.1709 18.8706 47.8025 19.2133C46.5921 19.0419 45.6097 17.4994 45.5922 17.2766C45.5571 17.1052 45.7325 16.7795 45.8904 16.8138C46.9605 17.0023 48.3112 17.0023 50.2584 17.0023H57.2227C58.17 17.0023 58.6612 16.8995 59.0295 16.5396C59.433 16.5053 62.117 16.7967 62.0293 17.2252L61.1872 21.0987C61.8188 21.5614 62.2222 22.3499 62.2222 22.5384C62.2222 22.7098 62.117 22.8298 61.9591 22.8298C61.6609 22.8298 59.7488 22.7955 58.1875 22.7955H49.855V24.2352C49.855 25.3493 50.1883 25.5721 51.6969 25.5721H59.0646C61.1521 25.5721 61.4504 24.7151 61.6784 24.7151C62.1521 24.7151 63.2572 26.2577 63.2572 26.9432M67.099 14.2943C67.099 14.4314 66.9586 14.5171 66.7306 14.5171H61.9942L45.7501 14.5514C44.5748 14.5514 43.7678 14.8771 43.3994 15.1684C42.4171 14.9113 40.6804 13.4888 40.54 13.1288C40.505 13.026 40.7155 12.6661 40.8032 12.7003C41.3821 12.906 43.417 12.9403 45.3817 12.9403L61.8188 12.8717C63.8712 12.8717 64.5729 11.7234 64.8711 11.7234C65.2395 11.7234 67.0814 13.4888 67.0814 14.2772M29.9796 14.2258C29.9796 14.5171 29.7516 14.5171 28.9446 14.7571C28.6113 14.8599 28.4359 15.3741 28.1728 16.1968C27.5939 17.9279 25.7519 20.7216 21.9277 20.7216C18.1035 20.7216 16.0862 17.5337 15.9458 17.3623C15.7529 17.1052 15.4371 16.8652 15.174 16.8652C14.9986 16.8652 14.8758 16.9338 14.7705 17.0023C13.3847 17.9279 11.876 18.9734 11.876 21.3729C11.876 22.9497 13.2268 24.7494 15.5073 24.7494C17.4545 24.7494 18.7351 22.9497 19.1385 21.6986C19.2789 21.2701 19.2438 21.0987 19.4718 21.0987C19.7701 21.0987 19.8753 21.75 20.2788 21.75C20.6121 21.75 20.5068 21.5786 20.9454 21.5786C21.3489 21.5786 21.4541 22.1099 21.7874 22.1099C22.261 22.1099 22.8926 21.7157 23.2083 21.7157C23.3136 21.7157 23.4715 21.7157 23.4715 21.8185C23.4715 21.9899 23.1732 22.1442 22.8926 22.3841C22.3137 22.8812 21.8927 23.1726 21.4541 23.8924C19.9104 26.4462 18.1211 26.909 17.2089 27.1832C16.8756 27.286 16.5423 27.4403 16.4019 27.7488C15.8932 28.8629 15.595 29 15.4547 29C15.2792 29 15.2266 28.8114 15.1915 28.383C15.1564 27.9202 14.8933 27.3889 13.9811 27.2346C11.6655 26.8061 8.80616 24.5094 8.80616 20.893C8.80616 17.6365 11.3322 16.3682 12.6128 15.117C12.7882 14.9456 12.911 14.7571 12.911 14.4657V14.3629C12.911 14.2086 12.876 14.0029 12.6655 13.7458C11.3849 12.169 10.42 11.1235 8.66582 11.1235C6.75372 11.1235 5.06967 12.6661 5.06967 14.8942C5.06967 17.2937 6.28008 18.1164 7.49049 18.4078C7.89397 18.5106 8.0343 18.5449 8.0343 18.6649C8.0343 18.922 7.77117 18.8706 7.77117 19.2648C7.77117 19.5561 7.99922 19.5219 7.99922 19.9846C7.99922 20.3103 7.701 20.4131 7.701 20.9101C7.701 21.3044 7.89397 21.4415 7.89397 21.6643C7.89397 21.9557 8.06939 21.9214 8.06939 22.5555C8.06939 22.7269 8.13956 22.8469 7.99922 22.8469C7.85888 22.8469 7.701 22.6241 7.49049 22.3156C7.01685 21.63 6.50813 21.2015 6.13974 20.9273C3.21019 18.8534 3.10494 17.945 2.36816 16.5224C2.19274 16.1968 2.14012 15.6312 1.78927 15.4769C0.719195 14.9456 -0.0175781 14.7914 -0.0175781 13.9344C-0.0175781 13.5402 0.456062 13.9344 1.19284 13.9344C1.59631 13.9344 2.06995 14.0029 2.298 13.1802C2.80672 11.432 4.91179 8.63828 8.6132 8.63828C12.5427 8.63828 14.4898 11.8262 14.6302 11.9976C14.8933 12.3575 15.1389 12.4947 15.402 12.4947C15.5775 12.4947 15.7003 12.4947 15.9985 12.2376C18.4895 10.078 18.6824 9.11819 18.6824 7.867C18.6824 6.29017 17.4018 4.45625 15.1214 4.45625C12.8409 4.45625 11.7533 6.22161 11.455 7.54135C11.3498 7.96984 11.2796 8.19265 11.0866 8.19265C10.7884 8.19265 10.7884 7.79845 10.4551 7.79845C9.91132 7.79845 9.85869 8.02126 9.57802 8.02126C9.20963 8.02126 9.20963 7.36996 8.66582 7.36996C8.52549 7.36996 8.22727 7.54135 8.0343 7.54135C7.52558 7.54135 7.49049 7.64419 7.26244 7.64419C6.99931 7.64419 6.71864 7.50708 6.71864 7.31854C6.71864 7.13001 6.89406 6.99289 7.42033 6.7358C8.12201 6.37587 8.77108 6.11878 9.10438 5.38178C10.1394 3.11937 12.4374 2.39951 13.3145 2.07386C13.6478 1.93675 13.8232 1.81677 13.9811 1.50826C14.6828 0.257076 14.9986 0.11996 15.1915 0.11996C15.3845 0.11996 15.367 0.44561 15.4547 0.839818C15.5599 1.30258 15.5599 1.66251 16.3318 1.85105C18.5246 2.41665 21.7348 4.38769 21.7348 7.98698C21.7348 11.5863 18.1035 13.8658 17.9281 14.0029C17.5246 14.2943 17.3843 14.5343 17.3843 14.7571C17.3843 14.9285 17.4896 15.117 17.5948 15.3227C18.4719 17.0366 19.9806 18.1507 21.7348 18.1507C23.8223 18.1507 25.4362 16.2482 25.4362 14.2772C25.4362 12.3061 24.0854 11.1235 22.9101 10.7636C22.4716 10.6265 22.2786 10.6265 22.2786 10.4036C22.2786 10.1466 22.5768 10.2323 22.5768 9.83804C22.5768 9.54667 22.4365 9.61523 22.4365 9.15247C22.4365 8.82682 22.8399 8.72398 22.8399 8.22693C22.8399 7.83273 22.647 7.69561 22.647 7.4728C22.647 7.18143 22.5417 7.2157 22.5417 6.58154C22.5417 6.41015 22.4716 6.29017 22.6119 6.29017C22.7873 6.29017 22.9452 6.51299 23.1557 6.8215C23.6293 7.50708 23.9977 8.0384 24.3661 8.26121C27.015 9.9066 27.5939 10.9521 28.2079 12.4261C28.3482 12.7518 28.471 13.3174 28.8745 13.5402C29.2078 13.7458 29.9445 13.9687 29.9445 14.2258" fill="#1D1D1D"/>
</g>
<defs>
<clipPath id="clip0_28_1327">
<rect width="188" height="29" fill="white"/>
</clipPath>
</defs>
</svg>
