<svg width="152" height="37" viewBox="0 0 152 37" fill="none" xmlns="http://www.w3.org/2000/svg">
<path d="M124.903 10.5808C124.903 10.9545 124.956 11.3347 125.109 11.6887C125.776 13.3014 127.45 14.2913 129.584 13.4522C130.098 13.2489 144.237 7.65043 144.237 7.65043C144.237 7.65043 138.668 21.5287 138.461 22.0466C137.648 24.033 138.621 25.8358 140.282 26.4454C140.649 26.5765 141.029 26.6421 141.409 26.6355C142.756 26.629 143.95 25.8423 144.53 24.2821C144.624 24.0461 151.586 5.25106 151.74 4.79217C151.827 4.52994 151.993 3.9006 151.993 3.46138C151.993 2.53048 151.64 1.65202 150.966 0.989901C150.299 0.334337 149.426 0 148.485 0C148.038 0 147.665 0.0786676 147.105 0.25567C146.771 0.36056 128.817 6.92931 127.284 7.49309C125.743 8.05688 124.903 9.25656 124.903 10.5808Z" fill="#ED1C24"/>
<path d="M89.0017 36.6724V19.9883H99.6926V22.7285H92.2697V26.6488H99.0257V29.3891H92.2697V33.9321H99.9594V36.6724H89.0017Z" fill="#454B52"/>
<path d="M111.884 36.6721L111.157 35.5838C110.917 35.7477 110.724 35.9313 110.484 36.1017C109.516 36.7442 108.343 36.9474 107.189 36.9474C104.281 36.9474 101.607 35.2298 101.607 32.129C101.607 29.7624 103.101 28.7463 104.661 27.2647C103.794 26.1568 102.954 25.2587 102.954 23.764C102.954 21.4696 104.975 20.2437 107.116 20.2437C109.256 20.2437 111.03 21.5679 111.03 23.7903C111.03 25.6586 109.85 26.7206 108.529 27.8285L111.337 31.5587C111.871 30.5426 111.871 29.4347 111.797 28.3202L114.245 28.3464C114.272 28.7201 114.292 29.1003 114.292 29.4805C114.292 31.0932 113.912 32.5289 112.924 33.8073L115.085 36.6655H111.871L111.884 36.6721ZM106.375 29.5133C105.562 30.3197 104.454 31.0211 104.454 32.2995C104.454 33.8335 105.842 34.4759 107.242 34.4759C108.083 34.4759 108.996 34.2596 109.597 33.6499L106.375 29.5133ZM107.149 22.5185C106.402 22.5185 105.775 22.9905 105.775 23.7706C105.775 24.6228 106.402 25.3767 106.935 26.0192C107.629 25.4488 108.469 24.6687 108.469 23.705C108.469 22.9446 107.869 22.5185 107.149 22.5185Z" fill="#454B52"/>
<path d="M128.164 34.876C127.063 36.3641 125.256 37 123.429 37C121.214 37 119.194 36.2002 117.76 34.5154C116.246 32.7651 115.786 30.6476 115.786 28.4252C115.786 27.2649 115.886 26.1046 116.226 24.9967C117.16 21.7582 119.834 19.6538 123.289 19.6538C126.963 19.6538 129.058 21.8762 129.251 25.3965H126.437C126.15 23.6724 125.163 22.4203 123.262 22.4203C120.021 22.4203 119.18 25.8882 119.18 28.4449C119.18 31.0016 120.187 34.2073 123.335 34.2073C125.57 34.2073 126.437 32.4111 126.53 30.4772H129.464C129.398 32.0833 129.158 33.5452 128.171 34.8694" fill="#454B52"/>
<path d="M9.5371 36.6655L3.28796 27.8285L9.51042 19.9814H13.2586L6.90939 27.7105L13.6854 36.659H9.53043L9.5371 36.6655ZM0 19.988H3.26796V36.6655H0V19.988Z" fill="#454B52"/>
<path d="M27.6576 33.1191C26.7706 35.9053 24.0562 37.0001 21.2617 37.0001C18.4673 37.0001 15.9263 35.9643 14.9659 33.2896C14.6058 32.2931 14.5591 31.2115 14.5591 30.1691V19.9817H17.8337V29.5463C17.8337 30.5624 17.7804 31.867 18.3139 32.7848C18.9075 33.8534 20.1413 34.2008 21.2951 34.2008C22.3688 34.2008 23.6027 33.8468 24.1962 32.8766C24.7564 31.9588 24.7231 30.7591 24.7231 29.7102V19.9751H27.9977V30.392C27.9977 31.3163 27.951 32.2341 27.6576 33.1126" fill="#454B52"/>
<path d="M44.2109 36.6658V23.6529L40.5828 36.6658H37.2215L33.6401 23.6529V36.6658H30.7056V19.9883H35.2474L38.9221 33.2438L42.6503 19.9883H47.1454V36.6658H44.2109Z" fill="#454B52"/>
<path d="M59.9235 36.6658V29.2973H53.1942V36.6658H49.9263V19.9883H53.1942V26.6488H59.9235V19.9883H63.1915V36.6658H59.9235Z" fill="#454B52"/>
<path d="M73.0155 22.4006C69.7275 22.4006 68.7605 25.6588 68.7605 28.3335C68.7605 31.0082 69.7209 34.2598 73.0355 34.2598C76.3501 34.2598 77.3172 31.0016 77.3172 28.3335C77.3172 25.6653 76.3101 22.4006 73.0155 22.4006ZM76.8637 36.0101C75.7099 36.6985 74.336 37 73.0155 37C71.9084 37 70.6346 36.7247 69.6342 36.2199C66.4996 34.64 65.3792 31.6113 65.3792 28.3269C65.3792 25.0425 66.4062 22.204 69.3741 20.5519C70.4745 19.9357 71.775 19.6538 73.0422 19.6538C75.043 19.6538 76.9904 20.3684 78.3776 21.7844C80.0916 23.5085 80.7119 25.9931 80.7119 28.3335C80.7119 31.4474 79.7048 34.3253 76.8704 36.0101" fill="#454B52"/>
</svg>
