<svg id="logo" xmlns="http://www.w3.org/2000/svg" xmlns:xlink="http://www.w3.org/1999/xlink" width="123.5" height="32.297" viewBox="0 0 123.5 32.297">
  <defs>
    <clipPath id="clip-path">
      <rect id="사각형_26" data-name="사각형 26" width="123.5" height="32.297" fill="#174193"/>
    </clipPath>
  </defs>
  <g id="그룹_1" data-name="그룹 1" clip-path="url(#clip-path)">
    <path id="패스_1" data-name="패스 1" d="M375.019,175.873v3.462H370.5l.963.72c2.457,2.126,3.071,4.95.771,7.5-4.476,4.97-18.046,4.942-22.366-.242-2.439-2.926-.922-6.094,1.877-7.982h-4.761l-.144-.144v-3.318Zm-15.313,4.356c-2.188.159-6.936,1.427-5.634,4.518,1.1,2.6,6.394,2.921,8.778,2.665,2.153-.231,6.6-1.487,5.387-4.518-1.03-2.568-6.232-2.832-8.531-2.664" transform="translate(-313.461 -158.949)" fill="#174193"/>
    <path id="패스_2" data-name="패스 2" d="M1009.473,30.831h4.424V25.254h5v14.9h-5V34.293h-4.424c-.811,3.048-3.87,5.025-6.845,5.609-5.745,1.129-14.04-2.839-11.38-9.646,2.766-7.079,15.955-6.933,18.225.575m-9.445-2.376a4.149,4.149,0,1,0,.738,8.24c5.553-.5,4.963-8.546-.738-8.24" transform="translate(-895.399 -22.657)" fill="#174193"/>
    <path id="패스_3" data-name="패스 3" d="M371.8,0V2.886h10.965V6.251h-3.559l.98,1.472c1.182,2.572-.278,4.781-2.431,6.164-3.145,2.02-7.941,2.4-11.566,1.867-4.76-.7-11.081-4.122-6.8-9.5h-3.559V2.886H366.7V0ZM368.413,6.28c-1.995.13-6.626,1.179-5.226,4.11,1.455,3.046,10.213,3.018,12.059.221.854-1.3.122-2.526-1.05-3.246a10.538,10.538,0,0,0-5.783-1.085" transform="translate(-321.592 -0.001)" fill="#174193"/>
    <path id="패스_4" data-name="패스 4" d="M1038.521,197.858v2.5h14.043v-2.5h5v11.251h-23.132c-.322,0-.914-.716-.914-1.01V197.858Zm14.043,5.962h-14.043v1.827h14.043Z" transform="translate(-934.066 -178.818)" fill="#174193"/>
    <path id="패스_5" data-name="패스 5" d="M20.487,29.979v3.462H13.273c.256,4.645,2.369,8.762,6.925,10.386l-2.215,2.647c-.435.2-2.493-1.063-2.952-1.377A14.834,14.834,0,0,1,11.6,41.8l-1.113-1.915A8.2,8.2,0,0,1,7.74,43.343a17.031,17.031,0,0,1-5.482,3.185L0,43.827A12.6,12.6,0,0,0,6.364,38.7a14.031,14.031,0,0,0,1.523-5.257H.577V29.979Z" transform="translate(0 -27.094)" fill="#174193"/>
    <path id="패스_6" data-name="패스 6" d="M681.277,34.344V30.978h14.38a6.753,6.753,0,0,1,.676.285c1.5.862.68,3.981.364,5.371-1.657,7.3-5.96,14.609-12.181,18.849L680.7,53.143a29.723,29.723,0,0,0,9.441-11.811,23.806,23.806,0,0,0,1.8-5.99c.034-.277.142-.827-.036-1Z" transform="translate(-615.199 -27.997)" fill="#174193"/>
    <rect id="사각형_25" data-name="사각형 25" width="5.002" height="27.982" transform="translate(85.796 2.404)" fill="#174193"/>
    <path id="패스_7" data-name="패스 7" d="M43.077,218.843V225H62.217v3.462H39.181c-.439,0-1.2-.668-1.2-1.106v-8.51Z" transform="translate(-34.324 -197.784)" fill="#174193"/>
    <path id="패스_8" data-name="패스 8" d="M241.985,24.982V44.6h-4.953l-.144-.144V24.982Z" transform="translate(-214.092 -22.578)" fill="#174193"/>
  </g>
</svg>
