<svg width="64" height="33" viewBox="0 0 64 33" fill="none" xmlns="http://www.w3.org/2000/svg">
<path fill-rule="evenodd" clip-rule="evenodd" d="M43.6741 31.027C43.8488 31.1005 44.0368 31.1671 44.2383 31.2287C48.3226 32.4767 59.7812 33.0439 62.2772 31.2287C64.5402 29.5829 63.912 27.2842 63.5213 25.8548C63.4811 25.7076 63.4434 25.5697 63.4117 25.4427C63.3734 25.2895 63.2891 24.9367 63.1672 24.426C62.2051 20.3973 58.8963 6.54158 57.2853 3.31959C55.47 -0.310865 51.4992 -2.01264 48.7764 3.7734C47.6171 6.23688 46.211 10.3662 44.9697 14.4977C47.0976 16.4085 48.436 19.181 48.436 22.266C48.436 25.9376 46.5402 29.1664 43.6741 31.027Z" fill="#6A8238"/>
<path fill-rule="evenodd" clip-rule="evenodd" d="M32.3121 9.42264C32.3828 5.71721 29.4762 2.63611 25.7729 2.49088L22.0502 2.3449C18.229 2.19504 15.0342 5.22146 14.9772 9.04518L14.9168 13.091C16.4091 16.4225 18.5528 22.4699 19.3924 24.9888C20.2996 27.7105 20.4903 30.3426 18.2137 31.6119C19.1961 32.1625 20.3294 32.4767 21.5369 32.4767H25.1937C27.44 32.4767 29.436 31.3875 30.6765 29.7045C28.7534 27.8113 27.5609 25.1779 27.5609 22.266C27.5609 18.6329 29.4172 15.4333 32.233 13.564L32.3121 9.42264Z" fill="#A4B648"/>
<path fill-rule="evenodd" clip-rule="evenodd" d="M43.6741 31.027C42.0404 32.0876 40.0914 32.7036 37.9985 32.7036C35.1459 32.7036 32.5606 31.5592 30.6765 29.7045C31.4842 28.6089 31.9716 27.2616 31.9995 25.7994L32.233 13.564C33.8849 12.4673 35.8671 11.8284 37.9985 11.8284C40.6779 11.8284 43.1216 12.8381 44.9697 14.4977C43.2955 20.0699 41.921 25.646 41.8558 27.1444C41.7553 29.4577 42.3097 30.4529 43.6741 31.027Z" fill="#6CA13C"/>
<path fill-rule="evenodd" clip-rule="evenodd" d="M0.559423 26.1233C-0.121287 27.636 -0.733926 30.8429 2.2612 31.569C6.0051 32.4766 13.9467 33.0438 17.2368 32.0228C17.6036 31.9089 17.9281 31.7711 18.2137 31.6119C16.1053 30.4302 14.6919 28.1593 14.7305 25.568L14.9168 13.091C14.5942 12.371 14.3021 11.7778 14.0602 11.3746C12.6988 9.10552 8.16069 8.31136 6.11856 12.5091C4.07643 16.7068 1.11369 23.8542 0.559423 26.1233Z" fill="#446A37"/>
<path d="M14.7305 25.568L14.9168 13.091C16.4091 16.4225 18.5528 22.4699 19.3924 24.9888C20.2996 27.7105 20.4903 30.3426 18.2137 31.6119C16.1053 30.4302 14.6919 28.1593 14.7305 25.568Z" fill="#39582F"/>
<path d="M32.233 13.564L31.9995 25.7994C31.9716 27.2616 31.4842 28.6089 30.6765 29.7045C28.7534 27.8113 27.5609 25.1779 27.5609 22.266C27.5609 18.6329 29.4172 15.4333 32.233 13.564Z" fill="#538335"/>
<path fill-rule="evenodd" clip-rule="evenodd" d="M43.6741 31.027C42.3097 30.4529 41.7553 29.4577 41.8558 27.1444C41.921 25.646 43.2955 20.0699 44.9697 14.4977C47.0976 16.4085 48.436 19.181 48.436 22.266C48.436 25.9376 46.5402 29.1664 43.6741 31.027Z" fill="#446A36"/>
</svg>
