<svg width="25" height="25" viewBox="0 0 25 25" fill="none" xmlns="http://www.w3.org/2000/svg">
<path d="M0 9.93092C0 10.2816 0.0492353 10.6385 0.190791 10.9708C0.806252 12.4844 2.35106 13.4135 4.32054 12.6259C4.79444 12.4352 17.8422 7.18053 17.8422 7.18053C17.8422 7.18053 12.7031 20.2064 12.5123 20.6925C11.7615 22.5568 12.66 24.2489 14.1925 24.8211C14.531 24.9442 14.8818 25.0057 15.2326 24.9996C16.4759 24.9934 17.5776 24.2551 18.113 22.7907C18.1992 22.5691 24.6246 4.92854 24.7661 4.49783C24.8461 4.25171 25 3.66103 25 3.24878C25 2.37505 24.6738 1.55055 24.0522 0.929101C23.4367 0.313802 22.6305 0 21.7627 0C21.3503 0 21.0057 0.0738358 20.4887 0.239966C20.181 0.338414 3.61276 6.50371 2.1972 7.03286C0.775485 7.56202 0 8.68801 0 9.93092Z" fill="#ED1C24"/>
</svg>
