<svg width="66" height="66" viewBox="0 0 66 66" fill="none" xmlns="http://www.w3.org/2000/svg">
<path d="M64.4447 44.251V46.1358H60.8321V55.7484H58.6332V46.1358H55.0049V44.251H64.4447Z" fill="#5C4728"/>
<path d="M52.2438 52.6859C52.2438 52.4974 52.2177 52.3246 52.1653 52.1675C52.113 52 52.003 51.8429 51.8355 51.6963C51.6679 51.5393 51.4271 51.3979 51.113 51.2723C50.8093 51.1466 50.4009 51.0262 49.8878 50.911L48.8669 50.7068C47.7255 50.466 46.8826 50.0733 46.3381 49.5288C45.7936 48.9843 45.5213 48.288 45.5213 47.4398C45.5213 46.9162 45.6208 46.445 45.8198 46.0262C46.0292 45.5969 46.3171 45.2356 46.6836 44.9424C47.0606 44.6387 47.5056 44.4084 48.0187 44.2513C48.5423 44.0838 49.1234 44 49.7622 44H49.7779C50.4062 44 50.9821 44.0942 51.5056 44.2827C52.0292 44.4607 52.4847 44.7225 52.8721 45.0681C53.27 45.4031 53.5842 45.8115 53.8145 46.2932C54.0449 46.7749 54.181 47.3141 54.2229 47.911H52.1653C52.0815 47.2094 51.8198 46.6702 51.38 46.2932C50.9507 45.9058 50.38 45.712 49.6679 45.712H49.6522C49.3695 45.712 49.1077 45.7539 48.8669 45.8377C48.626 45.9215 48.4166 46.0366 48.2386 46.1832C48.0711 46.3194 47.9349 46.4817 47.8302 46.6702C47.736 46.8586 47.6889 47.0628 47.6889 47.2827C47.6889 47.6806 47.8302 48.0052 48.113 48.2565C48.4062 48.4974 48.9088 48.6911 49.6208 48.8377L50.6418 49.0733C51.3224 49.2094 51.9035 49.377 52.3852 49.5759C52.8669 49.7749 53.2596 50.0157 53.5632 50.2984C53.8669 50.5707 54.0868 50.8901 54.2229 51.2565C54.3695 51.623 54.4428 52.0419 54.4428 52.5131C54.4428 53.0157 54.3328 53.4817 54.113 53.911C53.8931 54.3298 53.5789 54.6963 53.1705 55.0105C52.7726 55.3246 52.291 55.5707 51.7255 55.7487C51.1705 55.9162 50.558 56 49.8878 56H49.8721C49.2753 56 48.6993 55.911 48.1444 55.733C47.5999 55.555 47.113 55.2984 46.6836 54.9634C46.2648 54.6178 45.9192 54.199 45.647 53.7068C45.3747 53.2042 45.2177 52.6387 45.1758 52.0105H47.2177C47.2596 52.3456 47.3538 52.6545 47.5004 52.9372C47.6575 53.2094 47.8564 53.4503 48.0972 53.6597C48.3486 53.8586 48.6313 54.0157 48.9454 54.1309C49.27 54.2356 49.626 54.288 50.0135 54.288H50.0292C50.7203 54.288 51.2596 54.1361 51.647 53.8325C52.0449 53.5183 52.2438 53.1361 52.2438 52.6859Z" fill="#5C4728"/>
<path d="M38.5748 53.9264H43.9936V55.7484H36.4072V44.251H43.8208V46.0887H38.5748V49.1201H43.1612V50.895H38.5748V53.9264Z" fill="#5C4728"/>
<path d="M32.5679 55.7484L30.2276 51.8531H28.1072V55.7484H25.9082V44.251H30.2433C30.8506 44.251 31.4108 44.3295 31.9239 44.4866C32.4475 44.6332 32.8925 44.8635 33.259 45.1777C33.6255 45.4918 33.9134 45.8897 34.1229 46.3714C34.3323 46.8426 34.437 47.3976 34.437 48.0363V48.1777C34.437 49.0049 34.259 49.6855 33.903 50.2196C33.5469 50.7536 33.06 51.1567 32.4422 51.429L35.0967 55.7484H32.5679ZM28.1072 46.1044V50.1881H30.2433C30.8506 50.1881 31.3323 50.0311 31.6883 49.7169C32.0443 49.4028 32.2223 48.9002 32.2223 48.2091V48.0834C32.2223 47.3923 32.0443 46.8897 31.6883 46.5756C31.3323 46.2614 30.8506 46.1044 30.2433 46.1044H28.1072Z" fill="#5C4728"/>
<path d="M18.9271 56C18.2151 56 17.5397 55.8848 16.901 55.6545C16.2622 55.4241 15.6968 55.0838 15.2046 54.6335C14.7125 54.1832 14.3198 53.623 14.0266 52.9529C13.7439 52.2723 13.6025 51.4869 13.6025 50.5969V49.4188C13.6025 48.5288 13.7439 47.7487 14.0266 47.0785C14.3198 46.3979 14.7125 45.8325 15.2046 45.3822C15.6968 44.9215 16.2622 44.5759 16.901 44.3455C17.5397 44.1152 18.2151 44 18.9271 44H18.9429C19.6444 44 20.3146 44.1152 20.9533 44.3455C21.6025 44.5759 22.168 44.9215 22.6497 45.3822C23.1418 45.8325 23.5292 46.3979 23.812 47.0785C24.1052 47.7487 24.2518 48.5288 24.2518 49.4188V50.5969C24.2518 51.4869 24.1052 52.2723 23.812 52.9529C23.5292 53.623 23.1418 54.1832 22.6497 54.6335C22.168 55.0838 21.6025 55.4241 20.9533 55.6545C20.3146 55.8848 19.6444 56 18.9429 56H18.9271ZM18.9429 54.1623C19.3408 54.1623 19.723 54.0942 20.0894 53.9581C20.4664 53.8115 20.7963 53.6021 21.079 53.3298C21.3722 53.0471 21.6025 52.7016 21.7701 52.2932C21.9481 51.8848 22.0371 51.4084 22.0371 50.8639V49.1518C22.0371 48.6073 21.9481 48.1309 21.7701 47.7225C21.6025 47.3141 21.3722 46.9738 21.079 46.7016C20.7963 46.4188 20.4664 46.2094 20.0894 46.0733C19.723 45.9267 19.3408 45.8534 18.9429 45.8534H18.9271C18.5292 45.8534 18.1418 45.9267 17.7648 46.0733C17.3879 46.2094 17.0528 46.4188 16.7596 46.7016C16.4769 46.9738 16.2465 47.3141 16.0685 47.7225C15.901 48.1309 15.8172 48.6073 15.8172 49.1518V50.8639C15.8172 51.4084 15.901 51.8848 16.0685 52.2932C16.2465 52.7016 16.4769 53.0471 16.7596 53.3298C17.0528 53.6021 17.3879 53.8115 17.7648 53.9581C18.1418 54.0942 18.5292 54.1623 18.9271 54.1623H18.9429Z" fill="#5C4728"/>
<path d="M12.9162 46.0887H7.19895V49.2614H12.1623V51.0677H7.19895V55.7484H5V44.251H12.9162V46.0887Z" fill="#5C4728"/>
<path fill-rule="evenodd" clip-rule="evenodd" d="M44.6741 40.027C44.8488 40.1005 45.0368 40.1671 45.2383 40.2287C49.3226 41.4767 60.7812 42.0439 63.2772 40.2287C65.5402 38.5829 64.912 36.2842 64.5213 34.8548C64.4811 34.7076 64.4434 34.5697 64.4117 34.4427C64.3734 34.2895 64.2891 33.9367 64.1672 33.426C63.2051 29.3973 59.8963 15.5416 58.2853 12.3196C56.47 8.68914 52.4992 6.98736 49.7764 12.7734C48.6171 15.2369 47.211 19.3662 45.9697 23.4977C48.0976 25.4085 49.436 28.181 49.436 31.266C49.436 34.9376 47.5402 38.1664 44.6741 40.027Z" fill="#6A8238"/>
<path fill-rule="evenodd" clip-rule="evenodd" d="M33.3121 18.4226C33.3828 14.7172 30.4762 11.6361 26.7729 11.4909L23.0502 11.3449C19.229 11.195 16.0342 14.2215 15.9772 18.0452L15.9168 22.091C17.4091 25.4225 19.5528 31.4699 20.3924 33.9888C21.2996 36.7105 21.4903 39.3426 19.2137 40.6119C20.1961 41.1625 21.3294 41.4767 22.5369 41.4767H26.1937C28.44 41.4767 30.436 40.3875 31.6765 38.7045C29.7534 36.8113 28.5609 34.1779 28.5609 31.266C28.5609 27.6329 30.4172 24.4333 33.233 22.564L33.3121 18.4226Z" fill="#A4B648"/>
<path fill-rule="evenodd" clip-rule="evenodd" d="M44.6741 40.027C43.0404 41.0876 41.0914 41.7036 38.9985 41.7036C36.1459 41.7036 33.5606 40.5592 31.6765 38.7045C32.4842 37.6089 32.9716 36.2616 32.9995 34.7994L33.233 22.564C34.8849 21.4673 36.8671 20.8284 38.9985 20.8284C41.6779 20.8284 44.1216 21.8381 45.9697 23.4977C44.2955 29.0699 42.921 34.646 42.8558 36.1444C42.7553 38.4577 43.3097 39.4529 44.6741 40.027Z" fill="#6CA13C"/>
<path fill-rule="evenodd" clip-rule="evenodd" d="M1.55942 35.1233C0.878713 36.636 0.266074 39.8429 3.2612 40.569C7.0051 41.4766 14.9467 42.0438 18.2368 41.0228C18.6036 40.9089 18.9281 40.7711 19.2137 40.6119C17.1053 39.4302 15.6919 37.1593 15.7305 34.568L15.9168 22.091C15.5942 21.371 15.3021 20.7778 15.0602 20.3746C13.6988 18.1055 9.16069 17.3114 7.11856 21.5091C5.07643 25.7068 2.11369 32.8542 1.55942 35.1233Z" fill="#446A37"/>
<path d="M15.7305 34.568L15.9168 22.091C17.4091 25.4225 19.5528 31.4699 20.3924 33.9888C21.2996 36.7105 21.4903 39.3426 19.2137 40.6119C17.1053 39.4302 15.6919 37.1593 15.7305 34.568Z" fill="#39582F"/>
<path d="M33.233 22.564L32.9995 34.7994C32.9716 36.2616 32.4842 37.6089 31.6765 38.7045C29.7534 36.8113 28.5609 34.1779 28.5609 31.266C28.5609 27.6329 30.4172 24.4333 33.233 22.564Z" fill="#538335"/>
<path fill-rule="evenodd" clip-rule="evenodd" d="M44.6741 40.027C43.3097 39.4529 42.7553 38.4577 42.8558 36.1444C42.921 34.646 44.2955 29.0699 45.9697 23.4977C48.0976 25.4085 49.436 28.181 49.436 31.266C49.436 34.9376 47.5402 38.1664 44.6741 40.027Z" fill="#446A36"/>
</svg>
