<svg xmlns="http://www.w3.org/2000/svg" xmlns:xlink="http://www.w3.org/1999/xlink" width="115.468" height="59" viewBox="0 0 115.468 59">
  <defs>
    <clipPath id="clip-path">
      <rect id="사각형_39" data-name="사각형 39" width="115.468" height="30.197" fill="#15366c"/>
    </clipPath>
  </defs>
  <g id="그룹_9" data-name="그룹 9" transform="translate(-7019 -11170)">
    <path id="패스_20" data-name="패스 20" d="M373.186,175.873v3.237h-4.227l.9.673c2.3,1.988,2.871,4.628.721,7.016-4.185,4.646-16.872,4.62-20.912-.226-2.28-2.736-.862-5.7,1.755-7.463h-4.451l-.135-.135v-3.1Zm-14.317,4.072c-2.045.149-6.485,1.334-5.267,4.224,1.026,2.435,5.979,2.731,8.207,2.491,2.013-.216,6.174-1.39,5.037-4.224-.963-2.4-5.826-2.648-7.976-2.491" transform="translate(6703.368 11024.95)" fill="#15366c"/>
    <path id="패스_21" data-name="패스 21" d="M370.761,0V2.7h10.252V5.845h-3.327l.917,1.376c1.105,2.405-.26,4.47-2.273,5.764-2.94,1.889-7.424,2.247-10.814,1.746-4.45-.658-10.361-3.854-6.355-8.886h-3.327V2.7h10.162V0ZM367.6,5.871c-1.865.122-6.195,1.1-4.886,3.843,1.36,2.848,9.549,2.822,11.274.206.8-1.211.114-2.362-.981-3.035A9.853,9.853,0,0,0,367.6,5.871" transform="translate(6695.182 11184.999)" fill="#15366c"/>
    <path id="패스_22" data-name="패스 22" d="M19.155,29.979v3.237H12.41c.24,4.343,2.215,8.193,6.475,9.711L16.813,45.4c-.406.183-2.331-.994-2.76-1.287a13.87,13.87,0,0,1-3.21-3.084L9.8,39.239a7.665,7.665,0,0,1-2.566,3.234,15.923,15.923,0,0,1-5.125,2.978L0,42.927a11.78,11.78,0,0,0,5.95-4.8,13.119,13.119,0,0,0,1.424-4.915H.539V29.979Z" transform="translate(7019 11157.718)" fill="#15366c"/>
    <path id="패스_23" data-name="패스 23" d="M42.745,218.843V224.6h17.9v3.237H39.1c-.41,0-1.124-.625-1.124-1.034v-7.957Z" transform="translate(6984.438 10985.847)" fill="#15366c"/>
    <path id="패스_24" data-name="패스 24" d="M241.654,24.982V43.323h-4.631l-.135-.135V24.982Z" transform="translate(6803.425 11162.266)" fill="#15366c"/>
    <rect id="사각형_40" data-name="사각형 40" width="58" height="59" transform="translate(7019 11170)" fill="none"/>
  </g>
</svg>
