<svg width="180" height="34" viewBox="0 0 180 34" fill="none" xmlns="http://www.w3.org/2000/svg">
<path d="M41.0334 3.22485C41.0334 4.80069 42.2097 6.12211 43.7516 6.58258C45.7077 7.16674 47.7993 8.08842 49.5322 9.43767C50.9449 10.5377 52.1398 11.9384 52.8071 13.69C53.1699 14.6424 53.3706 15.683 53.3737 16.8143C53.3785 18.5425 53.6689 20.3171 54.7635 21.6743L55.8409 23.0101C55.9439 23.1379 56 23.2959 56 23.4586C56 24.874 55.2613 26.8411 53.2111 28.4078C51.2595 29.8993 48.1655 30.9975 43.4624 31C43.0531 31.0002 42.7279 30.6673 42.7375 30.2673C42.7472 29.8674 43.0881 29.5519 43.4975 29.5512C47.9504 29.5435 50.6824 28.5016 52.2984 27.2666C52.9557 26.7643 53.4358 26.2251 53.7778 25.6975C54.5327 24.5331 54.0224 23.0953 53.1493 22.0127L51.6394 20.1406C51.4942 19.9605 51.4448 19.724 51.5062 19.5027C52.0927 17.3865 51.9686 15.6396 51.4185 14.1956C50.8658 12.745 49.8629 11.5472 48.6089 10.5708C46.083 8.60407 42.6231 7.60394 40.1985 7.30033C39.8286 7.25399 39.5516 6.9463 39.5516 6.58187V4.84869C39.5516 2.7581 37.2211 1.46422 35.3839 2.53477L30.1206 5.60167C29.769 5.80653 29.3141 5.69397 29.1045 5.35029C28.8951 5.00673 29.0102 4.56228 29.3617 4.35749L36.052 0.459135C38.248 -0.820405 41.0334 0.726098 41.0334 3.22485Z" fill="#00823E"/>
<path d="M25.1368 2.03612C28.1532 3.01282 33.7731 6.7318 35.7316 14.3244C36.2679 16.4036 37.4323 18.3273 39.3021 19.3804L42.6277 21.2535C42.8811 21.3963 43.0259 21.6759 42.9962 21.9654C42.7321 24.538 40.7047 30.2704 34.6709 33.0527C31.584 34.4761 28.8123 34.1289 26.6261 33.1059C24.8019 32.2522 23.3888 30.9324 22.5047 29.7931C22.254 29.47 22.353 29.0094 22.6966 28.7878C23.0372 28.5681 23.4897 28.6661 23.7421 28.9832C24.5069 29.9439 25.7178 31.0584 27.2552 31.7778C29.0947 32.6386 31.406 32.9398 34.0493 31.7209C36.9488 30.3839 38.8194 28.2827 39.9676 26.2765C41.2435 24.0472 39.968 21.4428 37.731 20.1827L35.2497 18.7852C35.0373 18.6655 34.8983 18.4478 34.8792 18.2045C34.5657 14.2014 33.231 11.1156 31.5669 8.81357C28.1751 4.12171 21.7113 3.06761 16.1601 4.70195C12.2434 5.85508 9.67032 7.65091 7.91981 9.39084C6.50066 10.8014 5.59763 12.1991 4.94656 13.2619C4.63174 13.7758 4.34466 14.265 4.09605 14.6035C3.97069 14.7742 3.82128 14.9551 3.64534 15.094C3.60523 15.1256 3.55992 15.158 3.50971 15.1887C3.27694 15.3313 3.02495 15.4676 2.90647 15.7137C2.68999 16.1632 2.44853 16.8455 2.22557 17.698C1.78083 19.3985 1.43616 21.6729 1.48078 23.9039C1.52577 26.153 1.96452 28.2518 2.98695 29.6944C3.964 31.073 5.5359 31.9428 8.13817 31.6573C12.3849 31.1913 15.0945 28.665 16.7803 25.6131C18.1998 23.0433 18.8679 20.1362 19.0763 17.8957C19.1043 17.5946 18.9153 17.3203 18.7811 17.0493C18.6308 16.7456 18.706 16.4435 18.738 16.3288C18.7819 16.1712 18.8539 16.0105 18.9303 15.8619C19.2309 15.277 19.8502 14.4098 20.584 13.46C21.9183 11.7328 23.7574 9.57306 25.1997 7.93364C25.4671 7.62972 25.9293 7.6015 26.2335 7.86851C26.5407 8.13812 26.5699 8.60598 26.3 8.9129C24.8698 10.539 23.0595 12.6659 21.7554 14.354C21.5186 14.6604 21.3025 14.9475 21.1104 15.2109C20.7965 15.6414 20.6358 16.1617 20.6249 16.6945C20.5739 19.1933 19.9125 22.9931 18.075 26.3196C16.2261 29.6667 13.1512 32.5841 8.30028 33.1163C5.21655 33.4547 3.09621 32.3978 1.77948 30.54C0.508127 28.7462 0.0515052 26.2989 0.00418176 23.9331C-0.0435011 21.5492 0.322587 19.1399 0.796278 17.3287C1.03252 16.4254 1.30223 15.6449 1.57438 15.0798C1.70827 14.8018 1.85919 14.5409 2.02913 14.3405C2.11421 14.2402 2.22542 14.1294 2.36561 14.0427C2.42471 14.0062 2.49591 13.9699 2.57742 13.9419C2.70159 13.8991 2.82553 13.8438 2.90329 13.738C3.1038 13.4649 3.33886 13.0636 3.68515 12.4984C4.35636 11.4027 5.33175 9.88747 6.8756 8.35295C9.98565 5.2617 15.3055 2.18701 24.8936 2.00014C24.9761 1.99853 25.0583 2.01069 25.1368 2.03612ZM20.1614 16.7206C20.1559 16.7402 20.1584 16.7378 20.1618 16.719C20.1617 16.7196 20.1615 16.7201 20.1614 16.7206ZM2.82902 15.3549C2.84021 15.356 2.85119 15.3566 2.8619 15.357C2.85103 15.3563 2.84004 15.356 2.82902 15.3549Z" fill="#00823E"/>
<path d="M163.799 25.0834C163.799 22.3724 164.774 20.272 166.312 18.8509C167.847 17.4328 169.927 16.7061 172.114 16.7061C174.281 16.7061 176.363 17.3829 177.846 18.7575C179.336 20.138 180.2 22.2012 179.961 24.9177L179.96 24.9205L179.96 24.9232L179.78 26.5421H169.128C169.266 28.0534 170.684 29.3898 172.987 29.3898V29.6332L172.869 29.632C170.413 29.5844 168.873 28.0472 168.873 26.2986H179.562L179.718 24.8963C180.178 19.6812 176.471 17.033 172.313 16.9515L172.114 16.9496C167.845 16.9496 164.043 19.7855 164.043 25.0834L164.045 25.3169C164.154 30.1141 167.622 32.9395 172.382 33.028L172.613 33.0301C174.483 33.0301 176.726 32.7808 178.129 31.5655V27.8258C176.913 28.7295 174.763 29.6332 172.987 29.6332V29.3898C174.699 29.3897 176.8 28.5106 177.984 27.6303L178.372 27.3412V31.6766L178.288 31.7493C177.546 32.3929 176.591 32.7721 175.599 32.9914C174.605 33.2109 173.557 33.2736 172.613 33.2736C170.089 33.2736 167.884 32.5272 166.307 31.12C164.728 29.7098 163.799 27.6544 163.799 25.0834ZM172.383 20.3163C174.088 20.3629 175.387 21.8641 175.418 23.2445H168.998C168.998 21.811 170.494 20.3153 172.301 20.3153L172.383 20.3163ZM172.301 20.5588C171.465 20.5588 170.696 20.9052 170.137 21.4214C169.646 21.8738 169.33 22.4425 169.257 23.0011H175.153C174.984 21.7975 173.805 20.5588 172.301 20.5588Z" fill="#00823E"/>
<path d="M161.868 17.0118C161.564 16.9651 161.19 16.9534 160.864 16.9505L160.559 16.9496C158.003 16.9496 156.445 17.7599 155.199 20.3153V17.2613H150.43V32.7496H155.479V26.2986C155.479 23.2758 156.788 21.4682 159.468 21.4682L159.581 21.4701C160.182 21.4881 161.312 21.6377 161.868 21.8422V17.0118ZM162.111 22.1915L161.783 22.0707C161.512 21.9708 161.073 21.8801 160.621 21.8144C160.172 21.7491 159.732 21.7117 159.468 21.7117C158.187 21.7117 157.266 22.1405 156.659 22.9017C156.044 23.6721 155.723 24.8173 155.723 26.2986V32.993H150.187V17.0178H155.442V19.3628C155.967 18.5096 156.559 17.8904 157.262 17.4657C158.179 16.9123 159.257 16.7061 160.559 16.7061C160.927 16.7061 161.477 16.7055 161.905 16.7712L162.111 16.8029V22.1915Z" fill="#00823E"/>
<path d="M140.284 28.0438V24.6783C140.284 23.4326 139.841 22.5685 139.189 22.012C138.53 21.4503 137.632 21.182 136.694 21.182C135.796 21.182 134.991 21.5425 134.407 22.2058C133.822 22.8704 133.447 23.8538 133.447 25.1145C133.447 26.6791 133.849 27.6741 134.386 28.2751C134.922 28.875 135.616 29.1092 136.258 29.1092V29.3527L136.125 29.3498C134.776 29.2875 133.253 28.258 133.205 25.2634L133.203 25.1145C133.203 22.4968 134.762 20.9385 136.694 20.9385L136.878 20.9418C138.772 21.0101 140.527 22.1423 140.527 24.6783V28.0438L140.528 28.1508C140.571 30.3672 141.942 32.9469 145.436 33.0282L145.607 33.0301C146.168 33.0301 147.04 32.9054 147.321 32.7496V28.7295C147.196 28.8541 146.978 28.9789 146.604 28.9789V28.7354C146.918 28.7354 147.072 28.6334 147.148 28.5573L147.564 28.1417V32.8929L147.439 32.9624C147.341 33.0167 147.21 33.0601 147.074 33.095C146.935 33.1311 146.774 33.1628 146.607 33.189C146.273 33.2411 145.902 33.2736 145.607 33.2736C143.702 33.2736 142.362 32.5682 141.502 31.547C140.648 30.5328 140.284 29.2271 140.284 28.0438ZM145.575 27.67V17.2299H140.807V18.5701C139.66 17.6041 138.162 16.9887 136.369 16.9512L136.195 16.9496C131.895 16.9496 128.435 19.9725 128.435 25.1145L128.437 25.3537C128.521 30.3416 131.234 32.9999 134.793 33.0613C138.501 33.1235 140.028 29.8515 139.094 27.7012C138.657 29.01 137.379 29.3527 136.258 29.3527V29.1092C137.352 29.1092 138.478 28.7761 138.862 27.6241L139.063 27.0214L139.317 27.6039C140.308 29.8833 138.722 33.2624 134.969 33.3052L134.789 33.3047C132.917 33.2725 131.26 32.5444 130.073 31.1506C128.889 29.7597 128.192 27.7275 128.192 25.1145C128.192 22.4869 129.077 20.3809 130.531 18.9313C131.983 17.4827 133.987 16.7061 136.195 16.7061C137.919 16.7061 139.393 17.2215 140.564 18.0711V16.9864H145.819V27.67C145.819 28.1444 145.941 28.401 146.077 28.5395C146.212 28.678 146.398 28.7354 146.604 28.7354V28.9789L146.51 28.9753C146.057 28.9419 145.607 28.6543 145.577 27.7642L145.575 27.67Z" fill="#00823E"/>
<path d="M114.694 21.1253C114.694 17.0429 117.437 14.1446 121.052 14.1446C122.797 14.1446 124.386 14.7991 125.913 16.2638V10.6854C124.102 9.87031 122.407 9.46458 120.603 9.44003L120.429 9.43884C113.884 9.43884 109.272 14.7056 109.272 21.0007L109.275 21.2941C109.394 27.4004 113.249 33.1255 120.259 33.216L120.429 33.217C122.267 33.217 124.075 32.7807 125.913 31.9392V26.3611C124.355 27.8881 122.828 28.5114 121.052 28.5114V28.268C122.757 28.268 124.225 27.675 125.743 26.1871L126.157 25.7814V32.0957L126.015 32.1608C124.149 33.0144 122.307 33.4604 120.429 33.4604C116.74 33.4604 113.883 31.9393 111.952 29.6135C110.025 27.2926 109.028 24.1811 109.028 21.0007C109.028 14.5863 113.735 9.19537 120.429 9.19537C122.337 9.19539 124.116 9.60992 126.013 10.4636L126.157 10.528V16.8347L125.745 16.4395C124.257 15.0124 122.726 14.3881 121.052 14.3881C117.59 14.3881 114.938 17.1582 114.938 21.1253C114.938 23.1664 115.547 24.9547 116.611 26.2282C117.672 27.4981 119.193 28.268 121.052 28.268V28.5114L120.871 28.509C117.11 28.4108 114.694 25.236 114.694 21.1253Z" fill="#00823E"/>
<path d="M104.308 27.7014V20.9075H106.614V17.2615H104.308V12.8048H99.2591V17.2615H96.9217V20.9075H99.2591V28.0754L99.2603 28.2104C99.3131 31.0382 101.031 33.0614 104.65 33.0615C105.211 33.0615 106.396 32.9367 106.676 32.7809V29.0725C106.551 29.1972 106.022 29.3217 105.648 29.3217V29.0782C105.812 29.0782 106.018 29.0504 106.199 29.0072C106.288 28.9857 106.366 28.9616 106.425 28.938C106.492 28.9111 106.51 28.8949 106.504 28.9004L106.92 28.4848V32.9243L106.794 32.9939C106.689 33.0526 106.529 33.0953 106.37 33.1288C106.202 33.1642 106.004 33.1954 105.799 33.2213C105.391 33.2727 104.944 33.3049 104.65 33.3049C102.766 33.3049 101.349 32.769 100.404 31.8277C99.4589 30.8868 99.0157 29.5718 99.0157 28.0754V21.151H96.6782V17.018H99.0157V12.5614H104.551V17.018H106.857V21.151H104.551V27.7014C104.551 28.2134 104.609 28.5484 104.756 28.757C104.887 28.9427 105.127 29.0782 105.648 29.0782V29.3217L105.545 29.32C104.579 29.2866 104.338 28.771 104.31 27.889L104.308 27.7014Z" fill="#00823E"/>
<path d="M79.1025 25.0834C79.1025 22.3724 80.0773 20.272 81.6154 18.8509C83.1505 17.4328 85.23 16.7061 87.4176 16.7061C89.5843 16.7061 91.6658 17.3829 93.1495 18.7575C94.6397 20.138 95.5036 22.2012 95.264 24.9177L95.2637 24.9205L95.2635 24.9232L95.0835 26.5421H84.4313C84.5691 28.0534 85.987 29.3898 88.2902 29.3898V29.6332L88.1725 29.632C85.7165 29.5844 84.1764 28.0472 84.1764 26.2986H94.8657L95.0214 24.8963C95.4816 19.6812 91.7745 17.033 87.6159 16.9515L87.4176 16.9496C83.1481 16.9496 79.346 19.7855 79.346 25.0834L79.3486 25.3169C79.4575 30.1141 82.9257 32.9395 87.6848 33.028L87.9162 33.0301C89.7859 33.0301 92.0296 32.7808 93.432 31.5655V27.8258C92.2166 28.7295 90.0664 29.6332 88.2902 29.6332V29.3898C90.0024 29.3897 92.1029 28.5106 93.2867 27.6303L93.6755 27.3412V31.6766L93.5915 31.7493C92.8489 32.3929 91.8946 32.7721 90.902 32.9914C89.9081 33.2109 88.8603 33.2736 87.9162 33.2736C85.3919 33.2736 83.1873 32.5272 81.6107 31.12C80.0308 29.7098 79.1026 27.6544 79.1025 25.0834ZM87.686 20.3163C89.3912 20.3629 90.6901 21.8641 90.7208 23.2445H84.301C84.301 21.811 85.797 20.3153 87.6044 20.3153L87.686 20.3163ZM87.6044 20.5588C86.7682 20.5588 85.9997 20.9052 85.4399 21.4214C84.9493 21.8738 84.6332 22.4425 84.5606 23.0011H90.4566C90.2871 21.7975 89.1082 20.5588 87.6044 20.5588Z" fill="#00823E"/>
<path d="M77.6802 17.6974C77.6802 12.8504 74.9321 9.99628 69.228 9.9083L68.9541 9.9064V9.66293C71.9352 9.66293 74.1851 10.3884 75.6909 11.7764C77.1999 13.1675 77.9237 15.1888 77.9237 17.6974C77.9236 21.6009 75.2629 24.8784 71.7145 25.1389C69.7616 25.2818 68.2703 24.8886 67.3002 24.0606C66.3228 23.2263 65.9168 21.9874 66.0631 20.5398L66.1036 20.1397L66.4393 20.361C67.789 21.251 69.2827 21.297 70.4325 20.7824C71.5813 20.2681 72.3881 19.1964 72.3881 17.822C72.3881 16.8322 72.056 15.9439 71.4532 15.305C70.8525 14.6684 69.9681 14.2634 68.8295 14.2634H65.7072V32.9929H60.1719V9.66293H68.9541V9.9064H60.4153V32.7494H65.4638V14.0199H68.8295C71.2291 14.0199 72.6316 15.734 72.6316 17.822L72.629 17.9596C72.5227 20.8332 69.0968 22.405 66.3052 20.5643C66.0291 23.2946 67.8065 25.1189 71.5184 24.9078L71.6967 24.8961C75.0405 24.6507 77.5992 21.5969 77.6783 17.875L77.6802 17.6974Z" fill="#00823E"/>
<path d="M178.129 31.5652C176.726 32.7806 174.482 33.0299 172.613 33.0299C167.658 33.0299 164.042 30.1005 164.042 25.0831C164.042 19.7852 167.844 16.9493 172.114 16.9493C176.352 16.9493 180.185 19.5982 179.718 24.8961L179.562 26.2985H168.873C168.873 28.0748 170.462 29.633 172.987 29.633C174.763 29.633 176.913 28.7293 178.129 27.8255V31.5652ZM172.301 20.315C170.493 20.315 168.998 21.8109 168.998 23.2444H175.417C175.386 21.842 174.046 20.315 172.301 20.315Z" fill="#00823E"/>
<path d="M150.43 32.7494V17.2609H155.198V20.315C156.445 17.7595 158.003 16.9493 160.558 16.9493C160.932 16.9493 161.462 16.9493 161.867 17.0116V21.842C161.275 21.6239 160.029 21.4681 159.468 21.4681C156.788 21.4681 155.479 23.2756 155.479 26.2985V32.7494H150.43Z" fill="#00823E"/>
<path d="M140.527 24.6779C140.527 22.0602 138.657 20.9383 136.694 20.9383C134.761 20.9383 133.203 22.4965 133.203 25.1142C133.203 28.3241 134.855 29.3525 136.257 29.3525C137.379 29.3525 138.657 29.0097 139.093 27.7009C140.028 29.8512 138.501 33.1234 134.793 33.0611C131.177 32.9987 128.435 30.2563 128.435 25.1142C128.435 19.9722 131.894 16.9493 136.195 16.9493C138.065 16.9493 139.623 17.5726 140.807 18.5698V17.2298H145.575V27.6697C145.575 28.6981 146.105 28.9786 146.604 28.9786C146.978 28.9786 147.196 28.8539 147.32 28.7293V32.7494C147.04 32.9052 146.167 33.0299 145.606 33.0299C141.929 33.0299 140.527 30.3186 140.527 28.0437V24.6779Z" fill="#00823E"/>
<path d="M125.913 16.2639C124.386 14.7992 122.797 14.1447 121.051 14.1447C117.436 14.1447 114.694 17.043 114.694 21.1255C114.694 25.3014 117.187 28.5113 121.051 28.5113C122.828 28.5113 124.355 27.888 125.913 26.361V31.9394C124.074 32.7808 122.267 33.2171 120.428 33.2171C113.198 33.2171 109.271 27.2648 109.271 21.0008C109.271 14.7057 113.884 9.43896 120.428 9.43896C122.298 9.43896 124.043 9.8441 125.913 10.6855V16.2639Z" fill="#00823E"/>
<path d="M104.308 20.9072V27.701C104.308 28.7294 104.526 29.3215 105.648 29.3215C106.022 29.3215 106.552 29.1968 106.676 29.0722V32.7807C106.396 32.9365 105.211 33.0612 104.651 33.0612C100.973 33.0612 99.2592 30.9732 99.2592 28.0749V20.9072H96.9219V17.261H99.2592V12.8046H104.308V17.261H106.614V20.9072H104.308Z" fill="#00823E"/>
<path d="M93.4318 31.5652C92.0294 32.7806 89.7856 33.0299 87.9158 33.0299C82.9607 33.0299 79.3457 30.1005 79.3457 25.0831C79.3457 19.7852 83.1477 16.9493 87.4172 16.9493C91.6555 16.9493 95.4886 19.5982 95.0212 24.8961L94.8654 26.2985H84.1761C84.1761 28.0748 85.7655 29.633 88.2898 29.633C90.0661 29.633 92.2164 28.7293 93.4318 27.8255V31.5652ZM87.6042 20.315C85.7967 20.315 84.3008 21.8109 84.3008 23.2444H90.7206C90.6894 21.842 89.3493 20.315 87.6042 20.315Z" fill="#00823E"/>
<path d="M60.415 32.7493V9.9061H68.954C74.844 9.9061 77.6799 12.7732 77.6799 17.6971C77.6799 21.4991 75.0933 24.6467 71.6964 24.896C67.8632 25.1764 66.0246 23.3378 66.305 20.5642C69.141 22.434 72.6313 20.7823 72.6313 17.8217C72.6313 15.7338 71.2289 14.0197 68.8293 14.0197H65.4636V32.7493H60.415Z" fill="#00823E"/>
<path d="M30.8519 19C30.8519 17.9773 30.0227 17.1481 29 17.1481C27.9773 17.1481 27.1481 17.9773 27.1481 19C27.1481 20.0227 27.9773 20.8519 29 20.8519V21C27.8954 21 27 20.1046 27 19C27 17.8954 27.8954 17 29 17C30.1046 17 31 17.8954 31 19C31 20.1046 30.1046 21 29 21V20.8519C30.0227 20.8519 30.8519 20.0227 30.8519 19Z" fill="#00823E"/>
<path d="M31 19C31 20.1046 30.1046 21 29 21C27.8954 21 27 20.1046 27 19C27 17.8954 27.8954 17 29 17C30.1046 17 31 17.8954 31 19Z" fill="#00823E"/>
<path d="M48.75 19C48.75 18.0335 47.9665 17.25 47 17.25C46.0335 17.25 45.25 18.0335 45.25 19C45.25 19.9665 46.0335 20.75 47 20.75V21C45.8954 21 45 20.1046 45 19C45 17.8954 45.8954 17 47 17C48.1046 17 49 17.8954 49 19C49 20.1046 48.1046 21 47 21V20.75C47.9665 20.75 48.75 19.9665 48.75 19Z" fill="#00823E"/>
<path d="M49 19C49 20.1046 48.1046 21 47 21C45.8954 21 45 20.1046 45 19C45 17.8954 45.8954 17 47 17C48.1046 17 49 17.8954 49 19Z" fill="#00823E"/>
</svg>
